<?xml version="1.0" encoding="UTF-8"?> <svg xmlns="http://www.w3.org/2000/svg" width="120" height="95" viewBox="0 0 120 95" fill="none"><g clip-path="url(#clip0)" fill-rule="evenodd" clip-rule="evenodd"><path d="M10.3761 81.946c1.9002 0 2.2377-.9876 2.2377-2.9003v-4.5005a1.475 1.475 0 0 1 1.4877-1.4501h2.2502a1.4368 1.4368 0 0 1 1.0291.421 1.4379 1.4379 0 0 1 .4211 1.0291v3.7504c0 1.4252.3125 3.9504-1.5002 5.2506 1.6502 1.2501 1.5377 3.8504 1.5377 5.3005v3.7504a1.4386 1.4386 0 0 1-.4211 1.0291 1.4379 1.4379 0 0 1-1.0291.4211H14.189a1.5002 1.5002 0 0 1-1.5002-1.4502v-4.513c0-1.9002-.35-2.8878-2.2502-2.8878H6.7382c-.075-2.2002.7876-3.2503 3.6379-3.2503zM5.2255 92.5097a1.4753 1.4753 0 0 1-1.4751 1.4626H1.5002a1.4368 1.4368 0 0 1-1.0664-.4069A1.438 1.438 0 0 1 0 92.5097V74.5828a1.4376 1.4376 0 0 1 1.4502-1.4502h2.3002a1.4876 1.4876 0 0 1 1.5001 1.4502v17.9269M82.296 93.9223h-8.5384a4.7897 4.7897 0 0 1-3.5426-1.3108 4.7869 4.7869 0 0 1-1.49-3.471 4.7883 4.7883 0 0 1 3.1266-4.4905 4.7879 4.7879 0 0 1 1.906-.2912h6.6757a1.3999 1.3999 0 0 0 1.4501-1.2501v-.7876a1.3878 1.3878 0 0 0-1.4501-1.2502H70.2322a.9499.9499 0 0 1-.9376-.9376v-1.3751a.9504.9504 0 0 1 .9376-.9376h12.9264a.911.911 0 0 1 .3125 0h.2875a2.5002 2.5002 0 0 1 2.5003 2.1877v7.0383H75.6703a1.4389 1.4389 0 0 0-1.021.4254 1.4375 1.4375 0 0 0-.4166 1.0247v.8626a1.45 1.45 0 0 0 1.4376 1.4502H86.784a4.8015 4.8015 0 0 1-1.7527 2.2716 4.8014 4.8014 0 0 1-2.7353.8662" fill="#fff"></path><path d="M55.7433 77.8206h8.5634a4.7882 4.7882 0 0 1 3.2264 8.0798 4.7882 4.7882 0 0 1-3.2264 1.4837H57.631a1.3873 1.3873 0 0 0-1.4501 1.2501v3.7504a1.4777 1.4777 0 0 1-.1171.5636 1.476 1.476 0 0 1-1.3706.8991H53.243a1.4626 1.4626 0 0 1-1.4626-1.4627v-7.7133H62.319a1.4504 1.4504 0 0 0 1.4501-1.4501v-.8626a1.4498 1.4498 0 0 0-1.4501-1.4502H51.2553a4.801 4.801 0 0 1 4.488-3.1378v.05zM24.365 81.696h6.1382c.3315 0 .6495.1317.884.3661.2344.2345.3661.5525.3661.884v5.5131a1.2503 1.2503 0 0 1-1.2501 1.2501H24.365a1.2501 1.2501 0 0 1-1.2501-1.2501v-5.4881c0-.3315.1317-.6495.3662-.8839a1.2498 1.2498 0 0 1 .8839-.3662v-.025zm-2.3377-4.1879h10.8136a2.5003 2.5003 0 0 1 2.4128 2.5877V91.347a2.4999 2.4999 0 0 1-1.4594 2.3757 2.5007 2.5007 0 0 1-.9534.2246H22.0273a2.501 2.501 0 0 1-1.7554-.7939 2.499 2.499 0 0 1-.6698-1.8064V80.0958a2.4989 2.4989 0 0 1 .6743-1.7983 2.4998 2.4998 0 0 1 1.7509-.7894zM107.574 77.4081h10.001c.331.008.658.0819.961.2175.303.1355.575.3299.802.572.227.242.404.5267.519.8376.116.3109.169.6417.155.9731v1.5502H109.911c-.331 0-.649.1317-.884.3661a1.2521 1.2521 0 0 0-.366.884v5.5131c0 .3315.132.6495.366.884.235.2344.553.3661.884.3661H120v1.6877c0 .6503-.253 1.2752-.706 1.7419a2.4977 2.4977 0 0 1-1.719.7584h-10.001a2.5008 2.5008 0 0 1-2.426-2.5003V80.0083a2.5083 2.5083 0 0 1 .158-.9665c.116-.3086.291-.5913.517-.8318a2.4973 2.4973 0 0 1 1.751-.7894M45.8423 73.0451h5.188a.9625.9625 0 0 1 .9501.9501v1.2501a.9503.9503 0 0 1-.9501.9376H47.98c-1.2501 0-1.8752.4626-2.1002 1.3752v15.0015a1.4626 1.4626 0 0 1-1.4877 1.4502h-2.2127a1.437 1.437 0 0 1-1.0475-.4384 1.4377 1.4377 0 0 1-.4026-1.0618V76.8705a1.9752 1.9752 0 0 0-1.8377-.7501h-3.1004a.9376.9376 0 0 1-.9376-.9376v-1.2501a.95.95 0 0 1 .9376-.9501h10.0011l.05.0625zM92.8971 83.3462h5.5381v-4.288a1.501 1.501 0 0 1 .4745-1.0718 1.4997 1.4997 0 0 1 1.1003-.4033h2.238c.192-.0051.384.0288.563.0997.179.0709.342.1773.478.3129.137.1355.245.2973.317.4756.073.1783.108.3695.105.5619v13.5014c0 .1915-.038.3811-.112.5579a1.454 1.454 0 0 1-.317.472 1.4532 1.4532 0 0 1-1.034.4203h-2.238a1.4767 1.4767 0 0 1-1.0916-.4046 1.4764 1.4764 0 0 1-.4582-1.0706V86.459h-5.5756v6.0506a1.4875 1.4875 0 0 1-1.4877 1.4502h-2.2502a1.4519 1.4519 0 0 1-1.0335-.4203 1.4517 1.4517 0 0 1-.4292-1.0299V79.1582a1.4509 1.4509 0 0 1 .4292-1.0298 1.4483 1.4483 0 0 1 .4747-.3135 1.4482 1.4482 0 0 1 .5588-.1068h2.2377a1.4869 1.4869 0 0 1 1.0389.4224c.278.2709.439.6397.4488 1.0277v4.2505" fill="#fff"></path><path d="M86.6215 16.2517a31.9893 31.9893 0 0 1 4.1004 14.6765 64.5553 64.5553 0 0 1-11.4511 13.3514C67.407 54.8557 53.243 60.0563 41.3668 59.2812a33.1277 33.1277 0 0 1-2.3252-1.6127c13.5764.375 29.3405-9.2385 39.7166-25.5527a64.2686 64.2686 0 0 0 7.2633-15.8641h.6zM63.6441.2625a32.066 32.066 0 0 1 18.9395 10.3761l.375.4376-.225.9876a62.9814 62.9814 0 0 0-21.8273 5.188C45.1922 24.015 34.0036 35.8162 30.3657 47.7675c-.2876-.5126-.5501-1.0251-.8001-1.5377.6001-11.9137 7.4008-25.4276 19.302-36.0287A64.5434 64.5434 0 0 1 63.6441.2625zM37.0789 8.0133A32.1034 32.1034 0 0 1 55.4433 0a69.3737 69.3737 0 0 0-8.1634 6.2507C35.3537 16.8893 28.528 30.4532 27.9654 42.3794a32.2531 32.2531 0 0 1 9.1135-34.366zm52.9305 31.2033a32.2282 32.2282 0 0 1-30.9615 25.1188 32.229 32.229 0 0 1-13.9057-2.929c11.8762.7251 26.0277-4.4755 37.9039-15.0016a66.0659 66.0659 0 0 0 6.9633-7.1882zM37.8539 56.7184a31.2657 31.2657 0 0 1-3.3253-3.2378 32.511 32.511 0 0 1-3.0003-3.9129c4.3379-11.1012 15.0016-21.7773 29.6906-28.078a63.331 63.331 0 0 1 20.2896-5.063 64.8585 64.8585 0 0 1-6.9757 14.8266c-9.601 15.1015-23.8775 24.4775-36.7414 25.5026" fill="#94B91B"></path></g><defs><clipPath id="clip0"><path fill="#fff" d="M0 0h120v94.0473H0z"></path></clipPath></defs></svg> 