<?xml version="1.0" encoding="UTF-8"?> <!-- Generated by IcoMoon.io --> <svg xmlns="http://www.w3.org/2000/svg" width="43" height="32" viewBox="0 0 43 32"><title>serv-8</title><path d="M0.79 15.249c0.059 0.118 0.151 0.218 0.264 0.287s0.243 0.106 0.376 0.106h1.429v1.042l-1.826 1.209c-0.088 0.058-0.162 0.135-0.216 0.226s-0.088 0.191-0.098 0.296c-0.010 0.105 0.003 0.21 0.038 0.309s0.093 0.189 0.168 0.263l0.715 0.711c0.033 0.033 0.070 0.063 0.109 0.089l2.144 1.422c0.053 0.035 0.111 0.063 0.171 0.083l1.984 0.658 1.31 1.303c0.134 0.133 0.316 0.208 0.505 0.208s0.371-0.075 0.505-0.208l0.402-0.4 1.565 0.519 0.595 0.592c0.105 0.105 0.241 0.174 0.387 0.198l3.93 0.652 0.552 1.098c0.069 0.138 0.182 0.25 0.32 0.319l1.033 0.516v0.983c0 0.14 0.042 0.278 0.12 0.395l1.429 2.133c0.065 0.097 0.154 0.177 0.257 0.232s0.22 0.084 0.337 0.084h1.429c0.189-0 0.371-0.075 0.505-0.208l2.649-2.636h1.552l1.725 1.716v1.128c-0.001 0.133 0.036 0.263 0.106 0.376s0.17 0.204 0.289 0.264l1.429 0.711c0.092 0.046 0.192 0.072 0.295 0.076s0.205-0.014 0.3-0.053c0.095-0.039 0.18-0.098 0.25-0.173s0.123-0.164 0.155-0.261l0.661-1.974 1.228-1.221 4.181-2.081c0.119-0.059 0.22-0.151 0.289-0.264s0.106-0.243 0.106-0.376v-2.018l0.678-2.024c0.024-0.072 0.037-0.148 0.036-0.225v-2.133c0-0.076-0.012-0.152-0.036-0.225l-0.715-2.133c-0.025-0.072-0.060-0.141-0.106-0.202l-1.952-2.589 0.493-2.454 1.376 0.456c0.126 0.042 0.261 0.048 0.39 0.017s0.247-0.096 0.341-0.189l1.286-1.28 2.667-0.663c0.156-0.038 0.294-0.127 0.392-0.253s0.152-0.28 0.151-0.44v-2.676l1.358-2.694c0.055-0.109 0.080-0.229 0.075-0.351s-0.043-0.239-0.107-0.342c-0.065-0.103-0.154-0.188-0.261-0.247s-0.227-0.089-0.349-0.089h-3.216l-1.929-2.56c-0.067-0.088-0.153-0.16-0.252-0.209s-0.209-0.075-0.32-0.075h-2.858c-0.19 0-0.371 0.075-0.505 0.208l-1.429 1.422c-0.134 0.133-0.209 0.314-0.209 0.503s0.075 0.369 0.209 0.503l0.813 0.809-1.419 0.941c-0.111 0.074-0.2 0.177-0.255 0.299s-0.075 0.256-0.057 0.388c0.018 0.132 0.072 0.256 0.158 0.359s0.198 0.179 0.325 0.221l0.85 0.284-1.767 1.316c-0.027 0.020-0.053 0.042-0.076 0.066l-1.347 1.34-2.547 1.267-4.058-0.673c-0.039-0.007-0.078-0.010-0.118-0.010h-5.519l-3.403-2.031c-0.111-0.067-0.238-0.102-0.368-0.102h-0.419l0.924-0.919c0.080-0.080 0.14-0.177 0.174-0.284s0.043-0.221 0.025-0.332c-0.018-0.111-0.062-0.216-0.129-0.307s-0.155-0.164-0.256-0.215l-1.429-0.711c-0.169-0.084-0.366-0.098-0.545-0.038l-2.034 0.673h-2.028c-0.111-0-0.22 0.025-0.319 0.075l-1.429 0.711c-0.092 0.046-0.173 0.111-0.238 0.191s-0.111 0.173-0.136 0.272l-0.635 2.527-1.065 0.53-2.783 0.692c-0.155 0.039-0.292 0.127-0.39 0.252s-0.151 0.279-0.151 0.437v2.844c-0.001 0.11 0.023 0.219 0.071 0.318l0.718 1.422zM1.429 11.22l2.317-0.577c0.049-0.013 0.097-0.031 0.143-0.053l1.429-0.711c0.092-0.046 0.173-0.111 0.238-0.191s0.111-0.173 0.136-0.273l0.635-2.527 0.988-0.49h1.975c0.077 0 0.153-0.012 0.226-0.036l1.863-0.618 0.278 0.138-1.443 1.435c-0.1 0.099-0.168 0.226-0.196 0.364s-0.013 0.281 0.041 0.411c0.054 0.13 0.146 0.241 0.263 0.319s0.256 0.12 0.397 0.12h1.946l3.403 2.031c0.111 0.066 0.238 0.102 0.368 0.102h5.658l4.229 0.701c0.149 0.025 0.302 0.002 0.437-0.065l2.858-1.422c0.069-0.035 0.131-0.080 0.186-0.134l1.393-1.386 2.818-2.102c0.104-0.078 0.185-0.183 0.234-0.303s0.064-0.252 0.043-0.38c-0.021-0.128-0.077-0.248-0.161-0.347s-0.195-0.173-0.318-0.214l-0.758-0.251 0.929-0.616c0.088-0.058 0.162-0.135 0.216-0.226s0.088-0.191 0.098-0.296c0.010-0.105-0.003-0.21-0.038-0.309s-0.093-0.189-0.168-0.263l-0.925-0.919 0.715-0.711h2.205l1.929 2.56c0.067 0.088 0.153 0.16 0.252 0.209s0.209 0.075 0.32 0.075h2.417l-0.913 1.815c-0.049 0.099-0.075 0.208-0.075 0.318v2.289l-2.317 0.577c-0.126 0.031-0.24 0.096-0.332 0.187l-1.117 1.111-1.725-0.572c-0.096-0.032-0.198-0.044-0.3-0.034s-0.199 0.042-0.287 0.092c-0.088 0.051-0.164 0.119-0.223 0.202s-0.1 0.176-0.12 0.275l-0.715 3.555c-0.021 0.098-0.020 0.2 0.002 0.298s0.065 0.19 0.126 0.271l2.072 2.752 0.643 1.914v1.903l-0.678 2.023c-0.023 0.072-0.034 0.147-0.034 0.222v1.694l-3.892 1.936c-0.069 0.035-0.131 0.080-0.186 0.134l-1.429 1.422c-0.078 0.078-0.137 0.173-0.173 0.278l-0.454 1.355-0.297-0.148v-0.983c0-0.189-0.075-0.369-0.209-0.503l-2.144-2.133c-0.134-0.133-0.316-0.208-0.505-0.208h-2.144c-0.189 0-0.371 0.075-0.505 0.208l-2.649 2.636h-0.751l-1.097-1.635v-1.209c0.001-0.133-0.036-0.263-0.106-0.376s-0.17-0.204-0.289-0.264l-1.215-0.604-0.607-1.209c-0.050-0.1-0.124-0.187-0.215-0.254s-0.196-0.111-0.307-0.129l-4.062-0.674-0.552-0.55c-0.079-0.078-0.174-0.137-0.279-0.172l-2.144-0.711c-0.126-0.042-0.261-0.048-0.39-0.017s-0.247 0.096-0.341 0.189l-0.211 0.21-0.924-0.919c-0.079-0.078-0.174-0.137-0.279-0.172l-2.053-0.68-2.005-1.33-0.048-0.048 1.418-0.941c0.098-0.065 0.178-0.153 0.234-0.256s0.085-0.218 0.084-0.335v-2.133c0-0.189-0.075-0.369-0.209-0.503s-0.316-0.208-0.505-0.208h-1.702l-0.442-0.879v-2.121z"></path><path d="M9.213 16.495l-0.618 2.535c-0.033 0.132-0.027 0.271 0.017 0.399s0.124 0.242 0.231 0.327c0.107 0.085 0.236 0.138 0.372 0.152s0.273-0.011 0.395-0.072l2.539-1.267 2.539 1.267c0.122 0.061 0.259 0.085 0.394 0.071s0.264-0.067 0.371-0.151 0.187-0.198 0.231-0.326c0.044-0.128 0.050-0.267 0.018-0.398l-0.618-2.538 1.847-1.761c0.096-0.092 0.165-0.209 0.198-0.338s0.029-0.264-0.012-0.391c-0.040-0.127-0.116-0.239-0.218-0.326s-0.226-0.142-0.358-0.162l-2.363-0.355-1.429-2.178c-0.069-0.093-0.159-0.169-0.263-0.221s-0.219-0.079-0.335-0.079c-0.116 0-0.231 0.027-0.335 0.079s-0.194 0.128-0.263 0.221l-1.429 2.178-2.363 0.355c-0.132 0.020-0.256 0.076-0.358 0.162s-0.177 0.199-0.218 0.326c-0.040 0.127-0.044 0.262-0.011 0.391s0.102 0.246 0.198 0.338l1.842 1.761zM10.643 14.523c0.1-0.015 0.195-0.050 0.28-0.104s0.157-0.125 0.212-0.209l1.013-1.536 1.010 1.535c0.055 0.084 0.128 0.155 0.212 0.209s0.18 0.090 0.28 0.104l1.24 0.186-1.093 1.042c-0.090 0.086-0.156 0.194-0.192 0.314s-0.038 0.246-0.009 0.367l0.352 1.444-1.482-0.741c-0.099-0.049-0.209-0.075-0.319-0.075s-0.22 0.026-0.319 0.075l-1.482 0.737 0.352-1.444c0.030-0.121 0.027-0.248-0.009-0.367s-0.101-0.228-0.192-0.314l-1.093-1.042 1.237-0.181z"></path><path d="M20.009 12.087h-1.429v1.422h1.429v-1.422z"></path><path d="M21.438 14.931h-1.429v1.422h1.429v-1.422z"></path><path d="M20.723 17.775h-1.429v1.422h1.429v-1.422z"></path><path d="M18.58 20.619h-1.429v1.422h1.429v-1.422z"></path><path d="M0.79 15.249c0.059 0.118 0.151 0.218 0.264 0.287s0.243 0.106 0.376 0.106h1.429v1.042l-1.826 1.209c-0.088 0.058-0.162 0.135-0.216 0.226s-0.088 0.191-0.098 0.296c-0.010 0.105 0.003 0.21 0.038 0.309s0.093 0.189 0.168 0.263l0.715 0.711c0.033 0.033 0.070 0.063 0.109 0.089l2.144 1.422c0.053 0.035 0.111 0.063 0.171 0.083l1.984 0.658 1.31 1.303c0.134 0.133 0.316 0.208 0.505 0.208s0.371-0.075 0.505-0.208l0.402-0.4 1.565 0.519 0.595 0.592c0.105 0.105 0.241 0.174 0.387 0.198l3.93 0.652 0.552 1.098c0.069 0.138 0.182 0.25 0.32 0.319l1.033 0.516v0.983c0 0.14 0.042 0.278 0.12 0.395l1.429 2.133c0.065 0.097 0.154 0.177 0.257 0.232s0.22 0.084 0.337 0.084h1.429c0.189-0 0.371-0.075 0.505-0.208l2.649-2.636h1.552l1.725 1.716v1.128c-0.001 0.133 0.036 0.263 0.106 0.376s0.17 0.204 0.289 0.264l1.429 0.711c0.092 0.046 0.192 0.072 0.295 0.076s0.205-0.014 0.3-0.053c0.095-0.039 0.18-0.098 0.25-0.173s0.123-0.164 0.155-0.261l0.661-1.974 1.228-1.221 4.181-2.081c0.119-0.059 0.22-0.151 0.289-0.264s0.106-0.243 0.106-0.376v-2.018l0.678-2.024c0.024-0.072 0.037-0.148 0.036-0.225v-2.133c0-0.076-0.012-0.152-0.036-0.225l-0.715-2.133c-0.025-0.072-0.060-0.141-0.106-0.202l-1.952-2.589 0.493-2.454 1.376 0.456c0.126 0.042 0.261 0.048 0.39 0.017s0.247-0.096 0.341-0.189l1.286-1.28 2.667-0.663c0.156-0.038 0.294-0.127 0.392-0.253s0.152-0.28 0.151-0.44v-2.676l1.358-2.694c0.055-0.109 0.080-0.229 0.075-0.351s-0.043-0.239-0.107-0.342c-0.065-0.103-0.154-0.188-0.261-0.247s-0.227-0.089-0.349-0.089h-3.216l-1.929-2.56c-0.067-0.088-0.153-0.16-0.252-0.209s-0.209-0.075-0.32-0.075h-2.858c-0.19 0-0.371 0.075-0.505 0.208l-1.429 1.422c-0.134 0.133-0.209 0.314-0.209 0.503s0.075 0.369 0.209 0.503l0.813 0.809-1.419 0.941c-0.111 0.074-0.2 0.177-0.255 0.299s-0.075 0.256-0.057 0.388c0.018 0.132 0.072 0.256 0.158 0.359s0.198 0.179 0.325 0.221l0.85 0.284-1.767 1.316c-0.027 0.020-0.053 0.042-0.076 0.066l-1.347 1.34-2.547 1.267-4.058-0.673c-0.039-0.007-0.078-0.010-0.118-0.010h-5.519l-3.403-2.031c-0.111-0.067-0.238-0.102-0.368-0.102h-0.419l0.924-0.919c0.080-0.080 0.14-0.177 0.174-0.284s0.043-0.221 0.025-0.332c-0.018-0.111-0.062-0.216-0.129-0.307s-0.155-0.164-0.256-0.215l-1.429-0.711c-0.169-0.084-0.366-0.098-0.545-0.038l-2.034 0.673h-2.028c-0.111-0-0.22 0.025-0.319 0.075l-1.429 0.711c-0.092 0.046-0.173 0.111-0.238 0.191s-0.111 0.173-0.136 0.272l-0.635 2.527-1.065 0.53-2.783 0.692c-0.155 0.039-0.292 0.127-0.39 0.252s-0.151 0.279-0.151 0.437v2.844c-0.001 0.11 0.023 0.219 0.071 0.318l0.718 1.422zM1.429 11.22l2.317-0.577c0.049-0.013 0.097-0.031 0.143-0.053l1.429-0.711c0.092-0.046 0.173-0.111 0.238-0.191s0.111-0.173 0.136-0.273l0.635-2.527 0.988-0.49h1.975c0.077 0 0.153-0.012 0.226-0.036l1.863-0.618 0.278 0.138-1.443 1.435c-0.1 0.099-0.168 0.226-0.196 0.364s-0.013 0.281 0.041 0.411c0.054 0.13 0.146 0.241 0.263 0.319s0.256 0.12 0.397 0.12h1.946l3.403 2.031c0.111 0.066 0.238 0.102 0.368 0.102h5.658l4.229 0.701c0.149 0.025 0.302 0.002 0.437-0.065l2.858-1.422c0.069-0.035 0.131-0.080 0.186-0.134l1.393-1.386 2.818-2.102c0.104-0.078 0.185-0.183 0.234-0.303s0.064-0.252 0.043-0.38c-0.021-0.128-0.077-0.248-0.161-0.347s-0.195-0.173-0.318-0.214l-0.758-0.251 0.929-0.616c0.088-0.058 0.162-0.135 0.216-0.226s0.088-0.191 0.098-0.296c0.010-0.105-0.003-0.21-0.038-0.309s-0.093-0.189-0.168-0.263l-0.925-0.919 0.715-0.711h2.205l1.929 2.56c0.067 0.088 0.153 0.16 0.252 0.209s0.209 0.075 0.32 0.075h2.417l-0.913 1.815c-0.049 0.099-0.075 0.208-0.075 0.318v2.289l-2.317 0.577c-0.126 0.031-0.24 0.096-0.332 0.187l-1.117 1.111-1.725-0.572c-0.096-0.032-0.198-0.044-0.3-0.034s-0.199 0.042-0.287 0.092c-0.088 0.051-0.164 0.119-0.223 0.202s-0.1 0.176-0.12 0.275l-0.715 3.555c-0.021 0.098-0.020 0.2 0.002 0.298s0.065 0.19 0.126 0.271l2.072 2.752 0.643 1.914v1.903l-0.678 2.023c-0.023 0.072-0.034 0.147-0.034 0.222v1.694l-3.892 1.936c-0.069 0.035-0.131 0.080-0.186 0.134l-1.429 1.422c-0.078 0.078-0.137 0.173-0.173 0.278l-0.454 1.355-0.297-0.148v-0.983c0-0.189-0.075-0.369-0.209-0.503l-2.144-2.133c-0.134-0.133-0.316-0.208-0.505-0.208h-2.144c-0.189 0-0.371 0.075-0.505 0.208l-2.649 2.636h-0.751l-1.097-1.635v-1.209c0.001-0.133-0.036-0.263-0.106-0.376s-0.17-0.204-0.289-0.264l-1.215-0.604-0.607-1.209c-0.050-0.1-0.124-0.187-0.215-0.254s-0.196-0.111-0.307-0.129l-4.062-0.674-0.552-0.55c-0.079-0.078-0.174-0.137-0.279-0.172l-2.144-0.711c-0.126-0.042-0.261-0.048-0.39-0.017s-0.247 0.096-0.341 0.189l-0.211 0.21-0.924-0.919c-0.079-0.078-0.174-0.137-0.279-0.172l-2.053-0.68-2.005-1.33-0.048-0.048 1.418-0.941c0.098-0.065 0.178-0.153 0.234-0.256s0.085-0.218 0.084-0.335v-2.133c0-0.189-0.075-0.369-0.209-0.503s-0.316-0.208-0.505-0.208h-1.702l-0.442-0.879v-2.121z"></path><path d="M9.213 16.495l-0.618 2.535c-0.033 0.132-0.027 0.271 0.017 0.399s0.124 0.242 0.231 0.327c0.107 0.085 0.236 0.138 0.372 0.152s0.273-0.011 0.395-0.072l2.539-1.267 2.539 1.267c0.122 0.061 0.259 0.085 0.394 0.071s0.264-0.067 0.371-0.151 0.187-0.198 0.231-0.326c0.044-0.128 0.050-0.267 0.018-0.398l-0.618-2.538 1.847-1.761c0.096-0.092 0.165-0.209 0.198-0.338s0.029-0.264-0.012-0.391c-0.040-0.127-0.116-0.239-0.218-0.326s-0.226-0.142-0.358-0.162l-2.363-0.355-1.429-2.178c-0.069-0.093-0.159-0.169-0.263-0.221s-0.219-0.079-0.335-0.079c-0.116 0-0.231 0.027-0.335 0.079s-0.194 0.128-0.263 0.221l-1.429 2.178-2.363 0.355c-0.132 0.020-0.256 0.076-0.358 0.162s-0.177 0.199-0.218 0.326c-0.040 0.127-0.044 0.262-0.011 0.391s0.102 0.246 0.198 0.338l1.842 1.761zM10.643 14.523c0.1-0.015 0.195-0.050 0.28-0.104s0.157-0.125 0.212-0.209l1.013-1.536 1.010 1.535c0.055 0.084 0.128 0.155 0.212 0.209s0.18 0.090 0.28 0.104l1.24 0.186-1.093 1.042c-0.090 0.086-0.156 0.194-0.192 0.314s-0.038 0.246-0.009 0.367l0.352 1.444-1.482-0.741c-0.099-0.049-0.209-0.075-0.319-0.075s-0.22 0.026-0.319 0.075l-1.482 0.737 0.352-1.444c0.030-0.121 0.027-0.248-0.009-0.367s-0.101-0.228-0.192-0.314l-1.093-1.042 1.237-0.181z"></path><path d="M20.009 12.087h-1.429v1.422h1.429v-1.422z"></path><path d="M21.438 14.931h-1.429v1.422h1.429v-1.422z"></path><path d="M20.723 17.775h-1.429v1.422h1.429v-1.422z"></path><path d="M18.58 20.619h-1.429v1.422h1.429v-1.422z"></path></svg> 