<?xml version="1.0" encoding="UTF-8"?> <!-- Generated by IcoMoon.io --> <svg xmlns="http://www.w3.org/2000/svg" width="32" height="32" viewBox="0 0 32 32"><title>serv-7</title><path d="M17.066 0c-8.266 0-14.933 6.7-14.933 15.008v0.59l-2.133 1.233v10.291l8 4.61 8-4.61v-10.291l-8-4.61-4.8 2.787c0-1.822 0.373-3.645 1.067-5.36h3.84c0.16 0 0.267 0.054 0.373 0.161l1.493 1.501c0.32 0.322 0.693 0.482 1.12 0.482h2.24c0.907 0 1.6-0.697 1.6-1.608v-0.643c0-0.429-0.16-0.858-0.48-1.126l-0.96-0.965c-0.107-0.107-0.16-0.215-0.16-0.375v-1.769c0-0.429-0.16-0.858-0.48-1.126l-1.707-1.715c1.867-0.965 3.893-1.394 5.92-1.394v4.395c0 0.429 0.16 0.858 0.48 1.126l1.493 1.501c0.107 0.107 0.16 0.214 0.16 0.375v1.769c0 0.161-0.053 0.268-0.16 0.375l-0.533 0.536c-0.64 0.643-0.64 1.662 0 2.251l0.107 0.107c0.64 0.643 1.653 0.643 2.24 0l1.6-1.608c0.107-0.107 0.213-0.161 0.373-0.161h1.173c0.907 0 1.6-0.697 1.6-1.608v-3.323c0-0.161 0.053-0.268 0.16-0.375l1.227-1.233c1.76 1.822 2.987 4.074 3.573 6.539h-2.4c-0.427 0-0.853 0.161-1.12 0.482l-1.493 1.501c-0.32 0.375-0.48 0.75-0.48 1.179v0.643c0 0.911 0.693 1.608 1.6 1.608h1.173c0.427 0 0.853-0.161 1.12-0.482l1.12-1.126h0.853c-0.053 1.072-0.213 2.144-0.48 3.216h-6.027c-0.16 0-0.267-0.053-0.373-0.161l-2.56-2.573c-0.32-0.322-0.693-0.483-1.12-0.483h-0.64c-0.907 0-1.6 0.697-1.6 1.608v1.179c0 0.429 0.16 0.858 0.48 1.126l0.96 0.965c0.107 0.107 0.16 0.214 0.16 0.375v1.233c0 0.161-0.053 0.268-0.16 0.375-0.64 0.643-0.64 1.662 0 2.251 0.32 0.322 0.693 0.483 1.12 0.483h1.227c0.16 0 0.267 0.053 0.373 0.161l1.707 1.715c-2.026 1.179-4.373 1.876-6.72 1.876l1.227-1.233-0.747-0.75-2.506 2.573 2.506 2.519 0.747-0.75-1.227-1.233c8.266-0.107 14.826-6.915 14.72-15.223-0.107-8.201-6.773-14.794-14.933-14.794zM1.067 18.064l5.866 3.377v8.416l-5.866-3.377v-8.416zM11.2 20.208l1.067-0.59v3.109l-1.067 0.536v-3.055zM8 20.797l-2.667-1.501 6.4-3.645 2.667 1.501-6.4 3.645zM8 30.446v-8.362l2.133-1.233v4.181l3.2-1.608v-4.395l1.6-0.911v8.415l-6.933 3.913zM10.666 15.008l-6.4 3.645-2.667-1.501 6.4-3.645 2.667 1.501zM12.106 4.878c0.107 0.107 0.16 0.214 0.16 0.375v1.769c0 0.429 0.16 0.858 0.48 1.126l0.96 0.965c0.107 0.107 0.16 0.215 0.16 0.375v0.697c0 0.322-0.213 0.536-0.533 0.536h-2.24c-0.16 0-0.267-0.053-0.373-0.161l-1.493-1.501c-0.32-0.322-0.693-0.483-1.12-0.483h-3.307c1.226-2.358 3.093-4.341 5.386-5.628l1.92 1.93zM25.012 5.735c-0.32 0.322-0.48 0.697-0.48 1.126v3.323c0 0.322-0.213 0.536-0.533 0.536h-1.173c-0.427 0-0.853 0.161-1.12 0.483l-1.6 1.608c-0.214 0.214-0.533 0.214-0.747 0l-0.107-0.107c-0.213-0.214-0.213-0.536 0-0.75l0.533-0.536c0.32-0.322 0.48-0.697 0.48-1.126v-1.769c0-0.429-0.16-0.858-0.48-1.126l-1.493-1.501c-0.107-0.107-0.16-0.214-0.16-0.375v-4.395c2.987 0.214 5.813 1.447 8.053 3.43l-1.173 1.179zM29.652 14.472l-1.44 1.447c-0.107 0.107-0.213 0.161-0.373 0.161h-1.173c-0.32 0-0.533-0.214-0.533-0.536v-0.643c0-0.161 0.053-0.268 0.16-0.375l1.493-1.501c0.107-0.107 0.213-0.161 0.373-0.161h2.613c0.107 0.536 0.107 1.072 0.16 1.608h-1.28zM24.959 26.479l-1.867-1.876c-0.32-0.322-0.693-0.483-1.12-0.483h-1.227c-0.32 0-0.533-0.214-0.533-0.536 0-0.161 0.053-0.268 0.16-0.375 0.32-0.322 0.48-0.697 0.48-1.126v-1.233c0-0.429-0.16-0.858-0.48-1.126l-0.96-0.965c-0.107-0.107-0.16-0.214-0.16-0.375v-1.233c0-0.321 0.213-0.536 0.533-0.536h0.64c0.16 0 0.267 0.054 0.373 0.161l2.56 2.573c0.32 0.322 0.693 0.482 1.12 0.482h5.653c-1.067 2.68-2.826 4.985-5.173 6.647z"></path></svg> 