<?xml version="1.0" encoding="UTF-8"?> <!-- Generated by IcoMoon.io --> <svg xmlns="http://www.w3.org/2000/svg" width="41" height="32" viewBox="0 0 41 32"><title>serv-9</title><path d="M0.875 25.338h14.949v-21.957c0-0.445 0.361-0.806 0.806-0.806s0.806 0.361 0.806 0.806v13.683c0.366-0.174 0.774-0.271 1.204-0.271h1.343c0.464-3.374 1.489-6.458 2.999-8.938 0.231-0.38 0.727-0.501 1.108-0.269s0.501 0.727 0.269 1.108c-1.492 2.451-2.474 5.557-2.86 8.967-0.001 0.010-0.001 0.020-0.002 0.030-0.076 0.67-0.128 1.352-0.157 2.039l2.686-2.686-0.506-0.506c-0.315-0.315-0.315-0.825 0-1.14s0.825-0.315 1.14 0l2.152 2.152c0.315 0.315 0.315 0.825 0 1.14-0.157 0.157-0.364 0.236-0.57 0.236s-0.413-0.079-0.57-0.236l-0.506-0.506-2.703 2.703h8.356v-10.226c0-1.638 1.333-2.971 2.971-2.971h1.996v-3.501h-5.010c-0.726 0-1.452 0.152-2.158 0.451-0.41 0.174-0.883-0.018-1.057-0.428s0.018-0.883 0.428-1.057c0.906-0.384 1.844-0.579 2.787-0.579h5.816c0.445 0 0.806 0.361 0.806 0.806v13.412h1.061c1.553 0 2.817 1.264 2.817 2.817v6.534c0 1.553-1.264 2.817-2.817 2.817h-0.586c-0.359 1.389-1.623 2.419-3.123 2.419s-2.764-1.029-3.123-2.419h-6.156c-0.359 1.389-1.623 2.419-3.123 2.419s-2.764-1.029-3.123-2.419h-0.586c-1.273 0-2.351-0.849-2.699-2.011h-15.067c-0.445 0-0.806-0.361-0.806-0.806s0.361-0.806 0.806-0.806zM33.791 9.3c-0.749 0-1.359 0.61-1.359 1.359v10.226h3.355v-11.585h-1.996zM34.752 29.767c0.889 0 1.612-0.723 1.612-1.612s-0.723-1.612-1.612-1.612c-0.889 0-1.612 0.723-1.612 1.612v0.001c0 0.889 0.724 1.612 1.612 1.612zM22.35 29.767c0.889 0 1.612-0.723 1.612-1.612s-0.723-1.612-1.612-1.612c-0.889 0-1.612 0.723-1.612 1.612l-0 0.001c0 0.889 0.724 1.612 1.612 1.612zM18.641 27.348h0.586c0.002-0.006 0.003-0.012 0.005-0.017 0.121-0.459 0.349-0.893 0.655-1.255 0.374-0.442 0.857-0.771 1.403-0.963 0.154-0.054 0.311-0.096 0.471-0.127 0.193-0.037 0.392-0.057 0.588-0.057 0.598 0 1.197 0.17 1.704 0.488 0.409 0.257 0.761 0.606 1.020 1.014 0.115 0.182 0.205 0.364 0.275 0.567 0.010 0.029 0.099 0.35 0.124 0.35h6.156c0.002-0.006 0.003-0.012 0.005-0.017 0.199-0.755 0.683-1.448 1.341-1.875 0.805-0.522 1.871-0.667 2.784-0.368 0.247 0.081 0.498 0.196 0.718 0.335 0.561 0.353 0.995 0.892 1.252 1.501 0.014 0.033 0.138 0.425 0.145 0.425h0.586c0.664 0 1.204-0.54 1.204-1.204v-6.534c0-0.664-0.54-1.204-1.204-1.204h-1.061v4.093h-16.882c-0.13 0-0.259-0.032-0.374-0.092-0.256-0.132-0.425-0.407-0.432-0.695-0.006-0.267-0.009-0.508-0.009-0.737 0-0.24 0.003-0.48 0.009-0.72 0.014-0.617 0.046-1.233 0.097-1.848h-1.166c-0.664 0-1.204 0.54-1.204 1.204v6.535c0 0.664 0.54 1.204 1.205 1.204z"></path><path d="M0.806 12.577h12.507c0.445 0 0.806 0.361 0.806 0.806v9.26c0 0.445-0.361 0.806-0.806 0.806h-12.507c-0.445 0-0.806-0.361-0.806-0.806v-9.26c0-0.445 0.361-0.806 0.806-0.806zM1.612 21.836h10.895v-7.647h-4.641v1.267c0 0.445-0.361 0.806-0.806 0.806s-0.806-0.361-0.806-0.806v-1.267h-4.641v7.647z"></path><path d="M0.806 0h12.507c0.445 0 0.806 0.361 0.806 0.806v9.26c0 0.445-0.361 0.806-0.806 0.806h-12.507c-0.445 0-0.806-0.361-0.806-0.806v-9.26c0-0.445 0.361-0.806 0.806-0.806zM1.612 9.26h10.895v-7.647h-4.641v1.267c0 0.445-0.361 0.806-0.806 0.806s-0.806-0.361-0.806-0.806v-1.267h-4.641v7.647z"></path><path d="M25.65 6.533c-0.444 0-0.806-0.362-0.806-0.806s0.362-0.806 0.806-0.806c0.444 0 0.806 0.362 0.806 0.806s-0.362 0.806-0.806 0.806z"></path><path d="M0.875 25.338h14.949v-21.957c0-0.445 0.361-0.806 0.806-0.806s0.806 0.361 0.806 0.806v13.683c0.366-0.174 0.774-0.271 1.204-0.271h1.343c0.464-3.374 1.489-6.458 2.999-8.938 0.231-0.38 0.727-0.501 1.108-0.269s0.501 0.727 0.269 1.108c-1.492 2.451-2.474 5.557-2.86 8.967-0.001 0.010-0.001 0.020-0.002 0.030-0.076 0.67-0.128 1.352-0.157 2.039l2.686-2.686-0.506-0.506c-0.315-0.315-0.315-0.825 0-1.14s0.825-0.315 1.14 0l2.152 2.152c0.315 0.315 0.315 0.825 0 1.14-0.157 0.157-0.364 0.236-0.57 0.236s-0.413-0.079-0.57-0.236l-0.506-0.506-2.703 2.703h8.356v-10.226c0-1.638 1.333-2.971 2.971-2.971h1.996v-3.501h-5.010c-0.726 0-1.452 0.152-2.158 0.451-0.41 0.174-0.883-0.018-1.057-0.428s0.018-0.883 0.428-1.057c0.906-0.384 1.844-0.579 2.787-0.579h5.816c0.445 0 0.806 0.361 0.806 0.806v13.412h1.061c1.553 0 2.817 1.264 2.817 2.817v6.534c0 1.553-1.264 2.817-2.817 2.817h-0.586c-0.359 1.389-1.623 2.419-3.123 2.419s-2.764-1.029-3.123-2.419h-6.156c-0.359 1.389-1.623 2.419-3.123 2.419s-2.764-1.029-3.123-2.419h-0.586c-1.273 0-2.351-0.849-2.699-2.011h-15.067c-0.445 0-0.806-0.361-0.806-0.806s0.361-0.806 0.806-0.806zM33.791 9.3c-0.749 0-1.359 0.61-1.359 1.359v10.226h3.355v-11.585h-1.996zM34.752 29.767c0.889 0 1.612-0.723 1.612-1.612s-0.723-1.612-1.612-1.612c-0.889 0-1.612 0.723-1.612 1.612v0.001c0 0.889 0.724 1.612 1.612 1.612zM22.35 29.767c0.889 0 1.612-0.723 1.612-1.612s-0.723-1.612-1.612-1.612c-0.889 0-1.612 0.723-1.612 1.612l-0 0.001c0 0.889 0.724 1.612 1.612 1.612zM18.641 27.348h0.586c0.002-0.006 0.003-0.012 0.005-0.017 0.121-0.459 0.349-0.893 0.655-1.255 0.374-0.442 0.857-0.771 1.403-0.963 0.154-0.054 0.311-0.096 0.471-0.127 0.193-0.037 0.392-0.057 0.588-0.057 0.598 0 1.197 0.17 1.704 0.488 0.409 0.257 0.761 0.606 1.020 1.014 0.115 0.182 0.205 0.364 0.275 0.567 0.010 0.029 0.099 0.35 0.124 0.35h6.156c0.002-0.006 0.003-0.012 0.005-0.017 0.199-0.755 0.683-1.448 1.341-1.875 0.805-0.522 1.871-0.667 2.784-0.368 0.247 0.081 0.498 0.196 0.718 0.335 0.561 0.353 0.995 0.892 1.252 1.501 0.014 0.033 0.138 0.425 0.145 0.425h0.586c0.664 0 1.204-0.54 1.204-1.204v-6.534c0-0.664-0.54-1.204-1.204-1.204h-1.061v4.093h-16.882c-0.13 0-0.259-0.032-0.374-0.092-0.256-0.132-0.425-0.407-0.432-0.695-0.006-0.267-0.009-0.508-0.009-0.737 0-0.24 0.003-0.48 0.009-0.72 0.014-0.617 0.046-1.233 0.097-1.848h-1.166c-0.664 0-1.204 0.54-1.204 1.204v6.535c0 0.664 0.54 1.204 1.205 1.204z"></path><path d="M0.806 12.577h12.507c0.445 0 0.806 0.361 0.806 0.806v9.26c0 0.445-0.361 0.806-0.806 0.806h-12.507c-0.445 0-0.806-0.361-0.806-0.806v-9.26c0-0.445 0.361-0.806 0.806-0.806zM1.612 21.836h10.895v-7.647h-4.641v1.267c0 0.445-0.361 0.806-0.806 0.806s-0.806-0.361-0.806-0.806v-1.267h-4.641v7.647z"></path><path d="M0.806 0h12.507c0.445 0 0.806 0.361 0.806 0.806v9.26c0 0.445-0.361 0.806-0.806 0.806h-12.507c-0.445 0-0.806-0.361-0.806-0.806v-9.26c0-0.445 0.361-0.806 0.806-0.806zM1.612 9.26h10.895v-7.647h-4.641v1.267c0 0.445-0.361 0.806-0.806 0.806s-0.806-0.361-0.806-0.806v-1.267h-4.641v7.647z"></path><path d="M25.65 6.533c-0.444 0-0.806-0.362-0.806-0.806s0.362-0.806 0.806-0.806c0.444 0 0.806 0.362 0.806 0.806s-0.362 0.806-0.806 0.806z"></path></svg> 