<?xml version="1.0" encoding="UTF-8"?> <!-- Generated by IcoMoon.io --> <svg xmlns="http://www.w3.org/2000/svg" width="32" height="32" viewBox="0 0 32 32"><title>serv-2</title><path d="M3.2 5.867h3.2c0.295 0 0.533-0.239 0.533-0.533s-0.239-0.533-0.533-0.533h-3.2c-0.295 0-0.533 0.239-0.533 0.533s0.239 0.533 0.533 0.533z"></path><path d="M9.067 5.867h4.8c0.295 0 0.533-0.239 0.533-0.533s-0.239-0.533-0.533-0.533h-4.8c-0.295 0-0.533 0.239-0.533 0.533s0.239 0.533 0.533 0.533z"></path><path d="M3.2 11.734h17.067c0.295 0 0.533-0.239 0.533-0.533s-0.239-0.533-0.533-0.533h-17.067c-0.295 0-0.533 0.239-0.533 0.533s0.239 0.533 0.533 0.533z"></path><path d="M3.2 13.867h7.467c0.295 0 0.533-0.239 0.533-0.533s-0.239-0.533-0.533-0.533h-7.467c-0.295 0-0.533 0.239-0.533 0.533s0.239 0.533 0.533 0.533z"></path><path d="M3.2 18.133h7.467c0.295 0 0.533-0.239 0.533-0.533s-0.239-0.533-0.533-0.533h-7.467c-0.295 0-0.533 0.239-0.533 0.533s0.239 0.533 0.533 0.533z"></path><path d="M3.2 22.4h7.467c0.295 0 0.533-0.239 0.533-0.533s-0.239-0.533-0.533-0.533h-7.467c-0.295 0-0.533 0.239-0.533 0.533s0.239 0.533 0.533 0.533z"></path><path d="M3.2 26.667h7.467c0.295 0 0.533-0.239 0.533-0.533s-0.239-0.533-0.533-0.533h-7.467c-0.295 0-0.533 0.239-0.533 0.533s0.239 0.533 0.533 0.533z"></path><path d="M31.68 15.536l-6.080-2.626v-11.31c0-0.884-0.716-1.6-1.6-1.6h-20.267c-0.884 0-1.6 0.716-1.6 1.6v0.533h-0.533c-0.884 0-1.6 0.716-1.6 1.6v26.667c0 0.884 0.716 1.6 1.6 1.6h20.267c0.431-0.001 0.844-0.177 1.144-0.487l0.437 0.311c0.331 0.235 0.773 0.235 1.104 0l5.16-3.673c1.43-1.015 2.283-2.659 2.288-4.413v-7.712c0-0.212-0.125-0.405-0.32-0.49zM3.2 1.6c0-0.295 0.239-0.533 0.533-0.533h20.267c0.295 0 0.533 0.239 0.533 0.533v10.85l-0.32-0.139c-0.135-0.058-0.288-0.058-0.422 0l-0.32 0.139v-3.383c0-0.012-0.006-0.023-0.007-0.035-0.003-0.045-0.011-0.089-0.026-0.131-0.004-0.012-0.003-0.025-0.008-0.037s-0.009-0.012-0.011-0.018c-0.026-0.058-0.062-0.111-0.107-0.156l-6.4-6.4c-0.045-0.045-0.098-0.081-0.156-0.107-0.007-0.003-0.012-0.009-0.018-0.011s-0.024-0.004-0.036-0.008c-0.043-0.014-0.088-0.023-0.133-0.026-0.013 0.002-0.024-0.004-0.036-0.004h-13.333v-0.533zM17.067 3.954l4.579 4.579h-4.046c-0.295 0-0.533-0.239-0.533-0.533v-4.046zM21.867 30.933h-20.267c-0.295 0-0.533-0.239-0.533-0.533v-26.667c0-0.295 0.239-0.533 0.533-0.533h14.4v4.8c0 0.884 0.716 1.6 1.6 1.6h4.8v3.31l-1.717 0.743c0.074-0.091 0.115-0.203 0.117-0.32 0-0.295-0.239-0.533-0.533-0.533h-7.467c-0.295 0-0.533 0.239-0.533 0.533s0.239 0.533 0.533 0.533h7.386l-2.469 1.067h-14.517c-0.295 0-0.533 0.239-0.533 0.533s0.239 0.533 0.533 0.533h12.804c0 0.008-0.004 0.016-0.004 0.026v1.041h-3.2c-0.295 0-0.533 0.239-0.533 0.533s0.239 0.533 0.533 0.533h3.2v1.067h-12.8c-0.295 0-0.533 0.239-0.533 0.533s0.239 0.533 0.533 0.533h12.8v1.067h-3.2c-0.295 0-0.533 0.239-0.533 0.533s0.239 0.533 0.533 0.533h3.2v1.067h-12.8c-0.295 0-0.533 0.239-0.533 0.533s0.239 0.533 0.533 0.533h12.867c0.053 0.364 0.143 0.721 0.27 1.067h-3.537c-0.295 0-0.533 0.239-0.533 0.533s0.239 0.533 0.533 0.533h4.075c0.252 0.392 0.553 0.751 0.896 1.067h-14.572c-0.295 0-0.533 0.239-0.533 0.533s0.239 0.533 0.533 0.533h16l2.906 2.068c-0.073 0.041-0.155 0.063-0.239 0.065zM30.933 23.738c-0.005 1.409-0.69 2.729-1.839 3.543l-5.094 3.626-5.094-3.627c-1.149-0.815-1.834-2.134-1.839-3.543v-7.36l6.933-2.997 6.933 2.995v7.362z"></path><path d="M23.787 14.634l-5.333 2.304c-0.195 0.085-0.32 0.277-0.32 0.49v6.31c0.005 1.064 0.523 2.060 1.391 2.674l4.166 2.966c0.185 0.132 0.434 0.132 0.619 0l4.166-2.966c0.868-0.615 1.386-1.611 1.391-2.674v-6.31c0-0.212-0.125-0.405-0.32-0.49l-5.333-2.304c-0.136-0.059-0.291-0.059-0.427 0zM28.8 17.781v5.957c-0.004 0.72-0.355 1.394-0.944 1.809l-3.857 2.742-3.857-2.746c-0.587-0.414-0.939-1.087-0.944-1.805v-5.96l4.8-2.073 4.8 2.076z"></path><path d="M21.12 22.506c-0.152-0.114-0.354-0.139-0.53-0.064s-0.297 0.238-0.32 0.427 0.057 0.376 0.21 0.49l2.133 1.6c0.23 0.173 0.557 0.132 0.736-0.093l4.267-5.333c0.184-0.23 0.147-0.566-0.083-0.75s-0.566-0.147-0.75 0.083l-3.943 4.93-1.72-1.29z"></path></svg> 