<?xml version="1.0" encoding="UTF-8"?> <!-- Generated by IcoMoon.io --> <svg xmlns="http://www.w3.org/2000/svg" width="32" height="32" viewBox="0 0 32 32"><title>serv-3</title><path d="M12 2.5h1v1h-1v-1z"></path><path d="M7 2.5h4v1h-4v-1z"></path><path d="M7.5 28.5h5v1h-5v-1z"></path><path d="M15.5 28.5h1v1h-1v-1z"></path><path d="M3.5 28.5h1v1h-1v-1z"></path><path d="M3.5 25.5h13c0.552 0 1-0.448 1-1v-17c0-0.552-0.448-1-1-1h-13c-0.551 0-1 0.449-1 1v17c0 0.552 0.449 1 1 1zM3.5 7.5h13l0 17h-13v-17z"></path><path d="M4.5 11.5h3v-3h-3v3zM5.5 9.5h1v1h-1v-1z"></path><path d="M8.5 11.5h3v-3h-3v3zM9.5 9.5h1v1h-1v-1z"></path><path d="M12.5 11.5h3v-3h-3v3zM13.5 9.5h1v1h-1v-1z"></path><path d="M4.5 15.5h3v-3h-3v3zM5.5 13.5h1v1h-1v-1z"></path><path d="M8.5 15.5h3v-3h-3v3zM9.5 13.5h1v1h-1v-1z"></path><path d="M12.5 15.5h3v-3h-3v3zM13.5 13.5h1v1h-1v-1z"></path><path d="M4.5 19.5h3v-3h-3v3zM5.5 17.5h1v1h-1v-1z"></path><path d="M8.5 19.5h3v-3h-3v3zM9.5 17.5h1v1h-1v-1z"></path><path d="M4.5 23.5h3v-3h-3v3zM5.5 21.5h1v1h-1v-1z"></path><path d="M8.5 23.5h3v-3h-3v3zM9.5 21.5h1v1h-1v-1z"></path><path d="M27.5 15h1v1h-1v-1z"></path><path d="M14.5 22.5h1v1h-1v-1z"></path><path d="M14.5 20.5h1v1h-1v-1z"></path><path d="M14.5 18.5h1v1h-1v-1z"></path><path d="M30.5 2.5h1v1h-1v-1z"></path><path d="M28.5 2.5h1v1h-1v-1z"></path><path d="M26.5 2.5h1v1h-1v-1z"></path><path d="M26.736 0.5c-0.953 0-1.81 0.53-2.236 1.382l-2.314 4.628c-0.062-0.002-0.123-0.010-0.186-0.010-0.84 0-1.677 0.119-2.5 0.347v-3.847c0-1.379-1.122-2.5-2.5-2.5h-14c-1.379 0-2.5 1.121-2.5 2.5v26c0 1.378 1.121 2.5 2.5 2.5h14c1.378 0 2.5-1.122 2.5-2.5v-3.847c0.823 0.228 1.661 0.347 2.5 0.347 0.063 0 0.124-0.008 0.186-0.010l2.314 4.628c0.427 0.852 1.283 1.382 2.236 1.382h4.764v-1h-4.764c-0.572 0-1.086-0.318-1.341-0.829l-2.132-4.265c4.643-0.621 8.238-4.597 8.238-9.406s-3.596-8.785-8.238-9.406l2.132-4.265c0.256-0.511 0.769-0.829 1.341-0.829h4.764v-1h-4.764zM18.5 26.5h-17v-21h17v21zM3 1.5h14c0.827 0 1.5 0.673 1.5 1.5v1.5h-17v-1.5c0-0.827 0.673-1.5 1.5-1.5zM17 30.5h-14c-0.827 0-1.5-0.673-1.5-1.5v-1.5h17v1.5c0 0.827-0.673 1.5-1.5 1.5zM19.5 18h2.5c0.276 0 0.5 0.224 0.5 0.5 0 0.827 0.673 1.5 1.5 1.5h1.5c0.275 0 0.5 0.224 0.5 0.5s-0.224 0.5-0.5 0.5h-3.5c-0.827 0-1.5 0.673-1.5 1.5v1.86c-0.336-0.061-0.669-0.148-1-0.251v-6.108zM30.436 15h-0.936v1h1c0 4.687-3.813 8.5-8.5 8.5-0.167 0-0.334-0.011-0.5-0.022v-1.978c0-0.276 0.224-0.5 0.5-0.5h3.5c0.827 0 1.5-0.673 1.5-1.5s-0.673-1.5-1.5-1.5h-1.5c-0.276 0-0.5-0.224-0.5-0.5 0-0.827-0.673-1.5-1.5-1.5h-2.5v-9.108c0.821-0.256 1.66-0.392 2.5-0.392 1.785 0 3.442 0.556 4.811 1.5h-3.311c-0.827 0-1.5 0.673-1.5 1.5s0.673 1.5 1.5 1.5h2.5c0.276 0 0.5 0.225 0.5 0.5s-0.224 0.5-0.5 0.5h-4c-0.827 0-1.5 0.673-1.5 1.5s0.673 1.5 1.5 1.5h4.5v-1h-4.5c-0.276 0-0.5-0.225-0.5-0.5s0.224-0.5 0.5-0.5h4c0.827 0 1.5-0.673 1.5-1.5s-0.673-1.5-1.5-1.5h-2.5c-0.276 0-0.5-0.225-0.5-0.5s0.224-0.5 0.5-0.5h4.514c1.312 1.316 2.192 3.060 2.422 5z"></path><path d="M26.5 4.5h5v1h-5v-1z"></path><path d="M30.5 28.5h1v1h-1v-1z"></path><path d="M28.5 28.5h1v1h-1v-1z"></path><path d="M26.5 28.5h1v1h-1v-1z"></path><path d="M26.5 26.5h5v1h-5v-1z"></path></svg> 