<?xml version="1.0" encoding="UTF-8"?> <!-- Generated by IcoMoon.io --> <svg xmlns="http://www.w3.org/2000/svg" width="32" height="32" viewBox="0 0 32 32"><title>serv-1</title><path d="M29.2 21.653l-3.909-0.902v-1.016c0.397-0.319 0.732-0.711 0.99-1.153h0.558c1.423 0 2.581-1.158 2.581-2.581 0-0.576-0.196-1.103-0.516-1.532v-2.080c0-3.415-2.778-6.194-6.194-6.194s-6.194 2.778-6.194 6.194v2.080c-0.32 0.43-0.516 0.957-0.516 1.532 0 1.423 1.158 2.581 2.581 2.581h0.558c0.257 0.443 0.592 0.835 0.99 1.153v1.016l-3.909 0.902c-0.255 0.059-0.501 0.151-0.736 0.263v-2.819c0-0.854-0.695-1.548-1.548-1.548h-12.387c-0.854 0-1.548 0.695-1.548 1.548v9.29c0 0.854 0.695 1.548 1.548 1.548h4.129v1.032h-1.032v1.032h27.355v-6.827c0-1.692-1.151-3.14-2.8-3.52zM20.528 21.718l1.258 0.944-1.272 0.763-0.274-1.641 0.288-0.066zM22.152 25.806h1.115l0.43 5.161h-1.975l0.43-5.161zM23.37 24.774h-1.321l-0.296-0.889 0.957-0.574 0.956 0.574-0.296 0.889zM23.634 22.662l1.258-0.944 0.364 0.084-0.327 1.636-1.295-0.777zM26.839 17.548h-0.136c0.086-0.331 0.136-0.675 0.136-1.032v-2.064c0.854 0 1.548 0.695 1.548 1.548s-0.695 1.548-1.548 1.548zM22.71 7.226c2.846 0 5.161 2.315 5.161 5.161v1.251c-0.317-0.139-0.665-0.219-1.032-0.219v-1.032h-1.032v0.288c-0.358 0.312-0.787 0.534-1.246 0.649 0.020-0.020 0.042-0.037 0.062-0.056l-0.73-0.73c-0.385 0.385-0.873 0.654-1.397 0.786 0.020-0.020 0.042-0.037 0.063-0.056l-0.73-0.73c-0.56 0.56-1.335 0.881-2.127 0.881h-0.089v-1.032h-1.032v1.032c-0.367 0-0.716 0.079-1.032 0.219v-1.251c0-2.846 2.315-5.161 5.161-5.161zM18.581 17.548c-0.854 0-1.548-0.695-1.548-1.548s0.695-1.548 1.548-1.548v2.064c0 0.357 0.050 0.701 0.136 1.032h-0.136zM19.613 16.516v-2.064h0.089c0.501 0 0.996-0.099 1.46-0.279v0.279h0.605c0.501 0 0.996-0.099 1.46-0.279v0.279h0.605c0.693 0 1.375-0.186 1.976-0.522v2.586c0 0.362-0.066 0.709-0.181 1.032h-2.916v1.032h2.302c-0.567 0.632-1.387 1.032-2.302 1.032-1.708 0-3.097-1.389-3.097-3.097zM22.71 20.645c0.548 0 1.070-0.109 1.548-0.304v0.562l-1.548 1.161-1.548-1.161v-0.562c0.478 0.195 1.001 0.304 1.548 0.304zM16.452 22.658l2.781-0.641 0.512 3.073 1.102-0.661 0.308 0.924-0.468 5.614h-2.622v-5.677h-1.032v5.677h-2.581v-1.127c0.599-0.214 1.032-0.782 1.032-1.453v-5.273c0.287-0.216 0.616-0.374 0.968-0.456zM9.806 29.935h3.613v1.032h-3.613v-1.032zM1.548 28.903c-0.285 0-0.516-0.231-0.516-0.516v-9.29c0-0.285 0.231-0.516 0.516-0.516h12.387c0.285 0 0.516 0.231 0.516 0.516v9.29c0 0.285-0.231 0.516-0.516 0.516h-4.129v-1.032c0-1.139-0.926-2.064-2.064-2.064s-2.065 0.926-2.065 2.064v1.032h-4.129zM6.71 27.871c0-0.569 0.463-1.032 1.032-1.032s1.032 0.463 1.032 1.032v3.097h-2.064v-3.097zM30.968 30.968h-2.581v-5.677h-1.032v5.677h-2.622l-0.468-5.614 0.308-0.924 1.080 0.648 0.608-3.043 2.707 0.624c1.177 0.272 2 1.305 2 2.514v5.795z"></path><path d="M12.903 10.55c0-0.667-0.425-1.258-1.059-1.469l-2.038-0.679v-0.673c0.623-0.472 1.032-1.212 1.032-2.051v-1.032c0-1.423-1.158-2.581-2.581-2.581s-2.581 1.158-2.581 2.581v1.032c0 0.84 0.409 1.58 1.032 2.051v0.673l-2.038 0.679c-0.633 0.211-1.058 0.801-1.058 1.469v2.869h9.29v-2.869zM6.71 4.645c0-0.854 0.695-1.548 1.548-1.548s1.548 0.695 1.548 1.548v1.032c0 0.854-0.695 1.548-1.548 1.548s-1.548-0.695-1.548-1.548v-1.032zM11.871 12.387h-7.226v-1.837c0-0.223 0.141-0.419 0.353-0.49l2.744-0.914v-0.941c0.167 0.034 0.34 0.052 0.516 0.052s0.349-0.018 0.516-0.052v0.941l2.744 0.914c0.212 0.071 0.353 0.268 0.353 0.49v1.837z"></path><path d="M8.258 16.516c4.553 0 8.258-3.705 8.258-8.258s-3.705-8.258-8.258-8.258c-4.553 0-8.258 3.705-8.258 8.258s3.705 8.258 8.258 8.258zM8.258 1.032c3.985 0 7.226 3.241 7.226 7.226s-3.241 7.226-7.226 7.226c-3.985 0-7.226-3.241-7.226-7.226s3.241-7.226 7.226-7.226z"></path><path d="M19.097 3.097h1.032v1.032h-1.032v-1.032z"></path><path d="M22.194 3.097h1.032v1.032h-1.032v-1.032z"></path><path d="M25.29 3.097h1.032v1.032h-1.032v-1.032z"></path></svg> 