<?xml version="1.0" encoding="UTF-8"?> <!-- Generated by IcoMoon.io --> <svg xmlns="http://www.w3.org/2000/svg" width="42" height="32" viewBox="0 0 42 32"><title>serv-6</title><path d="M40.567 25.913c0.333 0 0.603-0.27 0.603-0.603v-18.048c0-0.333-0.27-0.603-0.603-0.603s-0.603 0.27-0.603 0.603v0.686h-0.526l-12.757-7.29c-0.579-0.331-1.299-0.331-1.878 0l-5.177 2.958-2.807-1.203c-0.474-0.203-1.017-0.203-1.491 0l-12.914 5.535h-1.207v-0.686c0-0.333-0.27-0.603-0.603-0.603s-0.603 0.27-0.603 0.603v18.048c0 0.333 0.27 0.603 0.603 0.603h0.971l1.046 1.532c-0.425 0.454-0.686 1.063-0.686 1.732 0 0.488 0.139 0.944 0.378 1.331h-1.709c-0.333 0-0.603 0.27-0.603 0.603s0.27 0.603 0.603 0.603h39.964c0.333 0 0.603-0.27 0.603-0.603s-0.27-0.603-0.603-0.603h-1.568c0.24-0.387 0.378-0.843 0.378-1.331 0-0.669-0.261-1.278-0.686-1.732l1.046-1.532h0.83zM15.803 3.522c0.172-0.074 0.369-0.074 0.541 0l4.648 1.992c0.306 0.131 0.661-0.011 0.792-0.317s-0.011-0.661-0.317-0.792l-0.452-0.194 4.386-2.506c0.21-0.12 0.471-0.12 0.681 0l10.925 6.243h-7.274l-5.898-2.528c-0.306-0.131-0.661 0.011-0.792 0.317s0.011 0.661 0.317 0.792l3.312 1.419h-21.196l10.328-4.426zM1.206 9.154h38.757v1.372h-38.757v-1.372zM33.303 11.733v12.975h-2.124v-12.975h2.124zM29.973 11.733v12.975h-2.124v-12.975h2.124zM26.642 11.733v12.975h-2.124v-12.975h2.124zM23.312 11.733v12.975h-2.124v-12.975h2.124zM19.982 11.733v12.975h-2.124v-12.975h2.124zM16.651 11.733v12.975h-2.124v-12.975h2.124zM13.321 11.733v12.975h-2.124v-12.975h2.124zM9.991 11.733v12.975h-2.124v-12.975h2.124zM1.206 24.707v-12.975h2.124v9.71c0 0.333 0.27 0.603 0.603 0.603s0.603-0.27 0.603-0.603v-9.71h2.124v12.975h-2.124v-0.686c0-0.333-0.27-0.603-0.603-0.603s-0.603 0.27-0.603 0.603v0.686h-2.124zM4.471 30.508c-0.734 0-1.331-0.597-1.331-1.331s0.597-1.331 1.331-1.331 1.331 0.597 1.331 1.331c0 0.734-0.597 1.331-1.331 1.331zM6.629 30.508c0.24-0.387 0.378-0.843 0.378-1.331 0-0.014-0.001-0.028-0.001-0.042h1.374c-0 0.014-0.001 0.028-0.001 0.042 0 0.488 0.139 0.944 0.378 1.331h-2.128zM10.916 30.508c-0.734 0-1.331-0.597-1.331-1.331s0.597-1.331 1.331-1.331c0.734 0 1.331 0.597 1.331 1.331s-0.597 1.331-1.331 1.331zM13.075 30.508c0.239-0.387 0.378-0.843 0.378-1.331 0-0.014-0.001-0.028-0.001-0.042h14.407c-0 0.014-0.001 0.028-0.001 0.042 0 0.488 0.139 0.944 0.378 1.331h-15.161zM30.395 30.508c-0.734 0-1.331-0.597-1.331-1.331s0.597-1.331 1.331-1.331c0.734 0 1.331 0.597 1.331 1.331s-0.597 1.331-1.331 1.331zM32.553 30.508c0.24-0.387 0.378-0.843 0.378-1.331 0-0.014-0.001-0.028-0.001-0.042h1.374c-0 0.014-0.001 0.028-0.001 0.042 0 0.488 0.139 0.944 0.378 1.331h-2.129zM36.84 30.508c-0.734 0-1.331-0.597-1.331-1.331s0.597-1.331 1.331-1.331c0.734 0 1.331 0.597 1.331 1.331s-0.597 1.331-1.331 1.331zM37.682 26.785c-0.264-0.093-0.547-0.144-0.841-0.144-0.945 0-1.771 0.52-2.207 1.289h-2.031c-0.436-0.769-1.262-1.289-2.207-1.289s-1.771 0.52-2.207 1.289h-15.063c-0.436-0.769-1.262-1.289-2.207-1.289s-1.771 0.52-2.207 1.289h-2.031c-0.436-0.769-1.262-1.289-2.208-1.289-0.295 0-0.578 0.051-0.841 0.144l-0.595-0.872h35.242l-0.595 0.872zM37.839 24.707v-9.71c0-0.333-0.27-0.603-0.603-0.603s-0.603 0.27-0.603 0.603v9.71h-2.124v-12.975h2.124v0.686c0 0.333 0.27 0.603 0.603 0.603s0.603-0.27 0.603-0.603v-0.686h2.124v12.975h-2.124z"></path></svg> 