<?xml version="1.0" encoding="UTF-8"?> <!-- Generated by IcoMoon.io --> <svg xmlns="http://www.w3.org/2000/svg" width="32" height="32" viewBox="0 0 32 32"><title>serv-4</title><path d="M14.523 22.477v9.008h17.038v-9.008h-17.038zM30.583 30.507h-15.081v-7.051h15.081v7.051h-0z"></path><path d="M19.484 24.5h-0.978v5.087h0.978v-5.087z"></path><path d="M17.527 24.5h-0.978v5.087h0.978v-5.087z"></path><path d="M21.505 24.5h-0.978v5.087h0.978v-5.087z"></path><path d="M23.527 24.5h-0.978v5.087h0.978v-5.087z"></path><path d="M25.549 24.5h-0.978v5.087h0.978v-5.087z"></path><path d="M27.506 24.5h-0.978v5.087h0.978v-5.087z"></path><path d="M29.528 24.5h-0.978v5.087h0.978v-5.087z"></path><path d="M30.571 21.043v-0.587h-0.978v0.587h-13.175v-0.587h-0.978v0.587h-0.913v0.978h17.023v-0.978h-0.978z"></path><path d="M24.222 13.477h-0.695v-1.044h-0.978v1.044h-0.685l-6.425 5.242v1.215h0.978v-0.75l5.795-4.728h1.657l5.723 4.727v0.752h0.978v-1.213l-6.349-5.244z"></path><path d="M5.477 6.418c-1.1 0-1.995 0.895-1.995 1.995s0.895 1.995 1.995 1.995c1.1 0 1.995-0.895 1.995-1.995s-0.895-1.995-1.995-1.995zM5.477 9.429c-0.56 0-1.016-0.456-1.016-1.016s0.456-1.016 1.016-1.016c0.561 0 1.016 0.456 1.016 1.016s-0.456 1.016-1.016 1.016z"></path><path d="M23.527 4.933h-0.978v6.979h0.978v-6.979z"></path><path d="M3.483 11.437v5.495h3.989v-5.495h-3.989zM6.494 15.953h-2.033v-3.538h2.033v3.538z"></path><path d="M24.021 0.982c-0.282-0.773-1.14-1.174-1.914-0.892l-0.009 0.003-14.232 5.799c-0.644-0.632-1.496-0.98-2.406-0.98-0.934 0-1.807 0.365-2.457 1.029-0.645 0.658-1 1.536-1 2.472v13.087h1.37v0.391h-1.155l-1.78 2.421v7.688h0.978v-6.979h2.478v-0.978h-2.045l0.863-1.174h5.524l0.845 1.174h-2.121v0.978h2.544v6.979h0.978v-7.685l-1.744-2.424h-1.322v-0.391h1.5v-3.978h4.044v-5.799l-2.766-2.745h-1.278v-0.29l13.631-5.554v1.279h0.978v-1.734c0.503-0.386 0.722-1.069 0.494-1.695zM6.439 21.89h-2.087v-0.391h2.087v0.391h0zM7.939 20.521h-4.957v-12.108c0-1.414 1.089-2.522 2.478-2.522s2.478 1.108 2.478 2.522v12.108h-0zM10.483 10.64l1.5 1.489v1.348h-1.5v-2.837zM9.505 9.955v4.5h2.478v2.087h-3.065v-6.587h0.587zM22.795 1.976l-0.009 0.003-13.947 5.683c-0.072-0.339-0.192-0.663-0.358-0.964l13.969-5.692c0.265-0.092 0.556 0.046 0.652 0.31 0.097 0.267-0.041 0.563-0.308 0.659z"></path><path d="M6.57 17.521h-2.087v0.978h2.087v-0.978z"></path><path d="M6.57 18.956h-2.087v0.978h2.087v-0.978z"></path><path d="M6.57 23.521h-2.087v0.978h2.087v-0.978z"></path><path d="M6.57 25.087h-2.087v0.978h2.087v-0.978z"></path><path d="M6.57 26.456h-2.087v0.978h2.087v-0.978z"></path><path d="M6.57 28.022h-2.087v0.978h2.087v-0.978z"></path><path d="M6.57 29.587h-2.087v0.978h2.087v-0.978z"></path><path d="M6.57 31.022h-2.087v0.978h2.087v-0.978z"></path><path d="M6.048 7.933h-1.044v0.978h1.044v-0.978z"></path></svg> 