<?xml version="1.0" encoding="UTF-8"?> <!-- Generated by IcoMoon.io --> <svg xmlns="http://www.w3.org/2000/svg" width="50" height="32" viewBox="0 0 50 32"><title>serv-5</title><path d="M38.4 24c1.323 0 2.4 1.077 2.4 2.4s-1.077 2.4-2.4 2.4c-1.323 0-2.4-1.077-2.4-2.4s1.077-2.4 2.4-2.4zM38.4 27.2c0.441 0 0.8-0.359 0.8-0.8s-0.359-0.8-0.8-0.8c-0.441 0-0.8 0.359-0.8 0.8s0.359 0.8 0.8 0.8z"></path><path d="M18.4 24c1.323 0 2.4 1.077 2.4 2.4s-1.077 2.4-2.4 2.4c-1.323 0-2.4-1.077-2.4-2.4s1.077-2.4 2.4-2.4zM18.4 27.2c0.441 0 0.8-0.359 0.8-0.8s-0.359-0.8-0.8-0.8c-0.441 0-0.8 0.359-0.8 0.8s0.359 0.8 0.8 0.8z"></path><path d="M8.8 24c1.323 0 2.4 1.077 2.4 2.4s-1.077 2.4-2.4 2.4c-1.323 0-2.4-1.077-2.4-2.4s1.077-2.4 2.4-2.4zM8.8 27.2c0.441 0 0.8-0.359 0.8-0.8s-0.359-0.8-0.8-0.8c-0.441 0-0.8 0.359-0.8 0.8s0.359 0.8 0.8 0.8z"></path><path d="M0 19.2v-19.2h32v19.2h-3.2v1.6h4.8v-12c0-1.323 1.077-2.4 2.4-2.4h6.4c3.97 0 7.2 3.23 7.2 7.2v9.6c0 2.205-1.795 4-4 4h-1.664c-0.39 2.709-2.721 4.8-5.536 4.8s-5.146-2.091-5.536-4.8h-8.928c-0.39 2.709-2.721 4.8-5.536 4.8-2.038 0-3.82-1.098-4.8-2.73-0.98 1.632-2.762 2.73-4.8 2.73-2.815 0-5.146-2.091-5.536-4.8h-0.864c-1.323 0-2.4-1.077-2.4-2.4v-1.6c0-1.323 1.077-2.4 2.4-2.4h0.8v-1.6h-3.2zM30.4 1.6h-28.8v16h28.8v-16zM34.489 22.4h-12.177c0.859 0.841 1.445 1.955 1.625 3.2h8.927c0.179-1.245 0.765-2.359 1.625-3.2zM36 8c-0.441 0-0.8 0.359-0.8 0.8v12h12.8v-3.2h-7.2c-2.205 0-4-1.795-4-4v-4h9.512c-1.011-0.988-2.391-1.6-3.912-1.6h-6.4zM47.452 11.2h-9.052v2.4c0 1.323 1.077 2.4 2.4 2.4h7.2v-2.4c0-0.86-0.2-1.671-0.548-2.4zM48 23.2v-0.8h-5.689c0.859 0.841 1.445 1.955 1.625 3.2h1.664c1.323 0 2.4-1.077 2.4-2.4zM38.4 30.4c2.205 0 4-1.795 4-4s-1.795-4-4-4c-2.205 0-4 1.795-4 4s1.795 4 4 4zM18.4 30.4c2.205 0 4-1.795 4-4s-1.795-4-4-4c-2.205 0-4 1.795-4 4s1.795 4 4 4zM14.489 22.4h-1.777c0.343 0.336 0.64 0.717 0.889 1.131 0.248-0.414 0.545-0.795 0.888-1.131zM8.8 30.4c2.205 0 4-1.795 4-4s-1.795-4-4-4c-2.205 0-4 1.795-4 4s1.795 4 4 4zM1.6 23.2v1.6c0 0.441 0.359 0.8 0.8 0.8h0.864c0.179-1.245 0.765-2.359 1.625-3.2h-2.489c-0.441 0-0.8 0.359-0.8 0.8zM4.8 20.8h22.4v-1.6h-22.4v1.6z"></path><path d="M28.8 14.4h-1.6v1.6h1.6v-1.6z"></path><path d="M28.8 6.4h-1.6v6.4h1.6v-6.4z"></path><path d="M28.8 3.2h-1.6v1.6h1.6v-1.6z"></path><path d="M24 14.4h-1.6v1.6h1.6v-1.6z"></path><path d="M24 6.4h-1.6v6.4h1.6v-6.4z"></path><path d="M24 3.2h-1.6v1.6h1.6v-1.6z"></path><path d="M19.2 14.4h-1.6v1.6h1.6v-1.6z"></path><path d="M19.2 6.4h-1.6v6.4h1.6v-6.4z"></path><path d="M19.2 3.2h-1.6v1.6h1.6v-1.6z"></path><path d="M14.4 14.4h-1.6v1.6h1.6v-1.6z"></path><path d="M14.4 6.4h-1.6v6.4h1.6v-6.4z"></path><path d="M14.4 3.2h-1.6v1.6h1.6v-1.6z"></path><path d="M9.6 14.4h-1.6v1.6h1.6v-1.6z"></path><path d="M9.6 6.4h-1.6v6.4h1.6v-6.4z"></path><path d="M9.6 3.2h-1.6v1.6h1.6v-1.6z"></path><path d="M4.8 14.4h-1.6v1.6h1.6v-1.6z"></path><path d="M4.8 6.4h-1.6v6.4h1.6v-6.4z"></path><path d="M4.8 3.2h-1.6v1.6h1.6v-1.6z"></path></svg> 