<svg width="28" height="28" viewBox="0 0 28 28" fill="none" xmlns="http://www.w3.org/2000/svg"><path d="M19.9683 27.9996c-1.0225 0-2.2575-.2562-3.6149-.7687-2.9783-1.1226-6.2179-3.3413-9.1228-6.2461-2.9056-2.9049-5.1235-6.1453-6.2469-9.1229-1.0217-2.7072-1.0242-4.93-.0083-5.946.1463-.1471.296-.3042.4497-.4654.9292-.9754 1.9964-2.0831 3.3678-2.0244.9589.0396 1.8872.6348 2.8386 1.817 2.8073 3.4933 1.5426 4.7382.0778 6.1815l-.2588.2563c-.2397.2397-.6935 1.3499 3.5215 5.5641 1.3755 1.3756 2.5485 2.3824 3.486 2.9916.591.3844 1.645.9639 2.0781.5307l.2604-.2628c1.4425-1.4632 2.6874-2.7246 6.1783.0818 1.183.9498 1.7765 1.8781 1.817 2.8379.057 1.3896-1.0498 2.4402-2.0261 3.3685-.1604.153-.3183.3018-.4646.4481-.5075.5051-1.3143.7588-2.3328.7588zM4.6953 4.2502c-.9878 0-1.8806.939-2.67 1.7699-.1587.1653-.3133.3281-.4646.4794-.7572.7564-.6795 2.747.1967 5.0706 1.083 2.8701 3.2339 6.0064 6.0577 8.831 2.8238 2.823 5.9592 4.9748 8.8302 6.0568 2.3253.8779 4.3142.9523 5.0714.196.1513-.1513.3133-.3051.4794-.4638.849-.8068 1.8112-1.7202 1.7691-2.7345-.0281-.6977-.5357-1.4466-1.5087-2.2278-2.9097-2.3386-3.7223-1.5136-5.0714-.1455l-.2645.267c-.644.6456-1.6922.5018-3.1132-.4216-.9853-.6406-2.2038-1.6847-3.6198-3.1007-3.4975-3.4975-4.6168-5.6369-3.5215-6.7338l.2629-.2604c1.3705-1.3491 2.198-2.1634-.1414-5.074-.782-.9713-1.531-1.4788-2.2286-1.5077-.0215-.0009-.043-.0009-.0637-.0009z" fill="#94B91B"/><path d="M22.7145 21.3199a.4127.4127 0 0 1-.334-.1695.415.415 0 0 1 .0901-.5778 10.956 10.956 0 0 0 2.2625-2.2179c1.4549-1.912 2.2237-4.1968 2.2237-6.6065.0008-6.022-4.8979-10.9216-10.92-10.9216-1.8244 0-3.6306.4596-5.2219 1.3268a.4104.4104 0 0 1-.5604-.1645.4125.4125 0 0 1 .1645-.5605C12.1318.4944 14.0744 0 16.0368 0c6.4776 0 11.7474 5.2698 11.7474 11.7482 0 2.5924-.8274 5.0492-2.3939 7.1075a11.7957 11.7957 0 0 1-2.432 2.3857.4139.4139 0 0 1-.2438.0785z" fill="#94B91B"/><path d="M13.7371 7.2795c.4927-.1488.9655-.2414 1.4756-.2414 1.3193 0 2.1261.6588 2.1261 1.7822 0 .6217-.3439 1.0953-1.0771 1.5781l-1.4756.9928c-.4554.3067-.6596.7894-.6596 1.3094h3.0164c.0653 0 .1025.0372.1025.1017v.715c0 .0645-.0372.1017-.1025.1017h-3.9638c-.0644 0-.1016-.0372-.1016-.1017v-.4456c0-1.1325.3711-1.9492 1.206-2.4972l1.4673-.9747c.3712-.2513.5373-.4926.5373-.7795 0-.52-.4083-.8539-1.0771-.8539a3.65 3.65 0 0 0-1.1688.1943l-.539.1769c-.0546.0182-.1017-.01-.1207-.0653l-.2315-.696c-.0281-.0555 0-.1026.0645-.1208l.5216-.176zM23.0691 11.8561c0 .0653-.0372.1025-.1017.1025h-.5753v1.5599c0 .0644-.0372.1016-.1025.1016h-.835c-.0653 0-.1025-.0372-.1025-.1016v-1.5599h-3.1106c-.0645 0-.1017-.0372-.1017-.1025v-.7795c0-.0554.0099-.0926.0471-.1298.2315-.2687.4357-.52.6589-.8258l1.7177-2.2096c.1761-.2323.315-.4555.4729-.715.0372-.0464.0744-.0646.1297-.0646h1.1226c.0653 0 .1025.0372.1025.1017v3.8059h.5754c.0645 0 .1017.0372.1017.1025v.7142h.0008zm-1.717-2.4229c0-.2968.0182-.5943.0554-.9101.0182-.1116-.0644-.1397-.1388-.0372l-1.5045 1.912c-.1207.167-.2968.3803-.4266.5009-.0653.0744-.0281.1389.0463.1389h1.9682V9.4332z" fill="#94B91B"/></svg>