<svg width="45" height="45" viewBox="0 0 45 45" fill="none" xmlns="http://www.w3.org/2000/svg"><path d="M6.1635 39.8227l-.0081-.0061a.879.879 0 0 0-1.069 1.3955l.008.0062a.8752.8752 0 0 0 .534.1812.879.879 0 0 0 .5352-1.5768zM6.1635 32.6157l-.0081-.0061a.879.879 0 0 0-1.069 1.3955l.008.0061a.8747.8747 0 0 0 .534.1813.8774.8774 0 0 0 .6982-.3446.8788.8788 0 0 0-.1631-1.2322zM6.1635 25.4087l-.0081-.0062a.879.879 0 0 0-1.069 1.3955l.008.0062a.8746.8746 0 0 0 .534.1812.8773.8773 0 0 0 .6982-.3445.8788.8788 0 0 0-.1631-1.2322zM39.9059 39.82l-.0082-.0062a.8788.8788 0 0 0-1.2313.1697.8788.8788 0 0 0 .1696 1.2313l.0082.0062a.8751.8751 0 0 0 .5301.1785.879.879 0 0 0 .5316-1.5795zM39.9059 32.6131l-.0082-.0062a.8788.8788 0 0 0-1.2313.1697c-.2932.3867-.2172.938.1696 1.2312l.0082.0062a.8751.8751 0 0 0 .5301.1785.8788.8788 0 0 0 .5316-1.5794zM39.9058 25.406l-.0081-.0061a.879.879 0 0 0-1.0618 1.4009l.0082.0061a.8748.8748 0 0 0 .5302.1785.879.879 0 0 0 .5315-1.5794zM32.4731 28.8281h-.0114a.8789.8789 0 0 0 0 1.7578h.0114a.879.879 0 0 0 0-1.7578zM12.5383 36.0352h-.0114a.8789.8789 0 0 0 0 1.7578h.0114a.879.879 0 0 0 0-1.7578zM7.1007 16.2766a.8859.8859 0 0 0-.6214-.2575.8859.8859 0 0 0-.6214.2575.8866.8866 0 0 0-.2575.6223c0 .2312.094.457.2575.6205a.8802.8802 0 0 0 .6214.2575.8816.8816 0 0 0 .6214-.2575.8838.8838 0 0 0 .2575-.6205.8879.8879 0 0 0-.2575-.6223z" fill="#fff"/><path d="M44.1211 21.6211h-3.6505c1.5708-.9035 2.6316-2.5977 2.6316-4.5361a5.2244 5.2244 0 0 0-2.8811-4.6753c.3001-.6671.4557-1.3916.4557-2.1399 0-2.884-2.3463-5.2305-5.2304-5.2305-.9093 0-1.7826.2294-2.5609.6684a6.0764 6.0764 0 0 0-3.5028-1.1098c-.0855 0-.1703.003-.255.0065-.9286-2.7068-3.5179-4.6002-6.4341-4.6002-2.6297 0-5.0092 1.523-6.1303 3.8568a6.8524 6.8524 0 0 0-.6328-.0293c-2.7637 0-5.2183 1.669-6.2663 4.1576a7.7063 7.7063 0 0 0-.5673-.1494c.1008-1.1233.457-1.9844 1.065-2.5635.5296-.5044 1.0615-.6089 1.0839-.6131l-.0122.002-.0002-.001c.1858-.0273.3617-.113.4952-.247a.8838.8838 0 0 0 .2575-.6206.888.888 0 0 0-.2575-.6223.8857.8857 0 0 0-.6214-.2575.8702.8702 0 0 0-.1466.0135l-.0003-.0015c-.5219.0821-1.2356.3746-1.894.969V.8789A.879.879 0 0 0 8.1876 0H6.078a.879.879 0 0 0-.879.879v3.2862C4.1882 2.9261 3.0967 2.2017 3.012 2.1464c-.406-.2648-.949-.1504-1.2144.255-.2657.4054-.1522.9499.2526 1.2163.0291.019 2.6883 1.7997 3.0833 4.3613C2.1593 8.8724 0 11.4863 0 14.5647c0 1.279.7294 4.3501 1.4453 7.0564H.8789A.879.879 0 0 0 0 22.5v21.6211A.879.879 0 0 0 .879 45H44.121A.879.879 0 0 0 45 44.1211V22.5a.879.879 0 0 0-.8789-.8789zM15.9305 5.5895c.3381 0 .6767.0338 1.0065.1006a.8789.8789 0 0 0 1.003-.5682c.7113-2.0096 2.6216-3.3599 4.7536-3.3599 2.0778 0 3.932 1.2954 4.6846 3.1766-2.374.8306-4.0821 3.0918-4.0821 5.7457a.8789.8789 0 0 0 1.7578 0c0-2.3868 1.9419-4.3286 4.3287-4.3286 1.0585 0 2.0778.387 2.8701 1.0898a.8791.8791 0 0 0 1.1109.0453c.6045-.4538 1.3246-.6937 2.0826-.6937 1.9148 0 3.4726 1.5579 3.4726 3.4727 0 .7527-.2368 1.469-.6851 2.071a.8789.8789 0 0 0 .4902 1.3772c1.5428.389 2.6204 1.7735 2.6204 3.367 0 1.9148-1.5579 3.4726-3.4727 3.4726a3.5097 3.5097 0 0 1-.6584-.0632.8788.8788 0 0 0-.9935.5681 3.454 3.454 0 0 1-.2583.5586h-1.1095l3.599-5.1592a.879.879 0 0 0-.2339-1.2345l-2.5625-1.7053a.8787.8787 0 0 0-1.2393.2773l-1.2813 2.1217 1.0489-5.3058a.879.879 0 0 0-.6852-1.0314l-2.2364-.4599a.8786.8786 0 0 0-1.0412.7l-.2869 1.5411H27.882a.8789.8789 0 0 0-.8789.8789v5.0576c-.5841-2.9908-3.2232-5.2553-6.3824-5.2553-1.4235 0-2.7757.4517-3.91 1.3062-.9354.7046-1.6701 1.6637-2.1122 2.7419.112-.66.1672-1.1663.1672-1.5296 0-1.1919-.3237-2.3143-.893-3.2943.4618-1.2564 1.6623-2.11 3.0202-2.11.2158 0 .432.0218.6428.0645a.8786.8786 0 0 0 1.0035-.5688 3.2416 3.2416 0 0 1 .9492-1.382.879.879 0 0 0 .0965-1.2392c-.3154-.3689-.8702-.412-1.2392-.0966a5.008 5.008 0 0 0-1.1754 1.4721 4.9454 4.9454 0 0 0-.2773-.0077c-1.7494 0-3.3296.9158-4.2212 2.3442a7.3667 7.3667 0 0 0-1.3967-1.0545c.7717-1.8565 2.5981-3.103 4.6554-3.103zm16.2042 15.386l3.3105-5.4813 1.0501.6989-3.7865 5.428h-.7017l.1276-.6456zm-1.0994-3.5031v-2.4405c.0047-.0184.0098-.0367.0133-.0557l.7356-3.9501.5049.1038-1.2538 6.3425zm-2.2807 2.6241a.9185.9185 0 0 0 .0063-.1014v-6.8722h.5167v8.4982h-.2774a3.818 3.818 0 0 0-.2456-1.5246zm-12.0554-4.1004c-.026 0-.0516.0017-.0776.0019.8593-1.3342 2.3651-2.194 3.999-2.194 2.3223 0 4.259 1.6771 4.6661 3.8834-1.2161.0086-2.2938.6206-2.9607 1.5569-1.1269-1.94-3.2262-3.2482-5.6268-3.2482zm4.6632 5.625h-9.3263c.4135-2.1983 2.3466-3.8672 4.6632-3.8672 2.3166 0 4.2496 1.6689 4.6631 3.8672zm3.9501-2.1765c1.0662 0 1.9336.9022 1.9336 2.0111a2.069 2.069 0 0 1-.007.1654h-3.8533a2.1168 2.1168 0 0 1-.007-.1654c.0001-1.1089.8675-2.0111 1.9337-2.0111zM6.957 1.7578h.3515v5.8937a8.0394 8.0394 0 0 0-.3515.0105V1.7578zM1.8103 13.87a.8838.8838 0 0 0 .1693.0167h4.3452a.879.879 0 0 0 0-1.7578H2.4263c.9501-1.6185 2.8152-2.7213 4.9565-2.7213 3.1017 0 5.625 2.3134 5.625 5.1571 0 .2293-.0366.6524-.1763 1.4314h-3.491a.879.879 0 0 0 0 1.7578h2.9186c-1.0664.9984-1.7967 2.3502-2.0027 3.8672h-6.992c-.9603-3.5847-1.5066-6.139-1.5066-7.0564 0-.2356.019-.4672.0525-.6947zm41.4319 14.9581h-7.7344a.879.879 0 0 0 0 1.7578h7.7344v5.4493H15.522a.8789.8789 0 0 0 0 1.7578h27.7202v5.4492H1.7578V37.793h7.7344a.879.879 0 0 0 0-1.7578H1.7578v-5.4493H29.478a.879.879 0 0 0 0-1.7578H1.7578v-5.4492h41.4844v5.4492z" fill="#fff"/><path d="M21.5741 4.746h-.0116a.8789.8789 0 1 0 0 1.758h.0116a.879.879 0 0 0 0-1.758z" fill="#fff"/></svg>