<svg width="45" height="45" viewBox="0 0 45 45" fill="none" xmlns="http://www.w3.org/2000/svg"><path d="M44.3408 43.6817h-2.1589v-9.0604c.4314-.3794.7045-.9348.7045-1.5531 0-1.1404-.9279-2.0682-2.0682-2.0682h-4.3126l-.6659-10.6546a.6591.6591 0 0 0-.6579-.6181h-2.8182a.6591.6591 0 0 0-.6578.6181L31.0398 31h-1.5797l-.6659-10.6546a.6591.6591 0 0 0-.6579-.6181h-2.8181a.6591.6591 0 0 0-.6578.6181L23.9944 31h-1.5797l-.6659-10.6546a.6591.6591 0 0 0-.6579-.6181h-2.8181a.6591.6591 0 0 0-.6578.6181L16.949 31h-1.836l-.4084-18.3781a.659.659 0 0 0-.659-.6445H9.8184a.659.659 0 0 0-.659.6445l-.471 21.1963H3.4772c-1.1405 0-2.0682.9279-2.0682 2.0682 0 .6183.273 1.1737.7045 1.5531v6.2422H.6592a.6592.6592 0 0 0 0 1.3184h43.6816a.6592.6592 0 0 0 0-1.3184zM8.6255 36.6364H6.2958a.6592.6592 0 1 0 0 1.3184h2.3004l-.1272 5.7269H3.432v-5.7282c.015.0004.0301.0012.0453.0012a.6592.6592 0 0 0 0-1.3184c-.4135 0-.7499-.3364-.7499-.7499 0-.4135.3365-.7498.7499-.7498h5.1815l-.0333 1.4998zm24.3573-15.5907h1.5797L35.1846 31h-2.8239l.6221-9.9543zm-7.0454 0h1.5797L28.1392 31h-2.8239l.6221-9.9543zm-7.0454 0h1.5797L21.0938 31h-2.824l.6222-9.9543zm-7.6192 22.636h-1.485l.6751-30.3861h2.9379L13.7943 31h-1.1578c-1.1405 0-2.0684.9278-2.0684 2.0682 0 .6183.2731 1.1737.7047 1.5531v9.0604zm29.5454-9.8636h-1.4091a.6592.6592 0 0 0 0 1.3184h1.4091c.0152 0 .0302-.0009.0453-.0012v8.5464H12.591v-8.5464c.0152.0004.0302.0012.0454.0012h23.955a.6592.6592 0 0 0 0-1.3184h-23.955c-.4135 0-.75-.3364-.75-.7499 0-.4134.3365-.7499.75-.7499h28.1817c.4135 0 .7499.3364.7499.7499 0 .4136-.3364.7499-.7498.7499zM36.5909 0c-1.9858 0-3.879.693-5.3923 1.963-1.0865-.8153-2.4033-1.2585-3.7668-1.2585-1.6551 0-3.2352.6535-4.4097 1.8088a4.8835 4.8835 0 0 0-1.9311-.3997c-1.9598 0-3.7068 1.1734-4.4736 2.9296a2.995 2.995 0 0 0-.8105-.1115c-1.3617 0-2.5327.8855-2.9509 2.126a1.9909 1.9909 0 0 0-.2196-.0123c-1.1405 0-2.0683.9279-2.0683 2.0682a.6592.6592 0 1 0 1.3184 0c0-.4134.3365-.7498.75-.7498.1308 0 .259.037.381.11a.6591.6591 0 0 0 .9964-.5257c.0578-.952.8454-1.6979 1.7929-1.6979.2996 0 .5954.081.8789.2407a.659.659 0 0 0 .9607-.4056c.4138-1.5622 1.8303-2.6533 3.4445-2.6533.6117 0 1.2177.16 1.7524.4625a.6592.6592 0 0 0 .8235-.1428c.9488-1.0986 2.3212-1.7287 3.7649-1.7287 1.2345 0 2.4213.4608 3.3419 1.2974a.6592.6592 0 0 0 .9008-.0132c1.3307-1.2826 3.0767-1.9888 4.9165-1.9888 3.9099 0 7.0908 3.1809 7.0908 7.0907S40.5008 15.5 36.5909 15.5c-2.5958 0-4.9822-1.4174-6.2277-3.6989a.659.659 0 0 0-.8543-.2828c-.6612.3045-1.36.4589-2.0771.4589-1.4437 0-2.8161-.6301-3.7649-1.7287a.6593.6593 0 0 0-.8235-.1428 3.5664 3.5664 0 0 1-1.7524.4625c-1.114 0-2.1447-.5101-2.8279-1.3994a.6595.6595 0 0 0-.5195-.2576h-.0032a.6592.6592 0 0 0-.5187.2525c-.3488.4448-.8644.6998-1.4148.6998a.6592.6592 0 1 0 0 1.3184 3.0803 3.0803 0 0 0 1.9045-.6569c.9045.8726 2.1017 1.3614 3.3796 1.3614a4.8857 4.8857 0 0 0 1.9311-.3996c1.1745 1.1553 2.7547 1.8088 4.4097 1.8088a6.214 6.214 0 0 0 2.0749-.3551c1.5402 2.406 4.2032 3.8778 7.0842 3.8778 4.6369 0 8.4091-3.7723 8.4091-8.409C45 3.7722 41.2278 0 36.5909 0z" fill="#fff"/><path d="M16.8637 36.6363a.6592.6592 0 0 0-.6592.6592v1.4091a.6592.6592 0 1 0 1.3184 0v-1.4091a.6593.6593 0 0 0-.6592-.6592zM19.6819 36.6363a.6592.6592 0 0 0-.6592.6592v1.4091a.6591.6591 0 0 0 1.3183 0v-1.4091a.6592.6592 0 0 0-.6591-.6592zM22.5 36.6363a.6593.6593 0 0 0-.6592.6592v1.4091a.6592.6592 0 0 0 1.3184 0v-1.4091a.6593.6593 0 0 0-.6592-.6592zM25.3181 36.6363a.6593.6593 0 0 0-.6592.6592v1.4091a.6592.6592 0 0 0 1.3184 0v-1.4091a.6592.6592 0 0 0-.6592-.6592zM28.1363 36.6363a.6592.6592 0 0 0-.6591.6592v1.4091a.6591.6591 0 0 0 1.3183 0v-1.4091a.6592.6592 0 0 0-.6592-.6592zM30.9545 36.6363a.6592.6592 0 0 0-.6592.6592v1.4091a.6591.6591 0 0 0 1.3183 0v-1.4091a.6592.6592 0 0 0-.6591-.6592zM33.7727 36.6363a.6592.6592 0 0 0-.6592.6592v1.4091a.6592.6592 0 1 0 1.3184 0v-1.4091a.6593.6593 0 0 0-.6592-.6592zM36.5909 36.6363a.6592.6592 0 0 0-.6592.6592v1.4091a.6592.6592 0 1 0 1.3184 0v-1.4091a.6593.6593 0 0 0-.6592-.6592z" fill="#fff"/></svg>