<svg width="35" height="45" viewBox="0 0 35 45" fill="none" xmlns="http://www.w3.org/2000/svg"><path fill-rule="evenodd" clip-rule="evenodd" d="M32.5 0h-30C1.2574 0 .25 1.0074.25 2.25v40.5C.25 43.9926 1.2574 45 2.5 45h30c1.2426 0 2.25-1.0074 2.25-2.25V2.25C34.75 1.0074 33.7426 0 32.5 0zm.75 42.75a.75.75 0 0 1-.75.75h-30a.75.75 0 0 1-.75-.75V2.25a.75.75 0 0 1 .75-.75h30a.75.75 0 0 1 .75.75v40.5zM31 3H4a.75.75 0 0 0-.75.75v37.5A.75.75 0 0 0 4 42h27a.75.75 0 0 0 .75-.75V3.75A.75.75 0 0 0 31 3zm-.75 37.5H4.75v-36h25.5v36zM7.5032 12.7768a.7491.7491 0 0 1-1.2228-.2436.75.75 0 0 1 .1622-.817l5.3042-5.3042a.7494.7494 0 0 1 .7292-.2043.7491.7491 0 0 1 .5357.5357.7492.7492 0 0 1-.2043.7292l-5.3042 5.3042zm14.6895 26.2506a.7503.7503 0 0 0 1.0605 0l5.3042-5.3042a.75.75 0 0 0-.0092-1.0514.75.75 0 0 0-1.0513-.0091l-5.3042 5.3042a.7503.7503 0 0 0 0 1.0605zm-11.6625-8.4971a.7503.7503 0 0 1-1.0605 0 .7503.7503 0 0 1 0-1.0605l15-15a.75.75 0 0 1 1.0605 1.0605l-15 15z" fill="#fff"/></svg>