<svg width="45" height="57" viewBox="0 0 45 57" fill="none" xmlns="http://www.w3.org/2000/svg"><path fill-rule="evenodd" clip-rule="evenodd" d="M9.7631 1.309l2.5513 6.1593a.8332.8332 0 1 1-1.5396.6382L8.2235 1.9473A.8335.8335 0 0 1 8.6767.8639a.8335.8335 0 0 1 1.0864.4452zM.7904 36.7504a1.657 1.657 0 0 0 1.6216.0729.8726.8726 0 0 0 .1236-.0763l1.9058-1.4133h4.7249v.9208a.8094.8094 0 0 1-.8686.7458c-1.3645.0252-2.459 1.1352-2.4647 2.5001v1.6667c.0015 1.3801 1.12 2.4986 2.5001 2.5001h.1843l-1.0998 6.6665h-.4062a1.6564 1.6564 0 0 0-1.1784.4883l-1.1783 1.1783a1.656 1.656 0 0 0-.4883 1.1784v2.1549c.0011.9201.7465 1.6659 1.6666 1.6666h15.0001c.9201-.0007 1.6658-.7465 1.6666-1.6666v-1.9848a1.6574 1.6574 0 0 0-.9213-1.4908l-2.6969-1.3484a1.6668 1.6668 0 0 0-.6104-.1603l1.125-6.8175a2.1646 2.1646 0 0 0 1.437-2.0313v-.6668a.507.507 0 0 1 .5001-.5001h1.1665v5.8333c0 .2209.0877.433.2441.5894l4.1668 4.1664a.8333.8333 0 0 0 1.1783-1.1784l-3.9226-3.9222v-5.4885h4.1668a1.6656 1.6656 0 0 0 1.5133-.9774l2.2243-.5561a1.6646 1.6646 0 0 0 1.2623-1.6171v-1.0158h1.6666c.46 0 .8331-.3731.8331-.8335a.8332.8332 0 0 0-.8331-.8331H33.333v-1.0163a1.6646 1.6646 0 0 0-1.2623-1.6166l-2.2243-.5558a1.6657 1.6657 0 0 0-1.5133-.9781h-1.7853c-.3776-1.4679-1.699-2.4956-3.215-2.5001a3.2988 3.2988 0 0 0-1.6975.4806l-1.3702-3.3054c1.6414-1.1082 2.2758-3.2184 1.5178-5.0483l-3.5656-8.6086c.9041-.8133 1.091-2.1595.4418-3.188-.6489-1.0283-1.9447-1.4392-3.0678-.9726L4.0436 11.9748c-1.1025.4567-1.728 1.6289-1.4946 2.7989.2334 1.1699 1.2615 2.0122 2.4543 2.0107a.5296.5296 0 0 0 .071-.0064c.0181-.0024.0361-.0048.0541-.0058l3.566 8.61c.756 1.8292 2.6958 2.8725 4.6386 2.4952l1.0189 2.4563H4.4414L2.5356 28.92a.8701.8701 0 0 0-.1236-.0759 1.6677 1.6677 0 0 0-1.622.0728A1.666 1.666 0 0 0 0 30.3348v4.9976a1.6556 1.6556 0 0 0 .7904 1.4179zm9.4165 6.9168h7.4775l-1.1001 6.6665H9.1072l1.0997-6.6665zm10.6262 9.6816v1.9848h-15v-2.1549l1.1783-1.1784h11.1251l2.6966 1.3485zm10.8332-16.1658l-1.6666.4166v-4.5318l1.6666.4165v3.6987zm-3.3332 1.4839h-4.1668v-4.285a3.3285 3.3285 0 0 0 2.3815-2.3815h1.7853v6.6665zm-5.0003-9.1666c.9205 0 1.667.7465 1.667 1.667 0 .9201-.7465 1.6666-1.667 1.6666-.9201 0-1.6666-.7465-1.6666-1.6666.0011-.9201.7469-1.6659 1.6666-1.667zM4.2305 14.6035a.8333.8333 0 0 1 .4513-1.0891l11.5481-4.7832a.8334.8334 0 0 1 .6382 1.5396h-.0008L5.3192 15.0544a.8335.8335 0 0 1-1.0887-.4509zm6.0039 10.1406l-3.5072-8.4686 5.0041-2.0729 5.0044-2.0733 3.508 8.4694c.5283 1.2741-.0759 2.7355-1.35 3.2646l-.0042.0007-5.3917 2.2331-.003.0023c-1.2745.5222-2.7317-.0832-3.2604-1.3553zm4.6718 2.5749l3.8513-1.5953 1.6262 3.9233a3.285 3.285 0 0 0-.2655.6867h-3.9615l-1.2505-3.0147zm-2.4063 4.6813h7.6183a3.3285 3.3285 0 0 0 2.3815 2.3815v4.285h-1.1665c-1.1963.0016-2.1652.9709-2.1668 2.1668v.6668a.5065.5065 0 0 1-.5001.4997H8.3332a.8343.8343 0 0 1-.8335-.8331v-1.6667a.8374.8374 0 0 1 .8213-.8335 2.4615 2.4615 0 0 0 2.5119-2.4124v-4.2541h1.667zm-3.3336 0v1.6666H4.9999v-1.6666h4.1664zm-7.4997-1.6498l1.6667 1.2359v2.4944l-1.6667 1.2364v-4.9667zm43.1662-16.017a.8335.8335 0 0 1-.8335.8335c-.46 0-.8331-.3734-.8331-.8335 0-.46.3731-.8335.8331-.8335a.8336.8336 0 0 1 .8335.8335zm-.8335 4.1666a.8333.8333 0 0 0 .8335-.8335c0-.46-.373-.8331-.8335-.8331a.8332.8332 0 0 0-.8331.8331c0 .4605.3731.8335.8331.8335zm-7.4996 1.667a.8332.8332 0 0 0 .8331-.8335c0-.46-.373-.8331-.8331-.8331a.8333.8333 0 1 0 0 1.6666zm7.4996 5a.8333.8333 0 0 0 .8335-.8335c0-.46-.373-.8331-.8335-.8331a.8332.8332 0 0 0-.8331.8331c0 .4605.3731.8335.8331.8335zm.8335-4.167a.8333.8333 0 0 1-.8335.8335.8333.8333 0 0 1-.8331-.8335c0-.46.3731-.8331.8331-.8331a.8333.8333 0 0 1 .8335.8331zm-3.3332 2.5a.8332.8332 0 0 0 .8331-.8335c0-.46-.373-.8331-.8331-.8331a.8333.8333 0 1 0 0 1.6666zm.8331-4.1665a.8333.8333 0 1 1-1.6665.0003.8333.8333 0 0 1 1.6665-.0003zm-.8331-2.5a.8332.8332 0 0 0 .8331-.8335c0-.46-.373-.8331-.8331-.8331a.8333.8333 0 1 0 0 1.6666zm-1.6666 4.1665a.8333.8333 0 1 1-1.6667.0003.8333.8333 0 0 1 1.6667-.0003zm-.8335-2.5a.8333.8333 0 1 0 .0003-1.6667.8333.8333 0 0 0-.0003 1.6667z" fill="#fff"/></svg>