<svg width="50" height="50" viewBox="0 0 50 50" fill="none" xmlns="http://www.w3.org/2000/svg"><path d="M49.7638 17.9786l-8.0644-8.0645a.8068.8068 0 0 0-.4258-.2226l-8.8709-1.6129a.8065.8065 0 0 0-.9508.7928 4.7791 4.7791 0 0 1-.0686.7645l-5.5765-1.3935v-.2581c2.1819-.4454 3.5897-2.5753 3.1443-4.7572-.4454-2.182-2.5753-3.5897-4.7572-3.1444-1.8771.3832-3.2254 2.0342-3.2258 3.95h1.6129c0-1.3362 1.0831-2.4193 2.4193-2.4193 1.3362 0 2.4194 1.0831 2.4194 2.4193 0 1.3362-1.0832 2.4193-2.4194 2.4193a.8065.8065 0 0 0-.8064.8065v.983L18.6173 9.636a4.7906 4.7906 0 0 1-.0685-.7645.8064.8064 0 0 0-.2896-.6194.7875.7875 0 0 0-.6612-.1734l-8.871 1.613a.8066.8066 0 0 0-.4257.2225L.2368 17.9786a.8064.8064 0 0 0 0 1.1403l6.4516 6.4515a.8063.8063 0 0 0 1.1403 0l1.8492-1.8491v5.3112H4.0328C1.8125 29.0261.0075 30.8208.001 33.041a4.0198 4.0198 0 0 0 1.6374 3.2495C-.143 37.5922-.532 40.0917.7697 41.8732c.243.3327.536.6257.8687.8688-1.7882 1.3159-2.171 3.8324-.8551 5.6206A4.0205 4.0205 0 0 0 4.0327 50h29.0321a.8063.8063 0 0 0 .5701-.2363l6.4516-6.4516a.7987.7987 0 0 0 .229-.5701h.0073V23.7213l1.8492 1.8491a.8063.8063 0 0 0 1.1403 0l6.4515-6.4515a.8065.8065 0 0 0 0-1.1403zM25.0003 9.702l5.8645 1.4661a6.5799 6.5799 0 0 1-5.8645 3.2476 6.58 6.58 0 0 1-5.8645-3.2476l5.8645-1.466zM1.6134 33.0647c0-1.3361 1.0832-2.4193 2.4194-2.4193h17.7417c1.3362 0 2.4194 1.0832 2.4194 2.4193 0 1.3362-1.0832 2.4194-2.4194 2.4194H4.0328c-1.3362 0-2.4194-1.0833-2.4194-2.4194zm0 6.4516c0-1.3362 1.0832-2.4193 2.4194-2.4193h17.7417c1.3362 0 2.4194 1.0831 2.4194 2.4193 0 1.3362-1.0832 2.4193-2.4194 2.4193H4.0328c-1.3362 0-2.4194-1.0832-2.4194-2.4193zm20.1611 8.8709H4.0328c-1.3362 0-2.4194-1.0832-2.4194-2.4193 0-1.3362 1.0832-2.4194 2.4194-2.4194h17.7417c1.3362 0 2.4194 1.0832 2.4194 2.4194 0 1.3361-1.0832 2.4193-2.4194 2.4193zm12.0967-1.1403v-3.6984h3.6984l-3.6984 3.6984zM42.7421 23.86l-5.075-5.075-1.1403 1.1403 2.1831 2.1831v19.8272h-5.6451a.8065.8065 0 0 0-.8065.8065v5.6451h-7.279c1.3423-1.7389 1.0208-4.2366-.718-5.5789a3.836 3.836 0 0 0-.0884-.0662c1.7815-1.3017 2.1706-3.8012.8688-5.5828a3.9906 3.9906 0 0 0-.8688-.8688c1.7883-1.3159 2.1712-3.8324.8551-5.6206a4.0202 4.0202 0 0 0-3.2535-1.6374H11.2908v-6.9241l2.183-2.1831-1.1403-1.1403-5.075 5.075-5.3112-5.3113 7.316-7.316 7.7419-1.4073c.5274 3.4968 3.9113 6.2032 7.9935 6.2032s7.4661-2.7064 7.9935-6.2032l7.7419 1.4073 7.3193 7.316-5.3113 5.3113z" fill="#fff"/><path d="M22.581 32.2583H3.2263v1.6129H22.581v-1.6129zM21.7746 38.71H3.2263v1.6128h18.5483V38.71zM21.7746 45.1616H3.2263v1.6129h18.5483v-1.6129z" fill="#fff"/></svg>