<svg width="43" height="45" viewBox="0 0 43 45" fill="none" xmlns="http://www.w3.org/2000/svg"><path fill-rule="evenodd" clip-rule="evenodd" d="M14.4996 10.6948a.6053.6053 0 0 1 .0354-.0298c.2029-.1641.2331-.3766.2331-.4889 0-.1119-.0302-.3245-.2331-.4886a.7823.7823 0 0 1-.0354-.0298L12.3714 7.744a.879.879 0 0 1-.1737-1.0928l1.8041-3.126a.8787.8787 0 0 1 1.0334-.3965l2.7222.8868a.921.921 0 0 1 .0436.0154c.2438.0941.4426.0141.5394-.0418.0968-.056.2654-.1885.3059-.4457a.6848.6848 0 0 1 .0086-.0463l.5936-2.8005a.879.879 0 0 1 .86-.6966h3.6087a.8793.8793 0 0 1 .86.697l.5929 2.8004c.0031.0151.0059.0302.0083.0454.0408.2578.2097.3903.3069.4463.0968.056.2959.1356.5393.0422.0145-.0055.0289-.011.0437-.0158l2.7222-.8868a.879.879 0 0 1 1.0334.3965l1.8038 3.126a.8787.8787 0 0 1-.1734 1.0928L29.326 9.6577a.998.998 0 0 1-.0353.0302c-.2029.1637-.2331.3763-.2331.4885 0 .112.0302.3245.2331.4886a.8973.8973 0 0 1 .0353.0298l2.1283 1.9141a.8786.8786 0 0 1 .1734 1.0928l-1.8038 3.1249a.8787.8787 0 0 1-1.0334.3965l-2.7219-.8861a.7119.7119 0 0 1-.0443-.0158c-.2434-.0937-.4425-.0141-.5394.0422-.0971.056-.266.1882-.3065.4464a1.027 1.027 0 0 1-.0083.0453l-.5929 2.8005a.8789.8789 0 0 1-.86.6969h-3.6087a.879.879 0 0 1-.86-.6966l-.5936-2.8005a.6514.6514 0 0 1-.0086-.0467c-.0405-.2571-.2087-.3893-.3056-.4453-.0968-.0559-.2959-.1359-.5393-.0422a.7119.7119 0 0 1-.0443.0158l-2.7219.8861a.879.879 0 0 1-1.0334-.3965l-1.8038-3.1249a.8785.8785 0 0 1 .1734-1.0928l2.1282-1.9141zm-.4233-3.782l1.5834 1.4241a2.3752 2.3752 0 0 1 .8659 1.8392 2.3753 2.3753 0 0 1-.8659 1.8395l-1.5837 1.4238 1.0921 1.8917 2.0253-.6592a2.3743 2.3743 0 0 1 2.0266.1693 2.3743 2.3743 0 0 1 1.1587 1.6699l.4415 2.0836h2.1846l.4411-2.0836a2.3756 2.3756 0 0 1 1.1601-1.6703 2.3765 2.3765 0 0 1 2.026-.1689l2.0252.6592 1.0922-1.8914-1.5834-1.4241a2.3744 2.3744 0 0 1-.8663-1.8395c0-.7155.3152-1.3843.8663-1.8392l1.5834-1.4241-1.0922-1.892-2.0249.6598a2.3762 2.3762 0 0 1-2.0259-.1689 2.377 2.377 0 0 1-1.1605-1.67l-.4411-2.0839h-2.1842l-.4419 2.0836a2.3732 2.3732 0 0 1-1.1591 1.6696 2.3746 2.3746 0 0 1-2.0262.1696l-2.0253-.6599-1.0918 1.8921zm27.0329 11.0699c.3238-.3619.8796-.3928 1.2411-.069a.8787.8787 0 0 1 .069 1.2411l-7.3522 8.2164v8.6617a.8791.8791 0 0 1-.8789.8789.879.879 0 0 1-.8789-.8789V27.914H10.0612v15.3284h7.7055v-5.4232a.8787.8787 0 0 1 1.3753-.7254l2.6004 1.7791 2.6003-1.7791a.8795.8795 0 0 1 .9064-.0519.8795.8795 0 0 1 .4686.7773v5.4232h8.4705a.8789.8789 0 0 1 0 1.7578H9.1822a.8789.8789 0 0 1-.8789-.8789V27.3719L.719 18.9231a.8787.8787 0 0 1 .067-1.2411c.3611-.3245.917-.2943 1.241.0669l7.5473 8.4073h10.6348V24.752c0-.4851.3938-.8789.8789-.8789a.879.879 0 0 1 .8789.8789v1.4042h11.8282l7.3141-8.1735zM21.2459 40.6633l-1.7214-1.1776v3.7567h4.4354v-3.7567l-1.7214 1.1776a.8793.8793 0 0 1-.9926 0zm.6664-27.0331c1.9048 0 3.4546-1.5495 3.4546-3.4542 0-1.9044-1.5498-3.4538-3.4546-3.4538-1.9044 0-3.4534 1.5494-3.4534 3.4538 0 1.9047 1.549 3.4542 3.4534 3.4542zm0-5.1502c.9356 0 1.6967.7608 1.6967 1.6957 0 .9355-.7611 1.6967-1.6967 1.6967-.9348 0-1.6956-.7612-1.6956-1.6967 0-.935.7608-1.6957 1.6956-1.6957zm-6.5997 15.2772v-3.8466a.8791.8791 0 0 1 .8789-.8789.8788.8788 0 0 1 .8789.8789v3.8466a.8788.8788 0 0 1-.8789.8789.879.879 0 0 1-.8789-.8789zm11.5024-2.6571v2.6573c0 .4855.3935.8789.8789.8789a.8788.8788 0 0 0 .8789-.8789v-2.6573a.8788.8788 0 0 0-.8789-.8789.8788.8788 0 0 0-.8789.8789zm7.3254 18.1262c.3691-.0199.7173.2012.8591.5415.1627.3913.013.8596-.3475 1.0824-.3049.1885-.6987.1717-.9874-.0401-.2949-.2167-.4243-.6118-.3172-.9613.1071-.3495.4274-.6025.793-.6225z" fill="#fff"/></svg>