<svg width="50" height="50" viewBox="0 0 50 50" fill="none" xmlns="http://www.w3.org/2000/svg"><path d="M47.2575 15.9188l-13.9453-5.0709c-.9839-.3576-1.6455-1.302-1.6455-2.3494V.8333A.8331.8331 0 0 0 30.8333 0h-10A.833.833 0 0 0 20 .8333v16.7669L16.6667 13.85V9.1667a.8331.8331 0 0 0-.8334-.8334H7.5a.8331.8331 0 0 0-.8333.8334V13.85L1.053 20.1656A4.1595 4.1595 0 0 0 0 22.9342v26.2325A.833.833 0 0 0 .8333 50h48.3334A.833.833 0 0 0 50 49.1667V19.8348c0-1.7456-1.1019-3.3191-2.7425-3.916zM28.3333 1.6667H30v5h-1.6667v-5zm-3.3333 0h1.6667v5H25v-5zm-3.3333 0h1.6666v5h-1.6666v-5zM8.3333 10H15v3.3333H8.3333V10zm13.3334 38.3333h-20V22.9342c0-.6133.2246-1.2028.6315-1.661L7.8744 15h7.5847l5.5761 6.2732a2.4991 2.4991 0 0 1 .6316 1.661l-.0001 25.3991zm26.6666 0h-25V22.9342a4.1594 4.1594 0 0 0-1.053-2.7686l-.6136-.6904V8.3333H30v.1652c0 1.7457 1.1019 3.3191 2.7425 3.9161l13.9453 5.0708c.9839.3577 1.6455 1.3021 1.6455 2.3495v28.4984z" fill="#fff"/><path d="M43.3333 20.8333H27.5c-1.3785 0-2.5 1.1215-2.5 2.5v18.3334c0 1.3785 1.1215 2.5 2.5 2.5h15.8333c1.3786 0 2.5-1.1215 2.5-2.5V23.3333c0-1.3785-1.1214-2.5-2.5-2.5zm.8334 20.8334c0 .4593-.3736.8333-.8334.8333H31.5021C30.5222 41.0042 30 39.2864 30 37.5c0-5.0545 4.1122-9.1667 9.1667-9.1667 1.7864 0 3.5047.5222 5 1.5022v11.8312zm0-13.7656c-1.5407-.8082-3.242-1.2344-5-1.2344-5.9734 0-10.8334 4.8595-10.8334 10.8333 0 1.7576.4261 3.4593 1.2346 5H27.5c-.4598 0-.8333-.374-.8333-.8333V23.3333c0-.4593.3735-.8333.8333-.8333h15.8333c.4598 0 .8334.374.8334.8333v4.5678zM19.1667 24.1667h-15A.833.833 0 0 0 3.3333 25v20a.833.833 0 0 0 .8334.8333h15A.833.833 0 0 0 20 45V25a.833.833 0 0 0-.8333-.8333zm-.8334 20H5V25.8333h13.3333v18.3334z" fill="#fff"/><path d="M39.1667 34.1667c-1.8384 0-3.3334 1.4953-3.3334 3.3333 0 1.838 1.495 3.3333 3.3334 3.3333 1.8383 0 3.3333-1.4953 3.3333-3.3333 0-1.838-1.495-3.3333-3.3333-3.3333zm0 5c-.9188 0-1.6667-.7475-1.6667-1.6667s.7479-1.6667 1.6667-1.6667c.9187 0 1.6666.7475 1.6666 1.6667s-.7479 1.6667-1.6666 1.6667zM16.6667 37.5h-10v1.6667h10V37.5z" fill="#fff"/></svg>