<svg width="55" height="46" viewBox="0 0 55 46" fill="none" xmlns="http://www.w3.org/2000/svg"><path d="M24.6978 29.3232l1.626-6.0768h.5782V21.635H13.8411l-.4234-1.5836H9.5446v1.6113h2.6356l2.597 9.7196h.29a2.2627 2.2627 0 0 0-.0965.6546c0 1.2492 1.0167 2.2655 2.2659 2.2655 1.2496 0 2.2659-1.0163 2.2659-2.2655 0-.2274-.0335-.4473-.0965-.6546h1.569a2.2458 2.2458 0 0 0-.0966.6546c0 1.2492 1.0164 2.2655 2.266 2.2655 1.2492 0 2.2659-1.0163 2.2659-2.2655 0-1.2496-1.0167-2.2659-2.2659-2.2659h-7.1297l-.1196-.4478h8.8027zm-6.1268-1.6113v-1.4271h1.7875v1.4271H18.571zm3.3989 0v-1.4271h1.8731l-.3818 1.4271h-1.4913zm2.6859-4.4655l-.3818 1.4271h-2.3041v-1.4271h2.6859zm-4.2973 0v1.4271H18.571v-1.4271h1.7875zm-3.3989 0v1.4271h-2.3045l-.3818-1.4271h2.6863zm.9316 8.7901a.6555.6555 0 0 1-.6546.6546.6551.6551 0 0 1-.6546-.6546c0-.3609.2937-.6542.6546-.6542.3609 0 .6546.2933.6546.6542zm5.9074 0a.6555.6555 0 0 1-.6546.6546.6551.6551 0 0 1-.6546-.6546c0-.3609.2937-.6542.6546-.6542.3608 0 .6546.2933.6546.6542zm-8.3303-4.3246l-.3818-1.4271h1.8731v1.4271h-1.4913zM43.4526 21.2062l-1.8094-3.025h-1.339l-1.8434 3.025h-1.276v4.8755h7.6072v-4.8755h-1.3394zm-2.4854-1.0163l.608 1.0158h-1.2274l.6194-1.0158zm2.2139 4.2805h-4.3846v-1.6533h4.3846v1.6533zM51.8571 0H3.1429L0 3.378v10.4664l3.1354 3.1354h4.2385l2.3297-2.3297 2.3297 2.3297h4.2386l2.3297-2.3297 2.3297 2.3297h4.2386L27.5 14.6501l2.3297 2.3297h4.2386l2.3297-2.3297 2.3297 2.3297h4.2385l2.3297-2.3297 2.3298 2.3297h4.2385L55 13.8444V3.3779L51.8571 0zM6.7067 15.3685H3.803l-2.1917-2.1917V7.0915H8.898v6.0853l-2.1913 2.1917zm8.898 0H12.701l-2.1913-2.1917V7.0915h7.2867v6.0853l-2.1917 2.1917zm8.898 0h-2.9034l-2.1916-2.1917V7.0915h7.2866v6.0853l-2.1916 2.1917zm8.8984 0h-2.9038l-2.1916-2.1917V7.0915h7.2866v6.0853l-2.1912 2.1917zm8.8979 0h-2.9037l-2.1912-2.1917V7.0915h7.2866v6.0853l-2.1917 2.1917zm11.0897-2.1917l-2.1917 2.1917h-2.9033l-2.1917-2.1917V7.0915h7.2867v6.0853zM1.6113 5.4802V4.0115l2.2332-2.4002h47.311l2.2332 2.4002v1.4687H1.6113zM52.2586 17.6789H53.87v20.6338h-1.6114V17.6789zM1.1812 17.7305h1.6113v20.5822H1.1812V17.7305z" fill="#fff"/><path d="M8.214 18.3226H6.6027l.005 18.9683h23.2371l-.0054-19.2084-1.6114.0005.0051 17.5966H8.2186l-.0046-17.357z" fill="#fff"/><path d="M48.3466 18.3226h-1.6114V39.655H35.2419V18.3226h-1.6113V39.655H0v5.4181h55V39.655h-6.6534V18.3226zm5.0421 22.9442v2.195H1.6113v-2.195h51.7774z" fill="#fff"/><path d="M45.661 38.1604h-1.6113v-5.4232h1.6113v5.4232zm0-6.4974h-1.6113v-1.6113h1.6113v1.6113zm0-2.6855h-1.6113v-1.6114h1.6113v1.6114zM26.902 19.884h-6.2233v-1.6114h6.2233v1.6114zm-7.2975 0h-1.6113v-1.6114h1.6113v1.6114zm-2.6856 0h-1.6113v-1.6114h1.6113v1.6114zM51.2402 4.406H28.4219V2.7947h22.8183V4.406zm-23.8925 0h-1.6113V2.7947h1.6113V4.406zm-2.6856 0h-1.6113V2.7947h1.6113V4.406z" fill="#fff"/></svg>