<svg width="57" height="51" viewBox="0 0 57 51" fill="none" xmlns="http://www.w3.org/2000/svg"><path fill-rule="evenodd" clip-rule="evenodd" d="M52.9851 36.979h1.9407c.5933 0 1.0742.4809 1.0742 1.0743 0 .5933-.4809 1.0742-1.0742 1.0742h-1.9407v1.0717c0 .5933-.4813 1.0742-1.0743 1.0742h-3.4517c.6944.9122 1.1078 2.0494 1.1078 3.2818 0 2.9944-2.4363 5.4307-5.4307 5.4307-1.7817 0-3.3653-.8627-4.3565-2.1921-.9907 1.3294-2.5748 2.1921-4.356 2.1921-2.9944 0-5.4307-2.4363-5.4307-5.4307 0-1.2324.4133-2.3696 1.1078-3.2818h-8.1431c.694.9122 1.1074 2.0494 1.1074 3.2818 0 2.9944-2.4363 5.4307-5.4307 5.4307-1.7813 0-3.3653-.8627-4.356-2.1921-.9908 1.3294-2.5748 2.1921-4.3565 2.1921-2.9944 0-5.4303-2.4363-5.4303-5.4307 0-1.2324.4134-2.3696 1.1074-3.2818H2.0742C1.481 41.2734 1 40.7925 1 40.1992v-4.2919c0-.5933.4809-1.0742 1.0742-1.0742H4.198C2.2433 33.174 1 30.7016 1 27.943v-8.9773c0-4.9838 4.0543-9.0385 9.0385-9.0385h9.2027V6.8955c0-.5934.4808-1.0743 1.0742-1.0743h.6302V3.2813c0-.392.2136-.7528.5569-.9416.091-.05 2.2617-1.2245 5.1378-1.2245 2.6553 0 5.0014 1.1557 5.1 1.2047a1.074 1.074 0 0 1 .5942.9614v2.54h.6302c.5934 0 1.0742.4808 1.0742 1.0742v3.0317h7.8045c4.9834 0 9.0381 4.0547 9.0381 9.0385v8.9773c0 2.7586-1.2437 5.231-3.1979 6.8901h4.2272c.593 0 1.0743.4809 1.0743 1.0742v1.0717zm-4.252-9.036v-8.9773c0-3.4337-2.5253-6.2883-5.8155-6.8057v13.9816c0 .5929-.4813 1.0742-1.0742 1.0742-.5933 0-1.0742-.4813-1.0742-1.0742v-14.066H11.1128v22.7575h11.1509V14.2048c0-.5934.4813-1.0743 1.0742-1.0743.5933 0 1.0742.4809 1.0742 1.0743v2.1631h4.4559v-2.1631c0-.5934.4813-1.0743 1.0742-1.0743.5934 0 1.0742.4809 1.0742 1.0743v20.6283h10.827c3.7988 0 6.8897-3.0909 6.8897-6.8901zm-24.321 4.3674v2.5227h4.4559v-2.5227h-4.4559zm0-6.7466h4.4559v-2.4497h-4.4559v2.4497zm4.4559 2.1484h-4.4559v2.4497h4.4559v-2.4497zm-4.4559-6.7466h4.4559v-2.4493h-4.4559v2.4493zm2.2282-17.702c-1.5363 0-2.8417.423-3.5462.7076v1.85h7.0919V3.9896c-.7494-.29-2.114-.726-3.5457-.726zm5.2502 4.706H21.3896v1.9576h10.5009V7.9697zM3.1485 18.9658v8.9773c0 3.4337 2.5252 6.2884 5.8158 6.8058V12.16c-3.2906.5174-5.8159 3.372-5.8159 6.8057zM6.64 44.5552c0 1.8098 1.4724 3.2818 3.2818 3.2818 1.8098 0 3.2822-1.472 3.2822-3.2818 0-1.8056-1.4657-3.2751-3.2696-3.2818h-.0248c-1.804.0067-3.2696 1.4762-3.2696 3.2818zm7.6383-3.2386l.0067-.0089.0098-.0127.0103-.0133.0063-.0083h-.0663c.0055.0073.011.0145.0166.0216l.0085.011.0081.0106zm4.356 6.5204c1.8098 0 3.2822-1.472 3.2822-3.2818 0-1.8056-1.4657-3.2751-3.2696-3.2818h-.0248c-1.8039.0067-3.2696 1.4762-3.2696 3.2818 0 1.8098 1.472 3.2818 3.2818 3.2818zm13.507-3.2818c0 1.8098 1.4725 3.2818 3.2823 3.2818 1.8098 0 3.2818-1.472 3.2818-3.2818 0-1.8056-1.4657-3.2751-3.2697-3.2818h-.0247c-1.8039.0067-3.2697 1.4762-3.2697 3.2818zm7.6383-3.2386l.0094-.0123.0071-.0092.008-.0102.0087-.0115h-.0663l.0095.0126.0161.0207.0075.0099zm4.3565 6.5204c1.8098 0 3.2818-1.472 3.2818-3.2818 0-1.8056-1.4653-3.2751-3.2697-3.2818h-.0247c-1.8039.0067-3.2697 1.4762-3.2697 3.2818 0 1.8098 1.4725 3.2818 3.2823 3.2818zm.0121-8.712h6.6883v-2.1434H3.1484v2.1434h6.7613c.0042 0 .0084-.0005.0122-.0005l.0038.0001.0025.0001.0063.0003h8.6877c.0042 0 .0084-.0005.0126-.0005.0038 0 .008.0005.0122.0005h16.7645l.0067-.0003.0055-.0002c.0042 0 .0079.0005.0121.0005h8.6878c.0042 0 .0084-.0005.0126-.0005.0042 0 .0079.0005.0121.0005zm-34.284 4.3572c.4503-.0243.8767.2463 1.0495.6618.1947.475.0223 1.0364-.4108 1.3138-.3793.2425-.8761.222-1.2345-.0504-.357-.271-.506-.7544-.3688-1.1808.1351-.4192.524-.7205.9647-.7444zm8.5607.0194c-.4339.0881-.7771.441-.8497.8782-.0747.4486.1519.9089.553 1.1221.3852.2052.8674.1548 1.201-.1276.3419-.2895.4691-.778.3105-1.1976-.183-.4846-.7058-.7775-1.2148-.6751zm16.903-.0164c.4624-.042.9098.2312 1.0877.6588.1959.4704.0226 1.0306-.4033 1.3092-.3688.2408-.8556.2299-1.2144-.0248-.3608-.2559-.5262-.7259-.4112-1.1518.1163-.4305.4968-.7511.9412-.7914zm8.598.0164c-.4394.0906-.7868.4507-.8523.8959-.0646.4389.1536.8807.5409 1.096.3923.2182.8921.1653 1.2299-.1305.3332-.2916.4511-.7725.2962-1.1858-.1817-.4859-.7058-.778-1.2147-.6756zm-2.1363-13.8075c.4465-.0239.8761.2471 1.0457.6613.1997.4796.0147 1.0491-.4259 1.3231-.3773.2349-.8733.2073-1.2245-.0638-.3579-.2765-.5044-.7662-.3583-1.1938.1414-.4138.5262-.7037.963-.7268z" fill="#fff"/><path d="M52.9851 36.979h-.35v.35h.35v-.35zm0 2.1485v-.35h-.35v.35h.35zm-4.526 2.1459v-.35h-.7064l.4279.562.2785-.212zm-8.6794 6.5204l.2806-.2092-.2806-.3764-.2806.3765.2806.2091zm-8.6789-6.5204l.2785.212.4278-.562h-.7063v.35zm-8.1431 0v-.35h-.7061l.4276.5619.2785-.2119zm-8.6793 6.5204l.2806-.2091-.2806-.3766-.2807.3766.2807.2091zM5.599 41.2734l.2786.2119.4275-.5619H5.599v.35zm-1.4011-6.4403v.35h.9531l-.7266-.6168-.2265.2668zm15.0433-24.906v.3501h.35v-.35h-.35zm1.7044-4.1059v.35h.35v-.35h-.35zm.5569-3.4815l-.1683-.307-.0004.0003.1687.3067zm10.2378-.0198l.1562-.3131-.0002-.0002-.156.3133zm.5942 3.5013h-.35v.35h.35v-.35zm1.7044 4.106h-.35v.35h.35v-.35zM47.6836 34.833l-.2265-.2668-.7265.6168h.953v-.35zM42.9176 12.16l.0544-.3458-.4044-.0636v.4094h.35zm-2.1484-.0844h.35v-.35h-.35v.35zm-29.6564 0v-.35h-.35v.35h.35zm0 22.7575h-.35v.35h.35v-.35zm11.1509 0v.35h.35v-.35h-.35zm2.1484-18.4652h-.35v.35h.35v-.35zm4.4559 0v.35h.35v-.35h-.35zm2.1484 18.4652h-.35v.35h.35v-.35zm-6.6043 0h-.35v.35h.35v-.35zm0-2.5227v-.35h-.35v.35h.35zm4.4559 2.5227v.35h.35v-.35h-.35zm0-2.5227h.35v-.35h-.35v.35zm0-6.7466v.35h.35v-.35h-.35zm-4.4559 0h-.35v.35h.35v-.35zm4.4559-2.4497h.35v-.35h-.35v.35zm-4.4559 0v-.35h-.35v.35h.35zm0 4.5981v-.35h-.35v.35h.35zm4.4559 0h.35v-.35h-.35v.35zm-4.4559 2.4497h-.35v.35h.35v-.35zm4.4559 0v.35h.35v-.35h-.35zm0-9.1963v.35h.35v-.35h-.35zm-4.4559 0h-.35v.35h.35v-.35zm4.4559-2.4493h.35v-.35h-.35v.35zm-4.4559 0v-.35h-.35v.35h.35zm-1.318-14.5452l-.1311-.3245-.2189.0884v.2362h.35zm0 1.8501h-.35v.35h.35v-.35zm7.0919 0v.35h.35v-.35h-.35zm0-1.8316h.35v-.2399l-.2237-.0865-.1263.3264zm-8.7964 3.98v-.35h-.35v.35h.35zm10.5009 0h.35v-.35h-.35v.35zM21.3896 9.9273h-.35v.35h.35v-.35zm10.5009 0v.35h.35v-.35h-.35zM8.9643 34.7488l-.0543.3457.4043.0636v-.4093h-.35zm0-22.5888h.35v-.4094l-.4043.0636.0543.3458zm.9702 29.1134l.0013-.35h-.0013v.35zm-.0248 0v-.35h-.0013l.0013.35zm4.3754.0343l-.2767-.2144-.0025.0034.2792.211zm-.0067.0089l-.279.2114.2793.3687.2789-.3691-.2792-.211zm.0165-.0216l.2767.2144v-.0001l-.2767-.2143zm.0103-.0133l.2767.2144.0026-.0034-.2793-.211zm.0063-.0083l.2793.2109.4236-.5609h-.7029v.35zm-.0663 0v-.35h-.696l.415.5587.281-.2087zm.0166.0216l.2765-.2146-.0005-.0006-.276.2152zm.0085.011l.279-.2113-.0024-.0032-.2766.2145zm4.3767-.0326l.0013-.35h-.0013v.35zm-.0248 0v-.35h-.0013l.0013.35zm16.8136 0l.0013-.35h-.0013v.35zm-.0247 0v-.35h-.0013l.0013.35zm4.378.0309l-.2764-.2149-.0023.0032.2787.2117zm-.0094.0123l-.2791.2112.2786.3682.2793-.3677-.2788-.2117zm.0165-.0215l.2763.2148.0001-.0001-.2764-.2147zm.008-.0102l.2764.2147.0024-.0032-.2788-.2115zm.0087-.0115l.2789.2115.4257-.5615h-.7046v.35zm-.0663 0v-.35h-.7054l.4267.5617.2787-.2117zm.0095.0126l-.2787.2117.0023.003.2764-.2147zm.0161.0207l.2791-.2112-.0026-.0035-.2765.2147zm4.3761-.0333l.0013-.35h-.0013v.35zm-.0247 0v-.35h-.0013l.0013.35zm6.713-2.1484v.35h.35v-.35h-.35zm0-2.1434h.35v-.35h-.35v.35zm-47.6882 0v-.35h-.35v.35h.35zm0 2.1434h-.35v.35h.35v-.35zm6.7735-.0005l.0085-.35h-.0085v.35zm.0038.0001l.0162-.3497-.0077-.0002-.0085.3499zm.0025.0001l-.0162.3497.0045.0001.0117-.3498zm.0063.0003l-.0117.35h.0117v-.35zm25.477 0v.3502l.0129-.0005-.0129-.3497zm.0067-.0003l-.0112-.3498h-.0017l.0129.3498zm.0055-.0002v-.3501l-.0111.0003.0111.3498zM10.9138 44.144l.3239-.1328-.0007-.0017-.3232.1345zm-1.0494-.6618l-.019-.3495.019.3495zm.6386 1.9756l.1886.2949.0002-.0002-.1888-.2947zm-1.2345-.0504l.2118-.2786-.0001-.0001-.2117.2787zm-.3688-1.1808l-.3331-.1073v.0001l.333.1072zm8.6756.1532l.3452.0575v-.0002l-.3452-.0573zm.8497-.8782l-.069-.3432-.0007.0002.0697.343zm-.2967 2.0003l.1646-.3089-.0003-.0002-.1643.3091zm1.201-.1276l.2261.2671-.2261-.2671zm.3105-1.1976l-.3275.1236.0001.0002.3274-.1238zm16.7759-.0327l-.3232.1345.0001.0001.3231-.1346zm-1.0877-.6588l.0316.3486h.0001l-.0317-.3486zm.6844 1.968l.1914.293.0002-.0001-.1916-.2929zm-1.2144-.0248l.2027-.2854-.0002-.0001-.2025.2855zm-.4112-1.1518l-.3379-.0912.3379.0912zm8.6869.1209l.3463.051v-.0001l-.3463-.0509zm.8523-.8959l-.0691-.3431-.0017.0003.0708.3428zm-.3114 1.9919l.1701-.3059h-.0001l-.17.3059zm1.2299-.1305l-.2305-.2633h-.0001l.2306.2633zm.2962-1.1858l-.3278.1226.0001.0002.3277-.1228zm-2.3053-13.8218l-.324.1326.0009.002.3231-.1346zm-1.0457-.6613l.0185.3495h.0002l-.0187-.3495zm.6198 1.9844l-.1849-.2972-.0002.0001.1851.2971zm-1.2245-.0638l-.214.2769.0002.0002.2138-.2771zm-.3583-1.1938l-.3312-.1132v.0001l.3312.1131zm14.0991 6.2081h-1.9407v.7h1.9407v-.7zm1.4242 1.4243c0-.7867-.6376-1.4243-1.4242-1.4243v.7c.4 0 .7242.3242.7242.7243h.7zm-1.4242 1.4242c.7866 0 1.4242-.6376 1.4242-1.4242h-.7c0 .4-.3242.7242-.7242.7242v.7zm-1.9407 0h1.9407v-.7h-1.9407v.7zm.35.7217v-1.0717h-.7v1.0717h.7zm-1.4243 1.4242c.7862 0 1.4243-.6375 1.4243-1.4242h-.7a.7245.7245 0 0 1-.7243.7242v.7zm-3.4517 0h3.4517v-.7h-3.4517v.7zm1.4578 2.9318c0-1.312-.4403-2.5231-1.1793-3.4938l-.557.424c.6499.8537 1.0363 1.917 1.0363 3.0698h.7zm-5.7807 5.7807c3.1877 0 5.7807-2.593 5.7807-5.7807h-.7c0 2.8011-2.2796 5.0807-5.0807 5.0807v.7zm-4.6371-2.3329c1.0541 1.4138 2.7397 2.3329 4.6371 2.3329v-.7c-1.6661 0-3.1477-.8063-4.0759-2.0513l-.5612.4184zm-4.0754 2.3329c1.8969 0 3.583-.9191 4.6367-2.3329l-.5613-.4183c-.9278 1.2448-2.4098 2.0512-4.0754 2.0512v.7zm-5.7807-5.7807c0 3.1877 2.593 5.7807 5.7807 5.7807v-.7c-2.8011 0-5.0807-2.2796-5.0807-5.0807h-.7zm1.1793-3.4938c-.739.9707-1.1793 2.1818-1.1793 3.4938h.7c0-1.1528.3863-2.2161 1.0363-3.0698l-.557-.424zm-7.8646.562h8.1431v-.7h-8.1431v.7zm1.4574 2.9318c0-1.312-.4403-2.523-1.1789-3.4937l-.557.4238c.6495.8538 1.0359 1.9171 1.0359 3.0699h.7zm-5.7807 5.7807c3.1877 0 5.7807-2.593 5.7807-5.7807h-.7c0 2.8011-2.2796 5.0807-5.0807 5.0807v.7zm-4.6367-2.3329c1.0537 1.4138 2.7398 2.3329 4.6367 2.3329v-.7c-1.6657 0-3.1477-.8064-4.0754-2.0512l-.5613.4183zm-4.0758 2.3329c1.8973 0 3.5834-.9191 4.6371-2.3329l-.5613-.4183c-.9277 1.2448-2.4097 2.0512-4.0758 2.0512v.7zm-5.7803-5.7807c0 3.1877 2.5926 5.7807 5.7803 5.7807v-.7c-2.801 0-5.0803-2.2796-5.0803-5.0807h-.7zm1.1788-3.4937c-.7385.9707-1.1788 2.1817-1.1788 3.4937h.7c0-1.1528.3864-2.2161 1.036-3.0699l-.5572-.4238zm-3.2462.5619H5.599v-.7H2.0742v.7zM.65 40.1992c0 .7866.6376 1.4242 1.4242 1.4242v-.7a.7241.7241 0 0 1-.7242-.7242h-.7zm0-4.2919v4.2919h.7v-4.2919h-.7zm1.4242-1.4242c-.7866 0-1.4242.6376-1.4242 1.4242h.7c0-.4.3242-.7242.7242-.7242v-.7zm2.1237 0H2.0742v.7H4.198v-.7zM.65 27.943c0 2.8661 1.2922 5.4345 3.3214 7.1569l.453-.5336C2.5444 32.9704 1.35 30.594 1.35 27.943h-.7zm0-8.9773v8.9773h.7v-8.9773h-.7zm9.3885-9.3885C4.861 9.5772.65 13.7887.65 18.9657h.7c0-4.7905 3.8977-8.6885 8.6885-8.6885v-.7zm9.2027 0h-9.2027v.7h9.2027v-.7zm-.35-2.6817v3.0317h.7V6.8955h-.7zm1.4242-1.4243c-.7867 0-1.4242.6376-1.4242 1.4243h.7c0-.4.3241-.7243.7242-.7243v-.7zm.6302 0h-.6302v.7h.6302v-.7zm-.35-2.1899v2.54h.7v-2.54h-.7zm.7382-1.2483a1.425 1.425 0 0 0-.7382 1.2483h.7a.725.725 0 0 1 .3756-.635l-.3374-.6133zM26.6403.7652c-2.9627 0-5.1951 1.2067-5.3061 1.2676l.3366.6138c.0711-.039 2.18-1.1814 4.9695-1.1814v-.7zm5.256 1.2414c-.1092-.0543-2.5161-1.2414-5.256-1.2414v.7c2.5706 0 4.856 1.1243 4.944 1.168l.312-.6266zm.7882 1.2747a1.424 1.424 0 0 0-.788-1.2745l-.3125.6263a.7239.7239 0 0 1 .4005.6482h.7zm0 2.54v-2.54h-.7v2.54h.7zm.2802-.35h-.6302v.7h.6302v-.7zm1.4242 1.4242c0-.7867-.6375-1.4243-1.4242-1.4243v.7a.724.724 0 0 1 .7242.7243h.7zm0 3.0317V6.8955h-.7v3.0317h.7zm7.4545-.35h-7.8045v.7h7.8045v-.7zm9.3881 9.3885c0-5.177-4.2114-9.3885-9.3881-9.3885v.7c4.79 0 8.6881 3.898 8.6881 8.6885h.7zm0 8.9773v-8.9773h-.7v8.9773h.7zm-3.3214 7.1569c2.0287-1.7224 3.3214-4.2907 3.3214-7.1569h-.7c0 2.651-1.1948 5.0274-3.0744 6.6233l.453.5336zm4.0007-.6168h-4.2272v.7h4.2272v-.7zm1.4243 1.4242c0-.7867-.6381-1.4242-1.4243-1.4242v.7a.7245.7245 0 0 1 .7243.7242h.7zm0 1.0717v-1.0717h-.7v1.0717h.7zm-4.952-18.0133v8.9773h.7v-8.9773h-.7zm-5.5199-6.46c3.123.4911 5.5199 3.2016 5.5199 6.46h.7c0-3.6089-2.6536-6.6078-6.1111-7.1515l-.1088.6915zm.4044 13.6359V12.16h-.7v13.9816h.7zm-1.4242 1.4242c.7862 0 1.4242-.638 1.4242-1.4242h-.7a.7247.7247 0 0 1-.7242.7242v.7zm-1.4242-1.4242c0 .7861.6375 1.4242 1.4242 1.4242v-.7a.7243.7243 0 0 1-.7242-.7242h-.7zm0-14.066v14.066h.7v-14.066h-.7zm-29.3064.35h29.6564v-.7H11.1128v.7zm.35 22.4075V12.0756h-.7v22.7575h.7zm10.8009-.35H11.1128v.7h11.1509v-.7zm-.35-20.2783v20.6283h.7V14.2048h-.7zm1.4242-1.4243c-.7862 0-1.4242.6375-1.4242 1.4243h.7c0-.4.3245-.7243.7242-.7243v-.7zm1.4242 1.4243c0-.7867-.6376-1.4243-1.4242-1.4243v.7c.4 0 .7242.3242.7242.7243h.7zm0 2.1631v-2.1631h-.7v2.1631h.7zm4.1059-.35h-4.4559v.7h4.4559v-.7zm-.35-1.8131v2.1631h.7v-2.1631h-.7zm1.4242-1.4243c-.7861 0-1.4242.6375-1.4242 1.4243h.7c0-.4.3245-.7243.7242-.7243v-.7zm1.4242 1.4243c0-.7867-.6375-1.4243-1.4242-1.4243v.7a.7241.7241 0 0 1 .7242.7243h.7zm0 20.6283V14.2048h-.7v20.6283h.7zm10.477-.35h-10.827v.7h10.827v-.7zm6.5397-6.5401c0 3.6059-2.9342 6.5401-6.5397 6.5401v.7c3.9921 0 7.2397-3.2476 7.2397-7.2401h-.7zm-23.621 6.8901v-2.5227h-.7v2.5227h.7zm4.1059-.35h-4.4559v.7h4.4559v-.7zm-.35-2.1727v2.5227h.7v-2.5227h-.7zm-4.1059.35h4.4559v-.7h-4.4559v.7zm4.4559-7.4466h-4.4559v.7h4.4559v-.7zm-.35-2.0997v2.4497h.7v-2.4497h-.7zm-4.1059.35h4.4559v-.7h-4.4559v.7zm.35 2.0997v-2.4497h-.7v2.4497h.7zm-.35 2.4984h4.4559v-.7h-4.4559v.7zm.35 2.0997v-2.4497h-.7v2.4497h.7zm4.1059-.35h-4.4559v.7h4.4559v-.7zm-.35-2.0997v2.4497h.7v-2.4497h-.7zm.35-7.0966h-4.4559v.7h4.4559v-.7zm-.35-2.0993v2.4493h.7v-2.4493h-.7zm-4.1059.35h4.4559v-.7h-4.4559v.7zm.35 2.0993v-2.4493h-.7v2.4493h.7zm-1.537-16.67c.6808-.2748 1.9398-.682 3.4152-.682v-.7c-1.5971 0-2.949.439-3.6773.733l.2621.649zm.219 1.5256v-1.85h-.7v1.85h.7zm6.7419-.35h-7.0919v.7h7.0919v-.7zm-.35-1.4816v1.8316h.7V3.9896h-.7zm-3.1957-.376c1.3687 0 2.6864.4188 3.4194.7024l.2526-.6528c-.7659-.2963-2.1773-.7495-3.672-.7495v.7zm-5.2507 4.706h10.5009v-.7H21.3896v.7zm.35 1.6076V7.9697h-.7v1.9575h.7zm10.1509-.35H21.3896v.7h10.5009v-.7zm-.35-1.6075v1.9575h.7V7.9697h-.7zM3.4985 27.943v-8.9773h-.7v8.9773h.7zm5.5202 6.46c-3.1234-.4911-5.5203-3.2015-5.5203-6.46h-.7c0 3.609 2.6536 6.6078 6.1116 7.1515l.1087-.6915zM8.6143 12.16v22.5888h.7V12.16h-.7zm-5.1159 6.8057c0-3.2584 2.397-5.9689 5.5203-6.46l-.1087-.6915c-3.458.5437-6.1116 3.5425-6.1116 7.1515h.7zM9.922 47.487c-1.6161 0-2.9318-1.3153-2.9318-2.9318h-.7c0 2.0031 1.6291 3.6318 3.6318 3.6318v-.7zm2.9322-2.9318c0 1.6165-1.3156 2.9318-2.9322 2.9318v.7c2.003 0 3.6322-1.6286 3.6322-3.6318h-.7zm-2.921-2.9318c1.6113.006 2.921 1.3191 2.921 2.9318h.7c0-1.9985-1.6217-3.6244-3.6183-3.6318l-.0026.7zm-.0234 0h.0248v-.7h-.0248v.7zm-2.9196 2.9318c0-1.6127 1.3097-2.9258 2.921-2.9318l-.0027-.7c-1.9966.0074-3.6183 1.6333-3.6183 3.6318h.7zm7.0158-3.4585l-.0068.0089.5585.422.0067-.0089-.5584-.422zm.0124-.0161l-.0098.0127.5533.4288.0098-.0127-.5533-.4288zm.0102-.0132l-.0103.0133.5534.4286.0103-.0133-.5534-.4286zm.0037-.0049l-.0063.0083.5586.4219.0063-.0084-.5586-.4218zm.213.5609h.0663v-.7h-.0663v.7zm.2926-.5436a.9703.9703 0 0 1-.0116-.0151l-.562.4174c.0083.0111.0164.0214.0215.0281l.5521-.4304zm.0091.0117l-.0086-.0111-.553.4292.0085.011.5531-.4291zm.0104.0137l-.008-.0105-.5579.4227.008.0106.5579-.4228zm7.0093 3.45c0 1.6165-1.3156 2.9318-2.9322 2.9318v.7c2.003 0 3.6322-1.6286 3.6322-3.6318h-.7zm-2.9209-2.9318c1.6112.006 2.9209 1.3191 2.9209 2.9318h.7c0-1.9985-1.6217-3.6244-3.6183-3.6318l-.0026.7zm-.0235 0h.0248v-.7h-.0248v.7zm-2.9196 2.9318c0-1.6127 1.3097-2.9258 2.9209-2.9318l-.0026-.7c-1.9966.0074-3.6183 1.6333-3.6183 3.6318h.7zm2.9318 2.9318c-1.6165 0-2.9318-1.3153-2.9318-2.9318h-.7c0 2.0031 1.6287 3.6318 3.6318 3.6318v-.7zm16.7893 0c-1.6166 0-2.9323-1.3153-2.9323-2.9318h-.7c0 2.0032 1.6292 3.6318 3.6323 3.6318v-.7zm2.9318-2.9318c0 1.6165-1.3153 2.9318-2.9318 2.9318v.7c2.0031 0 3.6318-1.6287 3.6318-3.6318h-.7zm-2.921-2.9318c1.6113.006 2.921 1.3191 2.921 2.9318h.7c0-1.9985-1.6217-3.6244-3.6184-3.6318l-.0026.7zm-.0234 0h.0247v-.7h-.0247v.7zm-2.9197 2.9318c0-1.6127 1.3097-2.9258 2.921-2.9318l-.0026-.7c-1.9966.0074-3.6184 1.6333-3.6184 3.6318h.7zm7.019-3.4626l-.0094.0123.5575.4234.0093-.0124-.5574-.4233zm.0095-.0123l-.0071.0092.5526.4296.0071-.0092-.5526-.4296zm.0078-.0101l-.0079.0102.5528.4294.008-.0102-.5529-.4294zm.0063-.0083l-.0087.0115.5577.423.0088-.0115-.5578-.423zm.2126.5615h.0663v-.7h-.0663v.7zm.2883-.5491l-.0096-.0126-.5574.4234.0095.0126.5575-.4234zm.0138.0177l-.0161-.0206-.5529.4293.0161.0206.5529-.4293zm.0101.0134l-.0075-.0099-.5582.4224.0075.0099.5582-.4224zm7.0092 3.4498c0 1.6165-1.3153 2.9318-2.9318 2.9318v.7c2.0031 0 3.6318-1.6287 3.6318-3.6318h-.7zm-2.921-2.9318c1.6117.006 2.921 1.3191 2.921 2.9318h.7c0-1.9985-1.6213-3.6244-3.6184-3.6318l-.0026.7zm-.0234 0h.0247v-.7h-.0247v.7zm-2.9197 2.9318c0-1.6127 1.3097-2.9258 2.921-2.9318l-.0026-.7c-1.9966.0074-3.6184 1.6333-3.6184 3.6318h.7zm2.9323 2.9318c-1.6166 0-2.9323-1.3153-2.9323-2.9318h-.7c0 2.0032 1.6292 3.6318 3.6323 3.6318v-.7zm6.7004-8.712h-6.6883v.7h6.6883v-.7zm-.35-1.7934v2.1434h.7v-2.1434h-.7zm-47.3382.35h47.6882v-.7H3.1484v.7zm.35 1.7934v-2.1434h-.7v2.1434h.7zm6.4113-.35H3.1484v.7h6.7613v-.7zm.0122-.0005a.3233.3233 0 0 0-.0168.0004l-.007.0003.0016-.0001.01-.0001v.7a.3243.3243 0 0 0 .0164-.0004l.0078-.0003h-.001a.228.228 0 0 1-.011.0002v-.7zm.0122.0002l-.0037-.0001-.017.6998.0038.0001.017-.6998zm.0103.0004l-.0025-.0001-.0325.6993.0026.0001.0324-.6993zm.0018.0001l-.0063-.0003-.0234.6996.0063.0003.0234-.6996zm8.676-.0002H9.9345v.7h8.6877v-.7zm.0126-.0005c-.0068 0-.0124.0002-.0163.0003l-.0075.0004a.0442.0442 0 0 1 .0013-.0001l.0099-.0001v.7a.3212.3212 0 0 0 .0163-.0004l.0075-.0003a.0265.0265 0 0 1-.0012.0001l-.01.0001v-.7zm.0122.0005l.01.0001.0017.0001-.0071-.0003a.3243.3243 0 0 0-.0168-.0004v.7a.2293.2293 0 0 1-.011-.0002h-.001l.0078.0003a.3257.3257 0 0 0 .0164.0004v-.7zm16.7645 0H18.647v.7h16.7645v-.7zm-.0062-.0001l-.0066.0003.0257.6995.0066-.0002-.0257-.6996zm.0073-.0002l-.0056.0002.0223.6996.0055-.0001-.0222-.6997zm.0232.0003a.2392.2392 0 0 1 .0106.0002h.0018l-.0078-.0003a.3465.3465 0 0 0-.0167-.0004v.7a.2392.2392 0 0 1-.0106-.0002h-.0017l.0077.0003a.3465.3465 0 0 0 .0167.0004v-.7zm8.6878 0h-8.6878v.7h8.6878v-.7zm.0126-.0005c-.0068 0-.0124.0002-.0163.0003l-.0075.0004a.0265.0265 0 0 1 .0012-.0001l.01-.0001v.7a.3245.3245 0 0 0 .0163-.0004l.0075-.0003a.0442.0442 0 0 1-.0013.0001l-.0099.0001v-.7zm.0121.0005a.2392.2392 0 0 1 .0106.0002h.0018l-.0078-.0003a.3465.3465 0 0 0-.0167-.0004v.7a.2392.2392 0 0 1-.0106-.0002h-.0017l.0077.0003a.3465.3465 0 0 0 .0167.0004v-.7zM11.237 44.0095c-.2294-.5511-.7919-.9092-1.3915-.8768l.0378.699c.3009-.0162.591.167.7074.4467l.6463-.2689zm-.5452 1.743c.5777-.37.8037-1.1124.5459-1.7413l-.6477.2655c.1316.3211.0127.7016-.2757.8864l.3775.5894zm-1.635-.0664c.475.361 1.1316.3883 1.6348.0666l-.3771-.5898c-.2555.1634-.5925.1496-.8342-.0341l-.4235.5573zm-.4903-1.5667c-.1821.5659.0134 1.2047.4904 1.5668l.4232-.5575c-.2372-.1801-.3395-.5081-.2472-.7948l-.6664-.2145zm1.279-.9867c-.586.0319-1.0995.43-1.279.9866l.6663.2147c.0909-.2818.3553-.4863.6506-.5023l-.038-.699zm8.075 1.3044c.0487-.2928.2813-.5331.5741-.5925l-.1393-.686c-.5749.1167-1.0287.5823-1.1253 1.1639l.6905.1146zm.3721.7557c-.2679-.1424-.4222-.4548-.3721-.7555l-.6905-.115c-.0993.5965.1996 1.2046.7341 1.4886l.3285-.6181zm.8105-.0856c-.2237.1893-.5509.2239-.8102.0858l-.3291.6178c.5111.2722 1.1481.2061 1.5916-.1694l-.4523-.5342zm.2093-.8067c.1061.2807.0199.6127-.2093.8067l.4523.5342c.4548-.385.6229-1.0299.4118-1.5884l-.6548.2475zm-.8184-.4558c.3393-.0683.6954.1299.8183.4556l.6549-.2472c-.2429-.6435-.9326-1.0312-1.6112-.8947l.138.6863zm18.2448.1648c-.2361-.5674-.8261-.9288-1.4424-.8729l.0633.6972c.3085-.028.6131.1569.7328.4447l.6463-.269zm-.5348 1.7366c.5666-.3706.7957-1.1103.5348-1.7367l-.6462.2692c.131.3144.0135.6951-.2718.8817l.3832.5858zm-1.6086-.0323c.4754.3375 1.1184.3524 1.6084.0324l-.3827-.5861c-.2477.1618-.5782.1549-.8204-.0171l-.4053.5708zm-.5465-1.5284c-.1526.5655.0646 1.1866.5467 1.5285l.4049-.571c-.2396-.1699-.3531-.4888-.2758-.7751l-.6758-.1824zm1.2475-1.0488c-.5906.0536-1.0932.4772-1.2475 1.0488l.6758.1824c.0782-.2894.3368-.507.6349-.534l-.0632-.6972zm8.1236 1.3118c.0436-.2964.2781-.5424.5767-.604l-.1415-.6856c-.5801.1197-1.0404.5937-1.1278 1.1878l.6926.1018zm.3646.7392c-.2599-.1445-.408-.4442-.3646-.7391l-.6925-.102c-.0859.5829.2024 1.1669.7171 1.4529l.34-.6118zm.8293-.0879c-.2265.1984-.5659.2344-.8292.0879l-.3402.6118c.5214.29 1.1815.2202 1.6306-.1731l-.4612-.5266zm.1991-.7997c.1043.2785.0232.6051-.199.7997l.461.5267c.4441-.3888.5988-1.0239.3935-1.572l-.6555.2456zm-.818-.4553c.3401-.0684.6963.1298.8179.4551l.6557-.2452c-.2418-.6466-.9338-1.0325-1.6117-.8961l.1381.6862zm-.8357-13.6219c-.2261-.5524-.7936-.9101-1.3883-.8782l.0374.699c.2982-.016.5901.1685.7031.4444l.6478-.2652zm-.565 1.7529c.585-.3639.8304-1.1155.5642-1.7548l-.6462.2691c.1332.3199.0085.7071-.2877.8913l.3697.5944zm-1.6231-.0839c.4656.3593 1.1205.3969 1.6233.0837l-.3701-.5941c-.2517.1568-.5887.139-.8255-.0438l-.4277.5542zm-.4757-1.584c-.1944.5689-.0012 1.2155.4755 1.5838l.428-.5539c-.2391-.1847-.3389-.5175-.2411-.8037l-.6624-.2262zm1.2757-.9632c-.579.0306-1.0879.4137-1.2757.9631l.6624.2264c.095-.2781.3557-.4749.6503-.4905l-.037-.699z" fill="#94B91B"/></svg>