<svg width="66" height="43" viewBox="0 0 66 43" fill="none" xmlns="http://www.w3.org/2000/svg"><path d="M65.003 23.8956l-4.623-3.7864-5.548-9.746a.9384.9384 0 0 0-.0696-.1052c-.4151-.5449-1.0716-.8702-1.7562-.8702H41.1461c-1.0149 0-1.8412.8263-1.8412 1.8411v24.2607H17.1835a5.7763 5.7763 0 0 0-1.539-2.7473c-2.2676-2.2681-5.9572-2.2681-8.2253 0a5.7825 5.7825 0 0 0-1.539 2.7473H3.7345c-.464 0-.8416-.3776-.8416-.8421V3.403c0-.4645.3776-.842.8416-.842h42.2577c.0597 0 .113.0399.1308.0991l1.0928 3.6832c.1486.501.6752.7873 1.1762.6382.501-.149.7868-.6757.6382-1.1767l-1.0923-3.6817C47.6857 1.2662 46.8851.668 45.9922.668H3.7345C2.2265.668 1 1.895 1 3.403v31.2445c0 1.508 1.2266 2.7351 2.7345 2.7351H5.743c.118 1.3085.6767 2.5849 1.6762 3.5849 1.1338 1.1338 2.623 1.7005 4.1126 1.7005 1.4897 0 2.9789-.5667 4.1127-1.7005 1-1 1.5582-2.2764 1.6762-3.5849h32.0551c.1179 1.3085.6762 2.5849 1.6762 3.5849 1.1338 1.1338 2.623 1.7005 4.1126 1.7005 1.4897 0 2.9789-.5667 4.1127-1.7005 1-1 1.5583-2.2764 1.6767-3.5849h2.1916c1.4067 0 2.5514-1.1447 2.5514-2.5514v-9.4716a1.887 1.887 0 0 0-.694-1.464zM14.3063 39.6289c-1.5296 1.5297-4.0188 1.5297-5.5485 0-1.5296-1.5296-1.5296-4.0188 0-5.5485.741-.7409 1.7261-1.1491 2.774-1.1491s2.0332.4082 2.7745 1.1491c.7409.7409 1.1491 1.7266 1.1491 2.7745 0 1.0479-.4082 2.0331-1.1491 2.774zm43.6323 0c-1.5296 1.5297-4.0183 1.5297-5.5484 0-1.5297-1.5296-1.5297-4.0188 0-5.5485.765-.7646 1.7695-1.1471 2.7744-1.1471 1.0045 0 2.0095.3825 2.774 1.1471 1.5302 1.5297 1.5302 4.0189 0 5.5485zm5.8649-9.4647H61.729a.0365.0365 0 0 1-.0361-.0286l-.4575-1.9773a.031.031 0 0 1 .0069-.0311c.0113-.0144.0217-.0144.0286-.0144h2.5326v2.0514zm0-3.9438h-2.5321a1.9207 1.9207 0 0 0-1.5109.7285 1.9198 1.9198 0 0 0-.3692 1.6358l.4581 1.9778c.2033.8801.9763 1.4947 1.8796 1.4947h2.075v2.774a.6592.6592 0 0 1-.6584.6584h-2.3293a5.7763 5.7763 0 0 0-1.539-2.7473c-2.2676-2.2681-5.9572-2.2681-8.2253 0a5.7786 5.7786 0 0 0-1.539 2.7473h-8.3146V11.2808h11.8078a.318.318 0 0 1 .2231.0923l5.5929 9.8255a.9421.9421 0 0 0 .2226.2635l4.7587 3.8975v.8608z" fill="#fff"/><path d="M55.1646 33.8045c-.8149 0-1.5809.3174-2.157.8934-.5755.5755-.8924 1.3416-.8924 2.157 0 .8154.3169 1.5815.8924 2.1565.5761.5765 1.3421.8939 2.157.8939.815 0 1.581-.3174 2.1571-.8934.576-.576.8934-1.3421.8934-2.157s-.3174-1.5805-.8934-2.157c-.5766-.5765-1.3426-.8934-2.1571-.8934zm.8184 3.8688a1.1502 1.1502 0 0 1-.8184.3391 1.1493 1.1493 0 0 1-.8183-.3391 1.1493 1.1493 0 0 1-.3381-.8184c0-.31.1199-.6007.3381-.8189a1.1517 1.1517 0 0 1 .8183-.3386c.309 0 .5998.1205.8184.3386.2187.2187.3391.5094.3391.8189a1.15 1.15 0 0 1-.3391.8184zM11.5318 33.8045c-.8144 0-1.5805.3174-2.157.8934-.5755.5755-.8924 1.3416-.8924 2.157 0 .8154.3169 1.5815.8924 2.157.5765.576 1.3421.8934 2.157.8934.815 0 1.581-.3174 2.1566-.8934.5765-.576.8939-1.3421.8939-2.157s-.3174-1.581-.8935-2.157c-.576-.5765-1.342-.8934-2.157-.8934zm.8184 3.8688a1.1493 1.1493 0 0 1-.8184.3391 1.15 1.15 0 0 1-.8183-.3391 1.1494 1.1494 0 0 1-.3382-.8184c0-.31.12-.6007.3382-.8184a1.15 1.15 0 0 1 .8183-.3391c.3095 0 .5998.1205.8184.3386.2187.2187.3391.5094.3391.8189a1.15 1.15 0 0 1-.3391.8184zM52.5348 13.6569a1.2115 1.2115 0 0 0-1.0504-.6106h-7.8027c-.6664 0-1.2084.542-1.2084 1.2084v7.3348c0 .6663.542 1.2083 1.2084 1.2083h10.6187c.7201 0 1.3657-.3717 1.7281-.9941.3618-.6224.3652-1.3673.0088-1.9931l-3.5025-6.1537zm1.8574 7.1956c-.0306.0524-.075.0524-.0918.0524h-9.9346v-5.9661h6.7208l3.3061 5.8081c.0084.0143.0301.0528-.0005.1056z" fill="#fff"/><path d="M65.003 23.8956l-4.623-3.7864-5.548-9.746a.9384.9384 0 0 0-.0696-.1052c-.4151-.5449-1.0716-.8702-1.7562-.8702H41.1461c-1.0149 0-1.8412.8263-1.8412 1.8411v24.2607H17.1835a5.7763 5.7763 0 0 0-1.539-2.7473c-2.2676-2.2681-5.9572-2.2681-8.2253 0a5.7825 5.7825 0 0 0-1.539 2.7473H3.7345c-.464 0-.8416-.3776-.8416-.8421V3.403c0-.4645.3776-.842.8416-.842h42.2577c.0597 0 .113.0399.1308.0991l1.0928 3.6832c.1486.501.6752.7873 1.1762.6382.501-.149.7868-.6757.6382-1.1767l-1.0923-3.6817C47.6857 1.2662 46.8851.668 45.9922.668H3.7345C2.2265.668 1 1.895 1 3.403v31.2445c0 1.508 1.2266 2.7351 2.7345 2.7351H5.743c.118 1.3085.6767 2.5849 1.6762 3.5849 1.1338 1.1338 2.623 1.7005 4.1126 1.7005 1.4897 0 2.9789-.5667 4.1127-1.7005 1-1 1.5582-2.2764 1.6762-3.5849h32.0551c.1179 1.3085.6762 2.5849 1.6762 3.5849 1.1338 1.1338 2.623 1.7005 4.1126 1.7005 1.4897 0 2.9789-.5667 4.1127-1.7005 1-1 1.5583-2.2764 1.6767-3.5849h2.1916c1.4067 0 2.5514-1.1447 2.5514-2.5514v-9.4716a1.887 1.887 0 0 0-.694-1.464zM14.3063 39.6289c-1.5296 1.5297-4.0188 1.5297-5.5485 0-1.5296-1.5296-1.5296-4.0188 0-5.5485.741-.7409 1.7261-1.1491 2.774-1.1491s2.0332.4082 2.7745 1.1491c.7409.7409 1.1491 1.7266 1.1491 2.7745 0 1.0479-.4082 2.0331-1.1491 2.774zm43.6323 0c-1.5296 1.5297-4.0183 1.5297-5.5484 0-1.5297-1.5296-1.5297-4.0188 0-5.5485.765-.7646 1.7695-1.1471 2.7744-1.1471 1.0045 0 2.0095.3825 2.774 1.1471 1.5302 1.5297 1.5302 4.0189 0 5.5485zm5.8649-9.4647H61.729a.0365.0365 0 0 1-.0361-.0286l-.4575-1.9773a.031.031 0 0 1 .0069-.0311c.0113-.0144.0217-.0144.0286-.0144h2.5326v2.0514zm0-3.9438h-2.5321a1.9207 1.9207 0 0 0-1.5109.7285 1.9198 1.9198 0 0 0-.3692 1.6358l.4581 1.9778c.2033.8801.9763 1.4947 1.8796 1.4947h2.075v2.774a.6592.6592 0 0 1-.6584.6584h-2.3293a5.7763 5.7763 0 0 0-1.539-2.7473c-2.2676-2.2681-5.9572-2.2681-8.2253 0a5.7786 5.7786 0 0 0-1.539 2.7473h-8.3146V11.2808h11.8078a.318.318 0 0 1 .2231.0923l5.5929 9.8255a.9421.9421 0 0 0 .2226.2635l4.7587 3.8975v.8608z" stroke="#94B91B" stroke-width=".5"/><path d="M55.1646 33.8045c-.8149 0-1.5809.3174-2.157.8934-.5755.5755-.8924 1.3416-.8924 2.157 0 .8154.3169 1.5815.8924 2.1565.5761.5765 1.3421.8939 2.157.8939.815 0 1.581-.3174 2.1571-.8934.576-.576.8934-1.3421.8934-2.157s-.3174-1.5805-.8934-2.157c-.5766-.5765-1.3426-.8934-2.1571-.8934zm.8184 3.8688a1.1502 1.1502 0 0 1-.8184.3391 1.1493 1.1493 0 0 1-.8183-.3391 1.1493 1.1493 0 0 1-.3381-.8184c0-.31.1199-.6007.3381-.8189a1.1517 1.1517 0 0 1 .8183-.3386c.309 0 .5998.1205.8184.3386.2187.2187.3391.5094.3391.8189a1.15 1.15 0 0 1-.3391.8184zM11.5318 33.8045c-.8144 0-1.5805.3174-2.157.8934-.5755.5755-.8924 1.3416-.8924 2.157 0 .8154.3169 1.5815.8924 2.157.5765.576 1.3421.8934 2.157.8934.815 0 1.581-.3174 2.1566-.8934.5765-.576.8939-1.3421.8939-2.157s-.3174-1.581-.8935-2.157c-.576-.5765-1.342-.8934-2.157-.8934zm.8184 3.8688a1.1493 1.1493 0 0 1-.8184.3391 1.15 1.15 0 0 1-.8183-.3391 1.1494 1.1494 0 0 1-.3382-.8184c0-.31.12-.6007.3382-.8184a1.15 1.15 0 0 1 .8183-.3391c.3095 0 .5998.1205.8184.3386.2187.2187.3391.5094.3391.8189a1.15 1.15 0 0 1-.3391.8184zM52.5348 13.6569a1.2115 1.2115 0 0 0-1.0504-.6106h-7.8027c-.6664 0-1.2084.542-1.2084 1.2084v7.3348c0 .6663.542 1.2083 1.2084 1.2083h10.6187c.7201 0 1.3657-.3717 1.7281-.9941.3618-.6224.3652-1.3673.0088-1.9931l-3.5025-6.1537zm1.8574 7.1956c-.0306.0524-.075.0524-.0918.0524h-9.9346v-5.9661h6.7208l3.3061 5.8081c.0084.0143.0301.0528-.0005.1056z" stroke="#94B91B" stroke-width=".5"/></svg>