<svg width="45" height="45" viewBox="0 0 45 45" fill="none" xmlns="http://www.w3.org/2000/svg"><path fill-rule="evenodd" clip-rule="evenodd" d="M42.5401 16.522a8.0416 8.0416 0 0 0-2.5265-1.6574c-.6028-3.6792-2.3167-7.0192-4.9637-9.6662-6.9216-6.9214-18.1836-6.9214-25.105 0-2.1925 2.1924-3.764 4.9019-4.5734 7.8711-.5003-.0193-1.0032.1062-1.453.3755-.8028.4807-1.282 1.3263-1.282 2.262v6.937c-.62.2719-1.0546.8907-1.0546 1.6098v3.8757C.6948 28.2181 0 28.9685 0 29.8783v12.479c0 1.4537 1.1826 2.6365 2.6364 2.6365h8.0851c1.4537 0 2.6364-1.1827 2.6364-2.6365v-9.3824a17.5285 17.5285 0 0 0 6.5032 2.3347v4.4058h-.4245c-2.4259 0-4.3995 1.9737-4.3995 4.3996 0 .4853.3935.8788.8788.8788h13.1632a.8788.8788 0 0 0 .8788-.8788c0-2.4259-1.9736-4.3996-4.3995-4.3996h-.4242V35.309c2.4541-.3629 4.7858-1.2317 6.8819-2.5686v8.7813c0 1.9146 1.5576 3.4722 3.4722 3.4722h2.5925c1.9146 0 3.4722-1.5576 3.4722-3.4722V31.1711l2.6127-5.3021c1.5519-3.1497.8987-6.906-1.6256-9.347zm-38.146-.8149c0-.4495.2989-.677.4273-.754.1285-.077.4701-.2331.8664-.0206L8.5 16.4393c.286.1532.4637.45.4637.7745v5.2824H4.394v-6.7891zM3.3396 24.254h6.6789v3.8668h-6.679V24.254zm8.2607 18.1034c0 .4845-.3942.8788-.8788.8788h-8.085c-.4846 0-.8789-.3942-.8789-.8788v-12.479h9.8426v12.479h.0001zm13.9582-.8843c1.1488 0 2.1287.737 2.4916 1.7631H16.945c.3629-1.0261 1.3428-1.7631 2.4917-1.7631h6.1218zm-3.9398-1.7577v-4.2345a18.216 18.216 0 0 0 1.1139.0201c.2153-.0028.4297-.01.6438-.0204v4.2348h-1.7577zm-8.2609-8.8365v-1.0006c.0001-.9098-.6948-1.6602-1.5817-1.7488v-3.8756c0-.7191-.4346-1.3379-1.0546-1.6098v-5.4302c0-.9736-.5331-1.864-1.3912-2.3238l-2.2968-1.2306c.7183-2.7242 2.1473-5.2112 4.1543-7.2182 6.2362-6.2362 16.3832-6.236 22.6193 0 2.1907 2.1907 3.6725 4.9075 4.3202 7.9039a8.1387 8.1387 0 0 0-1.1843-.0868c-.4527 0-.8998.0397-1.3384.1129-.7093-2.7516-2.2891-5.2401-4.4979-7.0631-2.4151-1.9931-5.4725-3.0908-8.609-3.0908-2.3796 0-4.7201.6265-6.7687 1.8119a13.616 13.616 0 0 0-4.8427 4.7659.8789.8789 0 0 0 1.507.9045c2.1517-3.5846 5.9291-5.7248 10.1045-5.7248 1.1267 0 2.2238.1619 3.2668.465l-6.4855 6.4854a.8788.8788 0 1 0 1.2428 1.2428l7.0409-7.0408a11.8917 11.8917 0 0 1 3.044 2.0954l-11.292 11.292a.8789.8789 0 0 0 1.2427 1.2429l11.2328-11.2327c.9807 1.2547 1.7155 2.7175 2.1224 4.3223-.9442.3834-1.815.9476-2.5671 1.6749l-.0996.0965c-2.4573 2.3762-3.1459 6.0581-1.7136 9.1617l.4789 1.0379c-2.1096 1.7504-4.7576 2.7087-7.5139 2.7087-2.2737 0-4.4801-.6489-6.3806-1.8766a.8786.8786 0 0 0-1.215.2614c-.2634.4076-.1463.9516.2614 1.215 2.1853 1.4116 4.7215 2.1578 7.3343 2.1578 3.0116 0 5.9102-.9961 8.2724-2.8229l1.0545 2.285c-5.4436 3.9121-12.9586 3.9748-18.4666.1323zm26.4373 10.6428c0 .9454-.7692 1.7145-1.7146 1.7145H35.488c-.9454 0-1.7146-.7691-1.7146-1.7145v-5.5038h6.0216v5.5038h.0001zm0-7.2614h-6.0216v-2.4312h6.0216v2.4312zm2.7936-9.1682l-2.4537 4.9795h-.4508v-3.6092a.8789.8789 0 0 0-1.7577 0v3.6092h-4.4779l-2.3202-5.0278c-1.1197-2.4262-.5813-5.3043 1.3396-7.162l.0997-.0964c2.4533-2.3726 6.2972-2.3727 8.7508 0 1.9731 1.9082 2.4837 4.8445 1.2702 7.3067zm-24.4052-2.2027a.8878.8878 0 0 0-.6222-.2576.8853.8853 0 0 0-.6213.2576.8844.8844 0 0 0-.2567.6213c0 .231.0932.4578.2567.6212a.8869.8869 0 0 0 .6213.2576.8876.8876 0 0 0 .6222-.2576.8847.8847 0 0 0 .2566-.6212.8846.8846 0 0 0-.2566-.6213zm20.6221-.2576c.231 0 .4578.0941.6213.2576a.8854.8854 0 0 1 .2575.6213.8856.8856 0 0 1-.2575.6212.8855.8855 0 0 1-.6213.2576.8855.8855 0 0 1-.6213-.2576.8851.8851 0 0 1-.2575-.6212c0-.2311.094-.4579.2575-.6213a.8853.8853 0 0 1 .6213-.2576z" fill="#fff"/></svg>