<svg width="57" height="43" viewBox="0 0 57 43" fill="none" xmlns="http://www.w3.org/2000/svg"><path d="M22.0847 35.374c-.0025-2.2768-1.8479-4.1222-4.1251-4.1247-.1041 0-.2023.0231-.3042.0306 1.3624-2.3099.8602-5.266-1.1888-6.9964-2.0493-1.7305-5.0478-1.7305-7.0967 0-2.0494 1.7304-2.5512 4.6865-1.1888 6.9964-.1023-.0075-.2001-.0306-.3046-.0306-1.8265-.0122-3.4466 1.1711-3.9908 2.915-.5443 1.7439.115 3.6384 1.6242 4.6677 1.5094 1.0292 3.5138.9512 4.9384-.1922 1.4249-1.1434 1.9347-3.0837 1.2567-4.7801a5.3513 5.3513 0 0 0 2.4265 0 4.1211 4.1211 0 0 0 .9488 4.4633c1.1858 1.161 2.9523 1.4971 4.4822.8535a4.1222 4.1222 0 0 0 2.5222-3.8025zM7.8765 37.6659c-1.2655 0-2.2915-1.0264-2.2915-2.2919s1.026-2.2914 2.2915-2.2914c1.266 0 2.2919 1.0259 2.2919 2.2914-.0017 1.2651-1.0268 2.2902-2.2919 2.2919zm1.375-9.1667c0-2.025 1.6415-3.6665 3.6665-3.6665 2.025 0 3.667 1.6415 3.667 3.6665 0 2.025-1.642 3.6665-3.667 3.6665-2.0237-.0021-3.664-1.6423-3.6664-3.6665zm6.4166 6.8748c0-1.2655 1.026-2.2914 2.2915-2.2914 1.2659 0 2.2919 1.0259 2.2919 2.2914 0 1.2655-1.026 2.2919-2.2919 2.2919-1.2647-.0017-2.2898-1.0268-2.2915-2.2919zM34.001 29.8741a5.013 5.013 0 0 0 .2128 1.4426c-1.8131-.3315-3.6313.5547-4.4877 2.187-.8564 1.6322-.5518 3.6316.7515 4.9353 1.3033 1.3033 3.3031 1.608 4.9354.7516 1.6322-.8565 2.518-2.6746 2.1865-4.4877a4.9998 4.9998 0 0 0 2.8856 0c-.3314 1.8131.5543 3.6312 2.1866 4.4877 1.6327.8564 3.6321.5517 4.9354-.7516 1.3037-1.3037 1.6079-3.3031.7515-4.9353-.856-1.6323-2.6746-2.5185-4.4877-2.187a5.04 5.04 0 0 0-1.5164-5.2421 5.0399 5.0399 0 0 0-5.3999-.7893 5.0398 5.0398 0 0 0-2.9536 4.5888zm-.4586 7.7916c-1.2647-.0017-2.2898-1.0268-2.2915-2.2919 0-.6075.2413-1.1908.671-1.6205a2.293 2.293 0 0 1 1.6205-.6709c1.2659 0 2.2919 1.0259 2.2919 2.2914 0 1.2656-1.026 2.2919-2.2919 2.2919zm13.2913-2.2919c0 1.2656-1.0259 2.2919-2.2914 2.2919-1.2655 0-2.2919-1.0263-2.2919-2.2919 0-1.2655 1.0264-2.2914 2.2919-2.2914 1.2651.0017 2.2902 1.0268 2.2914 2.2914zm-4.5833-5.4997c0 1.772-1.4363 3.2083-3.2078 3.2083-1.772 0-3.2083-1.4363-3.2083-3.2083s1.4363-3.2083 3.2083-3.2083c1.7707.0021 3.2057 1.4372 3.2078 3.2083z" fill="#fff"/><path d="M54.1668 1h-7.333a1.827 1.827 0 0 0-1.5782.9168h-6.9364a2.7606 2.7606 0 0 0-1.6969.5858l-5.7696 4.52c-.0642.0495-.1166.1107-.1754.1657a.8906.8906 0 0 0-.3398.3206l-.1784.3105-.0012.0012-4.9245 8.5381-3.1487-.5471v-4.7285c1.0121-.0009 1.832-.8212 1.8333-1.8333V7.4166c-.0013-1.0121-.8212-1.8324-1.8333-1.8333v-.9168c0-1.5186-1.2311-2.7497-2.7501-2.7497-1.5185 0-2.7496 1.2311-2.7496 2.7497v.9168H9.2516c-1.0121.0009-1.832.8212-1.8333 1.8333v1.8332c.0013 1.0121.8212 1.8324 1.8333 1.8333v6.1677a13.88 13.88 0 0 0-8.158 7.3662.9133.9133 0 0 0 1.3302 1.1597l.4116 1.879v2.0691l-.9793 1.9092c-1.5807 2.9402-.9215 6.5819 1.589 8.7815H1.9186c-.506 0-.9169.4103-.9169.9168 0 .506.4108.9164.9169.9164h47.6652c.5061 0 .9165-.4104.9165-.9164 0-.5065-.4104-.9168-.9165-.9168h-.6021c2.8646-2.4849 3.2561-6.788.8871-9.7491l-4.2724-5.3114-.1473-.1892a8.1466 8.1466 0 0 0-2.2818-1.9646v-.642c.0008-1.7829-1.2844-3.3069-3.0422-3.6073l-2.685-.4666 3.5947-10.0717a.9053.9053 0 0 1 .3542-.0802h3.6115v1.8333c.0009 1.012.8212 1.8319 1.8333 1.8332h4.5833c2.5298-.0029 4.58-2.0535 4.5829-4.5833V2.8332c-.0008-1.012-.8212-1.832-1.8332-1.8332zM16.1129 11.0831l4.1386 5.7939v2.3464l-5.8094-8.1403h1.6708zm4.1386 2.6393l-1.8853-2.6393h1.8853v2.6393zm-1.8333-9.0559c0-.506.4104-.9164.9164-.9164.5065 0 .9169.4103.9169.9164v.9168h-1.8333v-.9168zm-9.1666 2.75h12.8331v1.8333H9.2516V7.4166zm1.8332 3.6666h1.1048l4.4155 6.1874a9.632 9.632 0 0 0-1.0121-.2895 12.0451 12.0451 0 0 0-4.5082-.1569v-5.741zM8.2642 40.4155c-2.9846.0088-5.4133-2.4002-5.4288-5.3852 0-.8875.2207-1.7607.6424-2.5416l3.33-6.487.1985-.3932a6.6891 6.6891 0 0 1 5.9118-3.5255 6.7726 6.7726 0 0 1 5.9415 3.5662l3.5092 6.8597a5.3143 5.3143 0 0 1 .6323 2.5214c-.0155 2.985-2.4442 5.394-5.4288 5.3852h-9.308zm16.5702-5.4998h1.8332v1.8333h-1.8332v-1.8333zm1.8332-1.8332h-1.8332v-1.8333h1.8332v1.8333zm0-3.6665h-1.8332v-1.8333h1.8332v1.8333zm-4.2762 10.9995a7.2633 7.2633 0 0 0 1.6113-2.0423c.2564.1356.5417.2069.8317.209h1.8332a1.8073 1.8073 0 0 0 .8229-.2039 7.2253 7.2253 0 0 0 1.6125 2.0372h-6.7116zm21.6172-14.1163l4.428 5.5119a5.2838 5.2838 0 0 1 1.1472 3.2712c-.0356 2.9758-2.4731 5.3613-5.4489 5.3332H33.9498c-2.9758.0281-5.4133-2.3574-5.4489-5.3332a5.282 5.282 0 0 1 1.1442-3.2675l4.4583-5.5547a6.371 6.371 0 0 1 4.9618-2.3443 6.3722 6.3722 0 0 1 4.9434 2.3834zm-2.6876-3.8847a8.2384 8.2384 0 0 0-2.2784-.3315 8.116 8.116 0 0 0-6.3688 3.0295l-4.1729 5.1985v-2.7283c-.0009-1.0121-.8212-1.8324-1.8333-1.8332h-1.8332c-1.0121.0008-1.832.8211-1.8333 1.8332v2.1379l-2.5193-4.9253a8.5589 8.5589 0 0 0-7.5407-4.546c-3.16-.0067-6.067 1.7279-7.5608 4.5128l-.9118 1.7783-.619-2.8206a.9657.9657 0 0 0-.0524-.1191c2.6796-3.9011 7.0456-5.8153 11.3914-4.8318 2.8827.6525 4.8746 2.8592 6.0797 4.6585l.0558.0835a.8778.8778 0 0 0 .5761.3701.8776.8776 0 0 0 .6667-.1553c.4154-.3004.5195-.8757.2359-1.3028l-.0538-.0794c-.214-.3193-.4372-.6214-.6642-.9151v-3.7559l2.1849.3793c-.9483 1.7636-.3051 3.9611 1.4434 4.9354 1.7489.9743 3.956.3647 4.9564-1.3696l1.2848-2.2251 7.8571 1.3658a1.8237 1.8237 0 0 1 1.5097 1.6562zm-8.3904-4.7134l3.0619-5.3022a.9076.9076 0 0 1 .2282-.263l2.1371-1.6747-2.7501 7.7052-2.6771-.4653zM41.389 6.4997a2.7623 2.7623 0 0 0-1.6956.5858l-4.6039 3.6073a2.7511 2.7511 0 0 0-.6852.7893l-5.3227 9.2191c-.5065.8774-1.6289 1.1783-2.5063.6714-.8774-.5065-1.1782-1.6285-.6714-2.5063l4.3316-7.5105c.0038-.0063.0092-.0109.0134-.0172l1.4984-2.6032a.9012.9012 0 0 1 .2312-.2656l5.7755-4.5242a.919.919 0 0 1 .5652-.1955h6.6813v2.7496H41.389zm12.7778.9169c-.0017 1.5181-1.2316 2.7484-2.7497 2.7501h-4.5833V2.8332h7.333v4.5834z" fill="#fff"/><path d="M22.0847 35.374c-.0025-2.2768-1.8479-4.1222-4.1251-4.1247-.1041 0-.2023.0231-.3042.0306 1.3624-2.3099.8602-5.266-1.1888-6.9964-2.0493-1.7305-5.0478-1.7305-7.0967 0-2.0494 1.7304-2.5512 4.6865-1.1888 6.9964-.1023-.0075-.2001-.0306-.3046-.0306-1.8265-.0122-3.4466 1.1711-3.9908 2.915-.5443 1.7439.115 3.6384 1.6242 4.6677 1.5094 1.0292 3.5138.9512 4.9384-.1922 1.4249-1.1434 1.9347-3.0837 1.2567-4.7801a5.3513 5.3513 0 0 0 2.4265 0 4.1211 4.1211 0 0 0 .9488 4.4633c1.1858 1.161 2.9523 1.4971 4.4822.8535a4.1222 4.1222 0 0 0 2.5222-3.8025zM7.8765 37.6659c-1.2655 0-2.2915-1.0264-2.2915-2.2919s1.026-2.2914 2.2915-2.2914c1.266 0 2.2919 1.0259 2.2919 2.2914-.0017 1.2651-1.0268 2.2902-2.2919 2.2919zm1.375-9.1667c0-2.025 1.6415-3.6665 3.6665-3.6665 2.025 0 3.667 1.6415 3.667 3.6665 0 2.025-1.642 3.6665-3.667 3.6665-2.0237-.0021-3.664-1.6423-3.6664-3.6665zm6.4166 6.8748c0-1.2655 1.026-2.2914 2.2915-2.2914 1.2659 0 2.2919 1.0259 2.2919 2.2914 0 1.2655-1.026 2.2919-2.2919 2.2919-1.2647-.0017-2.2898-1.0268-2.2915-2.2919zM34.001 29.8741a5.013 5.013 0 0 0 .2128 1.4426c-1.8131-.3315-3.6313.5547-4.4877 2.187-.8564 1.6322-.5518 3.6316.7515 4.9353 1.3033 1.3033 3.3031 1.608 4.9354.7516 1.6322-.8565 2.518-2.6746 2.1865-4.4877a4.9998 4.9998 0 0 0 2.8856 0c-.3314 1.8131.5543 3.6312 2.1866 4.4877 1.6327.8564 3.6321.5517 4.9354-.7516 1.3037-1.3037 1.6079-3.3031.7515-4.9353-.856-1.6323-2.6746-2.5185-4.4877-2.187a5.04 5.04 0 0 0-1.5164-5.2421 5.0399 5.0399 0 0 0-5.3999-.7893 5.0398 5.0398 0 0 0-2.9536 4.5888zm-.4586 7.7916c-1.2647-.0017-2.2898-1.0268-2.2915-2.2919 0-.6075.2413-1.1908.671-1.6205a2.293 2.293 0 0 1 1.6205-.6709c1.2659 0 2.2919 1.0259 2.2919 2.2914 0 1.2656-1.026 2.2919-2.2919 2.2919zm13.2913-2.2919c0 1.2656-1.0259 2.2919-2.2914 2.2919-1.2655 0-2.2919-1.0263-2.2919-2.2919 0-1.2655 1.0264-2.2914 2.2919-2.2914 1.2651.0017 2.2902 1.0268 2.2914 2.2914zm-4.5833-5.4997c0 1.772-1.4363 3.2083-3.2078 3.2083-1.772 0-3.2083-1.4363-3.2083-3.2083s1.4363-3.2083 3.2083-3.2083c1.7707.0021 3.2057 1.4372 3.2078 3.2083z" stroke="#94B91B" stroke-width=".5"/><path d="M54.1668 1h-7.333a1.827 1.827 0 0 0-1.5782.9168h-6.9364a2.7606 2.7606 0 0 0-1.6969.5858l-5.7696 4.52c-.0642.0495-.1166.1107-.1754.1657a.8906.8906 0 0 0-.3398.3206l-.1784.3105-.0012.0012-4.9245 8.5381-3.1487-.5471v-4.7285c1.0121-.0009 1.832-.8212 1.8333-1.8333V7.4166c-.0013-1.0121-.8212-1.8324-1.8333-1.8333v-.9168c0-1.5186-1.2311-2.7497-2.7501-2.7497-1.5185 0-2.7496 1.2311-2.7496 2.7497v.9168H9.2516c-1.0121.0009-1.832.8212-1.8333 1.8333v1.8332c.0013 1.0121.8212 1.8324 1.8333 1.8333v6.1677a13.88 13.88 0 0 0-8.158 7.3662.9133.9133 0 0 0 1.3302 1.1597l.4116 1.879v2.0691l-.9793 1.9092c-1.5807 2.9402-.9215 6.5819 1.589 8.7815H1.9186c-.506 0-.9169.4103-.9169.9168 0 .506.4108.9164.9169.9164h47.6652c.5061 0 .9165-.4104.9165-.9164 0-.5065-.4104-.9168-.9165-.9168h-.6021c2.8646-2.4849 3.2561-6.788.8871-9.7491l-4.2724-5.3114-.1473-.1892a8.1466 8.1466 0 0 0-2.2818-1.9646v-.642c.0008-1.7829-1.2844-3.3069-3.0422-3.6073l-2.685-.4666 3.5947-10.0717a.9053.9053 0 0 1 .3542-.0802h3.6115v1.8333c.0009 1.012.8212 1.8319 1.8333 1.8332h4.5833c2.5298-.0029 4.58-2.0535 4.5829-4.5833V2.8332c-.0008-1.012-.8212-1.832-1.8332-1.8332zM16.1129 11.0831l4.1386 5.7939v2.3464l-5.8094-8.1403h1.6708zm4.1386 2.6393l-1.8853-2.6393h1.8853v2.6393zm-1.8333-9.0559c0-.506.4104-.9164.9164-.9164.5065 0 .9169.4103.9169.9164v.9168h-1.8333v-.9168zm-9.1666 2.75h12.8331v1.8333H9.2516V7.4166zm1.8332 3.6666h1.1048l4.4155 6.1874a9.632 9.632 0 0 0-1.0121-.2895 12.0451 12.0451 0 0 0-4.5082-.1569v-5.741zM8.2642 40.4155c-2.9846.0088-5.4133-2.4002-5.4288-5.3852 0-.8875.2207-1.7607.6424-2.5416l3.33-6.487.1985-.3932a6.6891 6.6891 0 0 1 5.9118-3.5255 6.7726 6.7726 0 0 1 5.9415 3.5662l3.5092 6.8597a5.3143 5.3143 0 0 1 .6323 2.5214c-.0155 2.985-2.4442 5.394-5.4288 5.3852h-9.308zm16.5702-5.4998h1.8332v1.8333h-1.8332v-1.8333zm1.8332-1.8332h-1.8332v-1.8333h1.8332v1.8333zm0-3.6665h-1.8332v-1.8333h1.8332v1.8333zm-4.2762 10.9995a7.2633 7.2633 0 0 0 1.6113-2.0423c.2564.1356.5417.2069.8317.209h1.8332a1.8073 1.8073 0 0 0 .8229-.2039 7.2253 7.2253 0 0 0 1.6125 2.0372h-6.7116zm21.6172-14.1163l4.428 5.5119a5.2838 5.2838 0 0 1 1.1472 3.2712c-.0356 2.9758-2.4731 5.3613-5.4489 5.3332H33.9498c-2.9758.0281-5.4133-2.3574-5.4489-5.3332a5.282 5.282 0 0 1 1.1442-3.2675l4.4583-5.5547a6.371 6.371 0 0 1 4.9618-2.3443 6.3722 6.3722 0 0 1 4.9434 2.3834zm-2.6876-3.8847a8.2384 8.2384 0 0 0-2.2784-.3315 8.116 8.116 0 0 0-6.3688 3.0295l-4.1729 5.1985v-2.7283c-.0009-1.0121-.8212-1.8324-1.8333-1.8332h-1.8332c-1.0121.0008-1.832.8211-1.8333 1.8332v2.1379l-2.5193-4.9253a8.5589 8.5589 0 0 0-7.5407-4.546c-3.16-.0067-6.067 1.7279-7.5608 4.5128l-.9118 1.7783-.619-2.8206a.9657.9657 0 0 0-.0524-.1191c2.6796-3.9011 7.0456-5.8153 11.3914-4.8318 2.8827.6525 4.8746 2.8592 6.0797 4.6585l.0558.0835a.8778.8778 0 0 0 .5761.3701.8776.8776 0 0 0 .6667-.1553c.4154-.3004.5195-.8757.2359-1.3028l-.0538-.0794c-.214-.3193-.4372-.6214-.6642-.9151v-3.7559l2.1849.3793c-.9483 1.7636-.3051 3.9611 1.4434 4.9354 1.7489.9743 3.956.3647 4.9564-1.3696l1.2848-2.2251 7.8571 1.3658a1.8237 1.8237 0 0 1 1.5097 1.6562zm-8.3904-4.7134l3.0619-5.3022a.9076.9076 0 0 1 .2282-.263l2.1371-1.6747-2.7501 7.7052-2.6771-.4653zM41.389 6.4997a2.7623 2.7623 0 0 0-1.6956.5858l-4.6039 3.6073a2.7511 2.7511 0 0 0-.6852.7893l-5.3227 9.2191c-.5065.8774-1.6289 1.1783-2.5063.6714-.8774-.5065-1.1782-1.6285-.6714-2.5063l4.3316-7.5105c.0038-.0063.0092-.0109.0134-.0172l1.4984-2.6032a.9012.9012 0 0 1 .2312-.2656l5.7755-4.5242a.919.919 0 0 1 .5652-.1955h6.6813v2.7496H41.389zm12.7778.9169c-.0017 1.5181-1.2316 2.7484-2.7497 2.7501h-4.5833V2.8332h7.333v4.5834z" stroke="#94B91B" stroke-width=".5"/></svg>