<svg width="60" height="38" viewBox="0 0 60 38" fill="none" xmlns="http://www.w3.org/2000/svg"><path fill-rule="evenodd" clip-rule="evenodd" d="M13.142 1.4784c.051.0765.1019.153.1529.255l3.2628 10.9097c0 .3059 0 .6118-.204.9177-.2039.3059-.5098.4078-.8157.4078v.102H9.2165v21.3098h3.9764c.6118 0 1.0197.4078 1.0197 1.0196 0 .6118-.4079 1.0196-1.0197 1.0196H3.3027c-.6117 0-1.0196-.4078-1.0196-1.0196 0-.6118.4079-1.0196 1.0196-1.0196h3.9765V14.0706H5.24v2.3451c.6118.3059 1.0196 1.0196 1.0196 1.7333 0 1.1216-.9176 2.0392-2.0392 2.0392-1.1216 0-2.0392-.9176-2.0392-2.0392 0-.7137.4078-1.4274 1.0196-1.7333v-2.3451H1.0596c-.3059 0-.6118-.102-.8157-.4079C.04 13.3569-.062 13.051.04 12.7451L3.4047 1.7333c0-.2039.204-.4078.3059-.5098C4.7302.306 6.5655.102 7.9929 0h.7138c1.4274.102 3.2627.4078 4.2823 1.2235.051.102.102.1785.153.255zM5.138 2.7528l-2.7529 9.1765h11.7255l-2.7529-9.1765c-.5099-.204-1.6314-.5098-2.957-.5098H8.095c-1.2235 0-2.447.204-2.9569.5098zm52.204 21.4116h.5098c1.2235 0 2.2431 1.0196 2.1411 2.2431v5.6079c0 1.2235-1.0196 2.2431-2.2431 2.2431H57.24v2.0392c0 .6118-.4078 1.0196-1.0196 1.0196-.6118 0-1.0196-.4078-1.0196-1.0196v-2.0392H22.0635v2.0392c0 .6118-.4078 1.0196-1.0196 1.0196-.6118 0-1.0196-.4078-1.0196-1.0196v-2.0392h-.5098c-1.2235 0-2.2431-1.0196-2.2431-2.2431v-5.6079c0-1.2235 1.0196-2.2431 2.2431-2.2431h.5098v-5.4039c0-3.3647 2.0392-5.302 5.302-5.302h9.0745c1.9372 0 3.3647.6118 4.2823 1.8353.9177-1.1216 2.3451-1.8353 4.2824-1.8353H52.04c3.3647 0 5.302 2.0392 5.302 5.302v5.4039zm-14.3765-8.6666c-2.1412 0-3.2628 1.0196-3.2628 3.2628v5.4039h15.6v-5.4039c0-2.2432-1.1215-3.2628-3.2627-3.2628h-9.0745zm-17.6392 0c-2.2432 0-3.2628 1.1216-3.2628 3.2628v5.4039h15.6v-5.4039c0-2.2432-1.1215-3.2628-3.2627-3.2628h-9.0745zm32.5255 16.7216c.1019 0 .2039-.1019.2039-.2039v-5.6078c0-.102-.102-.204-.2039-.204H19.6165c-.102 0-.204.102-.204.204v5.6078c0 .102.102.2039.204.2039h38.2353zM25.9381 21.0041c.5631 0 1.0196-.4565 1.0196-1.0196 0-.5632-.4565-1.0197-1.0196-1.0197s-1.0196.4565-1.0196 1.0197c0 .5631.4565 1.0196 1.0196 1.0196zm8.9725-1.0196c0 .5631-.4565 1.0196-1.0197 1.0196-.5631 0-1.0196-.4565-1.0196-1.0196 0-.5632.4565-1.0197 1.0196-1.0197.5632 0 1.0197.4565 1.0197 1.0197zm8.5647 1.0196c.5631 0 1.0196-.4565 1.0196-1.0196 0-.5632-.4565-1.0197-1.0196-1.0197s-1.0196.4565-1.0196 1.0197c0 .5631.4565 1.0196 1.0196 1.0196zm9.0745-1.0196c0 .5631-.4565 1.0196-1.0196 1.0196s-1.0196-.4565-1.0196-1.0196c0-.5632.4565-1.0197 1.0196-1.0197s1.0196.4565 1.0196 1.0197z" fill="#fff"/></svg>