<svg width="45" height="45" viewBox="0 0 45 45" fill="none" xmlns="http://www.w3.org/2000/svg"><path fill-rule="evenodd" clip-rule="evenodd" d="M44.2649 29.248a.05.05 0 0 1-.0151.003h-3.6749l-1.3015 1.8749 1.3015 1.8752h3.6749c.0052 0 .0098.0014.0144.0027.0043.0013.0086.0026.0134.0028a1.773 1.773 0 0 1 .2912.0714.0544.0544 0 0 0 .013.0035c.005.0009.0101.0018.0148.0044a.7399.7399 0 0 1 .08.0645.7319.7319 0 0 1 .1243.1006c.0566.0759.1061.1576.1473.2431a.7255.7255 0 0 1 .0309.1528.731.731 0 0 1 .0209.104c0 .0053-.0015.0102-.0029.015a.052.052 0 0 0-.0029.0142 1.8088 1.8088 0 0 1-.0711.2894.0514.0514 0 0 0-.0039.014.053.053 0 0 1-.004.0138 6.2868 6.2868 0 0 1-5.3551 3.3993 6.2862 6.2862 0 0 1-5.5907-2.9955h-2.5179l.6437 7.2259a2.9792 2.9792 0 0 1-.7653 2.2755 3.0742 3.0742 0 0 1-2.2704.9984h-13.119a3.0741 3.0741 0 0 1-2.2704-.998 2.979 2.979 0 0 1-.7643-2.28l.6427-7.2218h-2.5179a6.2862 6.2862 0 0 1-5.5907 2.9955 6.2858 6.2858 0 0 1-5.3548-3.3993.0475.0475 0 0 1-.0043-.0143.0535.0535 0 0 0-.0039-.0135.7282.7282 0 0 1-.0419-.1456.7313.7313 0 0 1-.0292-.1438c-.0001-.005-.0015-.0096-.0029-.0142A.0512.0512 0 0 1 0 33.7509a.7122.7122 0 0 1 .021-.1037.7304.7304 0 0 1 .0308-.1531.705.705 0 0 1 .0684-.1256.7109.7109 0 0 1 .079-.1178.7226.7226 0 0 1 .1242-.0999.666.666 0 0 1 .0803-.0649.0443.0443 0 0 1 .0146-.0044c.0043-.0008.0087-.0016.013-.0035a.7268.7268 0 0 1 .1441-.0419.739.739 0 0 1 .1466-.0295.056.056 0 0 0 .0137-.0028c.0046-.0013.0093-.0027.0145-.0027H4.425l1.3015-1.8752-1.3015-1.8749H.75a.0522.0522 0 0 1-.0158-.0032c-.0044-.0013-.0089-.0027-.0137-.003a.7846.7846 0 0 1-.1424-.0288.7606.7606 0 0 1-.147-.0423c-.0043-.0021-.0088-.003-.0134-.0039a.0442.0442 0 0 1-.014-.0043.6938.6938 0 0 1-.0804-.0646.7389.7389 0 0 1-.1243-.1002.6953.6953 0 0 1-.079-.1174.706.706 0 0 1-.0683-.1253.73.73 0 0 1-.0309-.1532.703.703 0 0 1-.0209-.104c0-.0053.0015-.0101.003-.015.0013-.0046.0027-.0092.0028-.0142a.7328.7328 0 0 1 .0292-.1438.7437.7437 0 0 1 .0419-.1456c.0022-.0043.003-.0089.004-.0135.0008-.0048.0018-.0097.0042-.0143A6.2869 6.2869 0 0 1 5.44 24.7552a6.2856 6.2856 0 0 1 5.5907 2.9958h3.1188l.6008-6.7501h-3.138a5.6291 5.6291 0 0 1-4.7114 2.2461 5.629 5.629 0 0 1-4.5315-2.5897c-.0067-.0103-.01-.0214-.0132-.0325-.0027-.009-.0054-.018-.0098-.0266a.8578.8578 0 0 1-.0838-.286c-.001-.0094-.0035-.0183-.006-.0272a.1212.1212 0 0 1-.0064-.0342.7005.7005 0 0 1 .0148-.0749.7264.7264 0 0 1 .274-.5019.1936.1936 0 0 0 .0233-.0238.1503.1503 0 0 1 .0313-.0294c.01-.0067.021-.0099.032-.0132.009-.0027.0179-.0054.0263-.0098a.8588.8588 0 0 1 .2888-.0848c.0093-.0008.0182-.0034.027-.0059A.1134.1134 0 0 1 3 19.501h2.7005l1.568-1.8907-1.5687-1.8962h-2.67a.1132.1132 0 0 1-.033-.0063c-.009-.0026-.0179-.0053-.0274-.0061a.8527.8527 0 0 1-.288-.0848.1502.1502 0 0 0-.0265-.0098c-.011-.0033-.022-.0065-.0323-.0132-.0125-.0081-.0218-.0188-.0311-.0295a.1889.1889 0 0 0-.0234-.024.7255.7255 0 0 1-.2733-.502.6987.6987 0 0 1-.0148-.0748.1183.1183 0 0 1 .0063-.0335c.0026-.0092.0053-.0184.006-.0283a.8575.8575 0 0 1 .0845-.2867.1369.1369 0 0 0 .0103-.027.1168.1168 0 0 1 .013-.0317 5.624 5.624 0 0 1 9.2128-.3055h3.7377l.6009-6.7501h-2.0727a5.24 5.24 0 0 1-9.2783.3742.7494.7494 0 0 1 .6496-1.124h2.8997l.8751-1.5-.8751-1.5H5.2501a.7509.7509 0 0 1-.6492-.3749.7494.7494 0 0 1-.0004-.7495A5.2398 5.2398 0 0 1 8.9192.0057a5.2406 5.2406 0 0 1 4.526 2.2454h3.2688a3.0304 3.0304 0 0 1 2.6302-1.5h6.312a3.0318 3.0318 0 0 1 2.6305 1.5h3.2684a5.24 5.24 0 0 1 8.8447.3755.7501.7501 0 0 1-.6499 1.1244h-2.8997l-.8751 1.5.8751 1.5h2.8997a.7498.7498 0 0 1 .6499 1.124 5.2401 5.2401 0 0 1-9.2786-.3742h-2.073l.6008 6.7501h3.7381a5.6245 5.6245 0 0 1 9.2127.3048.1155.1155 0 0 1 .0131.0321.143.143 0 0 0 .0103.0273.8612.8612 0 0 1 .0844.2864c.0008.0099.0035.0191.0061.0282a.1176.1176 0 0 1 .0063.0336.7178.7178 0 0 1-.0151.0748.7263.7263 0 0 1-.2743.5026c-.0088.0071-.0159.0154-.023.0236-.0091.0105-.0182.021-.0306.029a.1204.1204 0 0 1-.0306.0123.1366.1366 0 0 0-.0267.01.8584.8584 0 0 1-.2881.0855.1333.1333 0 0 0-.0283.0061c-.0108.0031-.0214.0062-.0331.0062h-2.6676l-1.5711 1.8969 1.5711 1.8907H42c.0123 0 .0235.0032.0347.0064a.1521.1521 0 0 0 .0282.0063.8668.8668 0 0 1 .286.0844c.0085.0045.0175.0072.0263.0099a.1174.1174 0 0 1 .0313.0128c.0125.008.0217.0185.031.029a.183.183 0 0 0 .0236.0238.726.726 0 0 1 .274.5023.7132.7132 0 0 1 .0148.0749.119.119 0 0 1-.0064.0338c-.0026.0092-.0052.0183-.006.028a.8582.8582 0 0 1-.0851.2873c-.0043.0084-.0069.0173-.0095.0261-.0032.0109-.0064.0219-.0129.032a5.6301 5.6301 0 0 1-4.5315 2.5893 5.6302 5.6302 0 0 1-4.7114-2.2464h-3.1373l.6008 6.7501h3.1188a6.2856 6.2856 0 0 1 5.5907-2.9958 6.2879 6.2879 0 0 1 5.3551 3.3992.0498.0498 0 0 1 .0039.0139c.0009.0047.0018.0095.004.0139.0316.0944.0553.1912.0711.2894.0003.0103.0058.0189.0058.0292a.7093.7093 0 0 1-.0209.104.7292.7292 0 0 1-.0309.1532 1.4995 1.4995 0 0 1-.1473.243.74.74 0 0 1-.1243.1003.728.728 0 0 1-.08.0645c-.0046.0025-.0095.0034-.0143.0044a.0464.0464 0 0 0-.0135.0039 1.814 1.814 0 0 1-.2901.071c-.0048.0002-.0093.0016-.0138.0029zm-4.0628-15.0346a4.1207 4.1207 0 0 0-2.3192-.7124v-.0003c-1.7811-.0024-3.3632 1.1381-3.9235 2.829-.5603 1.6912.0275 3.5506 1.4581 4.6122 1.4306 1.0615 3.3807 1.0852 4.8367.059h-1.3039a.752.752 0 0 1-.5775-.2705l-2.1938-2.6402a.75.75 0 0 1 0-.9578l2.1938-2.6477a.748.748 0 0 1 .5775-.2713h1.2518zm-7.6235 5.2876a5.5147 5.5147 0 0 1 0-3.7502h-2.796l.3337 3.7502h2.4623zm5.5244-17.25a3.746 3.746 0 0 0-2.2453-.7501c-1.6312-.0004-3.0752 1.0533-3.572 2.6068-.4968 1.5532.0677 3.2496 1.396 4.1958 1.3283.9458 3.116.9249 4.4213-.0525H36.42a.7518.7518 0 0 1-.6482-.3722L34.4593 5.629a.7533.7533 0 0 1 0-.756l1.3125-2.2501a.7515.7515 0 0 1 .6482-.3718h1.683zm-9.1884 3.7498h1.753a5.0316 5.0316 0 0 1 .1607-2.2498h-2.1138l.2001 2.2498zM6.897 8.251a3.7457 3.7457 0 0 0 2.2453.7498 3.7487 3.7487 0 0 0 2.1764-6.8023c-1.3284-.9462-3.116-.9249-4.4213.0526H8.58a.7513.7513 0 0 1 .6482.3718l1.3125 2.2501a.7533.7533 0 0 1 0 .756L9.2282 7.8788a.7517.7517 0 0 1-.6482.3722H6.897zm7.2743-4.5a5.0303 5.0303 0 0 1 .1611 2.2498h1.7523l.2001-2.2498h-2.1135zM4.7443 21.001a4.123 4.123 0 0 0 2.3731.7502c1.7747.0031 3.3529-1.1282 3.9197-2.8098.5669-1.6816-.0044-3.5376-1.419-4.6091-1.4144-1.0718-3.3556-1.1195-4.8212-.1188h1.2555a.7489.7489 0 0 1 .5782.2723l2.19 2.6474a.75.75 0 0 1-.0006.9568l-2.19 2.6402a.7489.7489 0 0 1-.5776.2708h-1.308zm7.7023-1.5691a.6128.6128 0 0 1-.0183.0692h2.4554l.3337-3.7502h-2.7895c.0083.0233.0136.0474.0189.0714a.6905.6905 0 0 0 .0158.0622c.0611.1912.1116.3855.1518.5819.0068.0318.0143.0633.0217.0948.0142.0602.0284.1203.0383.1816a5.2087 5.2087 0 0 1 0 1.7667 2.4271 2.4271 0 0 1-.0365.1743 4.1676 4.1676 0 0 0-.0225.099 5.6499 5.6499 0 0 1-.1528.5868c-.0067.0203-.0113.0413-.016.0623zm-10.25 15.0693a4.7746 4.7746 0 0 0 3.4761 1.4999 4.824 4.824 0 0 0 4.2318-2.5337.1168.1168 0 0 1 .0094-.0172c.003-.0049.006-.0097.0085-.015a4.9048 4.9048 0 0 0 0-4.6181c-.0024-.0053-.0054-.0101-.0085-.015a.113.113 0 0 1-.0094-.0173 4.8227 4.8227 0 0 0-4.2318-2.5337 4.772 4.772 0 0 0-3.4761 1.5h2.6212a.7487.7487 0 0 1 .616.322l1.8216 2.6251a.7497.7497 0 0 1 0 .8552l-1.8216 2.625a.749.749 0 0 1-.616.3228H2.1966zM11.72 29.251a6.4155 6.4155 0 0 1 0 3.7501h1.9621l.3337-3.7501H11.72zm17.3395 14.2499a1.5707 1.5707 0 0 0 1.1608-.5077 1.4583 1.4583 0 0 0 .3807-1.1289l-3.405-38.254a1.4695 1.4695 0 0 0-.0677-.3142l-.0031-.0075a1.5317 1.5317 0 0 0-1.469-1.0375h-6.312a1.5323 1.5323 0 0 0-1.4701 1.0395l-.0014.0038a1.4755 1.4755 0 0 0-.0697.3196l-3.4037 38.2465a1.4576 1.4576 0 0 0 .3804 1.1327 1.5707 1.5707 0 0 0 1.1608.5077h13.119zm1.9247-14.2499l.3337 3.7501H33.28a6.4204 6.4204 0 0 1 0-3.7501h-2.2958zm6.7604 1.4474l1.8216-2.625a.7496.7496 0 0 1 .616-.3224h2.6212a4.7719 4.7719 0 0 0-3.4761-1.5 4.823 4.823 0 0 0-4.2318 2.5341.1157.1157 0 0 1-.0097.0176c-.003.0048-.006.0096-.0085.015a4.9052 4.9052 0 0 0 0 4.6174.1455.1455 0 0 0 .0085.015.1157.1157 0 0 1 .0097.0176 4.8234 4.8234 0 0 0 4.2318 2.5337 4.7734 4.7734 0 0 0 3.4761-1.5h-2.6212a.7496.7496 0 0 1-.616-.3224l-1.8216-2.625a.7501.7501 0 0 1 0-.8556zM19.98 3.7504h5.04a.75.75 0 0 1 .7471.6836l3.2626 36.7499a.7503.7503 0 0 1-.7471.8164H16.7174a.7505.7505 0 0 1-.7471-.8164l3.2626-36.75a.75.75 0 0 1 .7471-.6835zm.686 1.5l-3.1287 35.2499h9.9258l-3.1291-35.25h-3.668z" fill="#fff"/></svg>