<svg width="46" height="46" viewBox="0 0 46 46" fill="none" xmlns="http://www.w3.org/2000/svg"><path fill-rule="evenodd" clip-rule="evenodd" d="M.15 1.3822c0-.4042.3278-.732.732-.732h43.5357a.7326.7326 0 0 1 .7323.7322V4.492c0 1.8729-1.5247 3.3975-3.3976 3.3975H30.49v6.3758a.7321.7321 0 0 1-.7321.7321h-2.8218v25.9223a.7328.7328 0 0 1-.1851.4865l-3.5538 3.998a.732.732 0 0 1-1.0944 0l-3.554-3.9982a.7323.7323 0 0 1-.185-.4863V14.9974h-2.8217a.7321.7321 0 0 1-.7321-.7321V7.8895H3.5476C1.6746 7.8895.15 6.3648.15 4.492V1.3822zm43.5356.7321H1.6143V4.492c0 1.0666.8667 1.9333 1.9333 1.9333h38.2047c1.0666 0 1.9333-.8667 1.9333-1.9333V2.1143zm-14.66 5.7752H16.2741v5.6436h12.7515V7.8895zm-3.5539 7.1079H19.828v3.8666h5.6437v-3.8666zm0 5.3309H19.828v5.191l5.6437-2.8217v-2.3693zm-14.0013 3.0505a.732.732 0 0 1 1.0353 0l2.5055 2.5055.1599.1599a.7307.7307 0 0 1 .2108.5909.73.73 0 0 1-.2109.4446.7272.7272 0 0 1-.5175.2143.7282.7282 0 0 1-.5177-.2144l-2.6654-2.6654a.732.732 0 0 1 0-1.0354zm21.3235 0a.732.732 0 0 1 1.0354 0 .732.732 0 0 1 0 1.0353l-2.6655 2.6655a.7272.7272 0 0 1-.5175.2143.728.728 0 0 1-.5178-.2143.7322.7322 0 0 1 0-1.0354l2.6654-2.6654zm-7.3222 5.5381v-4.5823l-5.6437 2.8218v4.5823l5.6437-2.8218zm0 6.2195v-4.5823l-5.6437 2.8217v4.5824l5.6437-2.8218zm0 5.5049l.0001-3.8679-5.6437 2.8218v1.0461l2.8218 3.1746 2.8218-3.1746zM.15 39.1429a.7323.7323 0 0 1 .732-.7322h13.7716a.732.732 0 0 1 .7321.7321v3.1876l1.8678 2.1013a.732.732 0 1 1-.5473 1.2184H.8821A.7322.7322 0 0 1 .15 44.918v-5.7751zm30.4962-.7322h13.7715a.732.732 0 0 1 .7321.7322v5.7751a.7321.7321 0 0 1-.7321.7321h-15.824a.7322.7322 0 0 1-.5472-1.2185l1.8676-2.1012v-3.1876a.7321.7321 0 0 1 .7321-.7321zm13.0394 1.4642H31.3784v2.7339a.7331.7331 0 0 1-.1851.4865l-.9695 1.0905h13.4618v-4.3109zm-29.7642 0H1.6142v4.311H15.076l-.9696-1.0907a.7318.7318 0 0 1-.185-.4864v-2.7339z" fill="#fff"/></svg>