<svg width="57" height="57" viewBox="0 0 57 57" fill="none" xmlns="http://www.w3.org/2000/svg"><path d="M54.6665 28.8563c-.2376-.1278-.3912-.4231-.3912-.7523V15.7596l1.0583-1.1339a2.4593 2.4593 0 0 0 .2493-3.0534 2.4761 2.4761 0 0 0-1.6584-1.0672 2.4758 2.4758 0 0 0-1.9107.4881L38.2903 21.667h-7.2084a.8056.8056 0 0 0-.8056.8056v4.3608H24.999v-3.4997a.8056.8056 0 0 0-.8056-.8057H23.17L20.6937 5.1938v-3.387a.8056.8056 0 0 0-.8056-.8056h-3.4442a.8056.8056 0 0 0-.8056.8056v3.387l-2.4764 17.3341h-1.0234a.8056.8056 0 0 0-.8056.8056v3.4998H6.9721a.8056.8056 0 0 0-.8057.8056v2.6386H5.25a.8057.8057 0 0 0 0 1.6113h.9164v2.6941H1.8056a.8056.8056 0 0 0 0 1.6113h.9165v2.6386c0 .4449.3607.8056.8056.8056h4.3609v1.8331H6.972a.8056.8056 0 0 0-.8057.8056V54.382c-.8257-.03-1.2622-.1909-1.7584-.3748-.6078-.2253-1.2966-.4808-2.6024-.4808a.8057.8057 0 0 0 0 1.6113c1.0166 0 1.492.1763 2.0422.3803.6078.2253 1.2967.4807 2.6024.4807 1.3062 0 1.9954-.2553 2.6035-.4807.5506-.2041 1.0263-.3804 2.0435-.3804 1.0178 0 1.4936.1763 2.0446.3804.6083.2253 1.2977.4806 2.6043.4806 1.3066 0 1.9961-.2553 2.6043-.4806.551-.2041 1.0268-.3804 2.0446-.3804s1.4936.1763 2.0446.3804c.6083.2253 1.2977.4806 2.6044.4806 1.307 0 1.9965-.2553 2.6049-.4806.5511-.2041 1.0272-.3804 2.0453-.3804 1.0175 0 1.4931.1763 2.0439.3804.6081.2253 1.2974.4806 2.6038.4806 1.3073 0 1.997-.2553 2.6055-.4806.5514-.2041 1.0276-.3805 2.0462-.3805 1.0195 0 1.4961.1764 2.0479.3805.6089.2252 1.299.4805 2.607.4805 1.3081 0 1.9982-.2553 2.6071-.4805.5519-.2041 1.0285-.3805 2.0479-.3805a.8056.8056 0 1 0 0-1.6113c-1.3081 0-1.9982.2554-2.6071.4806-.4956.1834-.9318.3439-1.7538.3747V42.2772a.8056.8056 0 0 0-.8056-.8056h-.9166v-1.8331h4.3608a.8056.8056 0 0 0 .8057-.8056v-2.6387h.9165a.8056.8056 0 0 0 0-1.6113h-4.3609v-7.7544l8.7216-9.3426V28.104c0 .928.4746 1.7599 1.2388 2.1711a.9167.9167 0 0 1 .4834.8081c0 .5053-.4112.9164-.9165.9164s-.9165-.4112-.9165-.9164a.8056.8056 0 1 0-1.6112 0c0 1.3938 1.134 2.5277 2.5277 2.5277s2.5277-1.1339 2.5277-2.5276c0-.9318-.51-1.785-1.331-2.227zM20.6339 16.169l.637 4.4588-2.0785-2.6328 1.4415-1.826zm.0843 6.359h-5.1044l2.5522-3.2328 2.5522 3.2328zm-4.1119-7.8088l1.5597-2.0049 1.5597 2.0049-1.5597 1.9756-1.5597-1.9756zm3.5191-2.1103l-.9387-1.2067.6474-.8323.2913 2.039zm-2.876-9.9964h1.833v1.833h-1.833v-1.833zm-.1069 3.4443h2.0469l.328 2.296-1.3514 1.7373-1.3514-1.7373.3279-2.296zm-.6447 4.5131l.6474.8323-.9387 1.2067.2913-2.039zm-.7998 5.599l1.4415 1.826-2.0785 2.6328.637-4.4588zm-2.754 7.9704h10.4438v2.6941H12.944v-2.6941zm-5.1663 4.3053h22.4987v1.8329H7.7777v-1.8329zm4.3148 3.4443h3.5362l-1.7681 2.2101-1.7681-2.2101zm.0919 2.694H8.6482l1.7681-2.2101 1.7681 2.2101zm5.1205-2.21l1.7681 2.2101h-3.5361l1.768-2.2101zm1.6762-.484h3.5361l-1.768 2.2101-1.7681-2.2101zm5.2123.484l1.7681 2.2101h-3.5362l1.7681-2.2101zm1.6762-.484h3.5362l-1.7681 2.2101-1.7681-2.2101zm4.4067 1.4909v1.2031h-.9625l.9625-1.2031zM7.7777 31.8889H8.74l-.9624 1.2031v-1.2031zm25.9429 22.4722c-.6174-.0563-.9983-.1967-1.4227-.354-.6081-.2253-1.2974-.4807-2.6038-.4807-1.3069 0-1.9965.2554-2.6049.4807-.5511.2041-1.0272.3804-2.0453.3804-1.0179 0-1.4937-.1763-2.0447-.3804-.6082-.2253-1.2977-.4807-2.6043-.4807-1.3066 0-1.9961.2554-2.6043.4807-.4198.1556-.7967.2947-1.4022.3521v-4.3327a.8057.8057 0 0 0-1.6113 0v4.291c-.4258-.07-.7368-.1848-1.0757-.3104-.6083-.2253-1.2977-.4807-2.6043-.4807-1.3062 0-1.9954.2554-2.6035.4808-.2362.0876-.4588.1699-.716.2354V43.0828h6.9995v3.4999a.8056.8056 0 0 0 1.6113 0v-.5275l6.4165-6.4167h4.4991l6.4165 6.4167v8.3059h.0001zM9.4998 41.4716v-1.8331h3.5552v1.8331H9.4998zm6.0829 0h-.9166v-1.8331h5.8602l-4.1379 4.138v-1.4993a.8057.8057 0 0 0-.8057-.8056zm18.1379.8056v1.4993l-4.1379-4.138h5.8601v1.8331h-.9164a.8057.8057 0 0 0-.8058.8056zm8.6107.8056v11.1633c-.2635-.0661-.49-.1499-.7308-.239-.6088-.2252-1.299-.4806-2.607-.4806-1.3073 0-1.997.2554-2.6056.4807-.3336.1236-.6405.2367-1.0561.3068V43.0828h6.9995zm-5.2773-1.6112v-1.8331h3.5552v1.8331H37.054zm8.7216-5.2774v1.8329H4.3334v-1.8329h33.637a.8056.8056 0 0 0 0-1.6113h-6.0828V23.2782h10.4437v11.3047h-.9163a.8056.8056 0 1 0 0 1.6113h4.3606zm-1.8331-11.7253v-1.9964a.8056.8056 0 0 0-.8056-.8056h-2.2222l12.0883-9.402a.8482.8482 0 0 1 .6634-.1695.848.848 0 0 1 .5758.3705.854.854 0 0 1-.0866 1.0603L43.9425 24.4689z" fill="#fff" stroke="#94B91B" stroke-width=".3"/><path d="M35.3873 25.1111h-.861a.8056.8056 0 1 0 0 1.6112h.861a.8057.8057 0 0 0 0-1.6112zM39.6926 25.1111h-.8611a.8056.8056 0 0 0 0 1.6112h.8611a.8056.8056 0 0 0 0-1.6112zM35.3873 28.5554h-.861a.8056.8056 0 1 0 0 1.6113h.861a.8057.8057 0 0 0 0-1.6113zM39.6926 28.5554h-.8611a.8056.8056 0 1 0 0 1.6113h.8611a.8056.8056 0 0 0 0-1.6113z" fill="#fff" stroke="#94B91B" stroke-width=".3"/></svg>