<svg width="43" height="45" viewBox="0 0 43 45" fill="none" xmlns="http://www.w3.org/2000/svg"><path d="M20.9455 32.6953c.4852 0 .879-.3938.879-.8789 0-.4851-.3938-.8789-.879-.8789-.4851 0-.8789.3938-.8789.8789 0 .4851.3938.8789.8789.8789z" fill="#fff"/><path d="M21.8245 0c-5.3308 0-9.668 4.3372-9.668 9.668v1.9342c-4.9593.0244-9.116 3.7594-9.6628 8.6954-.9545 8.959-2.9227 12.9518-.0962 18.1491C4.5701 42.4412 8.5777 45 13.0354 45c4.4663 0 8.4698-2.5667 10.6379-6.553 2.7809-5.111.9001-9.1846-.0962-18.1532-.5486-4.9394-4.6984-8.6675-9.6628-8.6916V9.668c0-4.3616 3.5486-7.9102 7.9102-7.9102 4.3708 0 7.9101 3.5362 7.9101 7.9102V22.5c0 3.3924 2.76 6.1523 6.1524 6.1523 3.4019 0 6.1523-2.7531 6.1523-6.1523V.879A.8788.8788 0 0 0 41.1604 0a.8788.8788 0 0 0-.8789.879V22.5c0 2.43-1.9662 4.3945-4.3945 4.3945-2.4232 0-4.3946-1.9713-4.3946-4.3945V9.668c0-5.3421-4.3221-9.668-9.6679-9.668zm-8.7891 17.7539a.8788.8788 0 0 1 .8789.8789v3.5156c0 .4848-.3941.8789-.8789.8789-.4844 0-.8789-.3941-.8789-.8789v-3.5156c0-.4848.3945-.8789.8789-.8789zm-8.7942 2.7335c.4473-4.0385 3.8493-7.1026 7.9153-7.127v2.6357a.853.853 0 0 0 .0134.1466c-1.03.3591-1.7712 1.3393-1.7712 2.4901v3.5156c0 1.1457.735 2.1228 1.7578 2.4857v4.4907c-3.07-.3688-5.9378-2.5945-8.4004-4.8612.2008-1.3599.3567-2.5725.485-3.7762zM22.129 37.6069c-1.8904 3.4761-5.3747 5.6353-9.0936 5.6353-3.7185 0-7.203-2.1592-9.0936-5.6353-1.9-3.4937-1.2655-6.5441-.5078-11.2692 2.7634 2.4218 5.9893 4.5998 9.6014 4.5998 3.6131 0 6.8407-2.1804 9.6065-4.6046.7945 5.0162 1.3403 7.8686-.5129 11.274zm-.299-17.1191c.1349 1.2129.2928 2.4221.4919 3.7686-2.465 2.2701-5.3355 4.4989-8.4076 4.8684v-4.4907c1.0231-.3629 1.7578-1.34 1.7578-2.4857v-3.5156c0-1.1604-.7471-2.1361-1.7708-2.4911a.8827.8827 0 0 0 .013-.1456v-2.6357c4.0673.0244 7.4662 3.0796 7.9157 7.1274z" fill="#fff"/><path d="M15.0068 41.2428c2.3462-.5875 4.3276-2.1767 5.579-4.4759.2235-.411.4016-.7996.5452-1.1879a.8786.8786 0 0 0-.5195-1.1292c-.4556-.1682-.961.0642-1.1292.5194-.114.309-.2585.6225-.4405.9579-1.0134 1.8618-2.5982 3.1438-4.4618 3.6104-.471.1181-.7573.5953-.6392 1.066.1181.4724.5966.757 1.066.6393z" fill="#fff"/></svg>