<svg width="50" height="50" viewBox="0 0 50 50" fill="none" xmlns="http://www.w3.org/2000/svg"><path d="M49.1667 0H27.5a.8333.8333 0 0 0-.8333.8333V47.5c0 .4602.3731.8333.8333.8333h.8333V50H30v-1.6667h16.6667V50h1.6666v-1.6667h.8334A.8333.8333 0 0 0 50 47.5V.8333A.8333.8333 0 0 0 49.1667 0zm-.8334 46.6667h-20V17.5h20v29.1667zm0-30.8334h-20V1.6667h20v14.1666z" fill="#fff"/><path d="M30.8333 5.8333H32.5v8.3334h-1.6667V5.8333zM30.8333 19.1667H32.5v11.6666h-1.6667V19.1667zM.8333 48.3333h.8334V50h1.6666v-1.6667h18.3334V50h1.6666v-1.6667h.8334A.8333.8333 0 0 0 25 47.5V18.3333a.8333.8333 0 0 0-.8333-.8333H.8333A.8333.8333 0 0 0 0 18.3333V47.5c0 .4602.3731.8333.8333.8333zm.8334-29.1666h21.6666v5H1.6667v-5zm0 6.6666h21.6666v20.8334H1.6667V25.8333z" fill="#fff"/><path d="M12.5 26.6667c-5.0627 0-9.1667 4.104-9.1667 9.1666C3.3333 40.896 7.4373 45 12.5 45s9.1667-4.104 9.1667-9.1667c-.0061-5.0602-4.1065-9.1605-9.1667-9.1666zm0 16.6666c-3.2939.0053-6.206-2.139-7.1781-5.2864-.9721-3.147.223-6.5605 2.946-8.4139 2.7229-1.8531 6.3366-1.7127 8.9078.3462l-1.1841 1.1874c-2.4064-1.8254-5.8073-1.5169-7.8463.7121-2.0385 2.2286-2.0438 5.6433-.0118 7.878 2.0321 2.2351 5.4318 2.5537 7.8439.7356l1.1983 1.1984A7.4543 7.4543 0 0 1 12.5 43.3333zm1.9108-4.4108l.3776.3776c-1.7399 1.156-4.067.8456-5.4423-.7267-1.3757-1.5723-1.3741-3.9201.0033-5.4907 1.3773-1.5707 3.7048-1.8787 5.4431-.7202l-.3817.3816a.8338.8338 0 0 0-.2441.5892v5c0 .221.0879.433.2441.5892zm3.9433 1.5833l-2.5208-2.5175v-4.3099l2.5208-2.5208c2.1944 2.7307 2.1944 6.6207 0 9.3514v-.0032zM3.3333 20.8333H5V22.5H3.3333v-1.6667zM6.6667 20.8333h1.6666V22.5H6.6667v-1.6667zM10 20.8333h1.6667V22.5H10v-1.6667zM16.6667 20.8333h5V22.5h-5v-1.6667zM.8333 15.8333h23.3334A.8333.8333 0 0 0 25 15V.8333A.8333.8333 0 0 0 24.1667 0H.8333A.8334.8334 0 0 0 0 .8333V15c0 .4602.3731.8333.8333.8333zm17.5-14.1666h5v12.5h-5v-12.5zm-16.6666 0h15v12.5h-15v-12.5z" fill="#fff"/><path d="M20 3.3333h1.6667V5H20V3.3333zM20 6.6667h1.6667v1.6666H20V6.6667zM14.1667 3.3333h-10a.8334.8334 0 0 0-.8334.8334v7.5c0 .4602.3732.8333.8334.8333h10A.8333.8333 0 0 0 15 11.6667v-7.5a.8334.8334 0 0 0-.8333-.8334zm-.8334 7.5H5V5h8.3333v5.8333zM20.8333 10.4167c-.6905 0-1.25.5595-1.25 1.25s.5595 1.25 1.25 1.25 1.25-.5595 1.25-1.25-.5595-1.25-1.25-1.25zm0 1.6666a.4163.4163 0 0 1-.4166-.4166.4164.4164 0 0 1 .4166-.4167.4165.4165 0 0 1 .4167.4167.4164.4164 0 0 1-.4167.4166z" fill="#fff"/></svg>