<svg width="55" height="32" viewBox="0 0 55 32" fill="none" xmlns="http://www.w3.org/2000/svg"><path fill-rule="evenodd" clip-rule="evenodd" d="M46.75 14.6667h-2.1597c3.5474-2.8538 4.1097-8.043 1.2559-11.5904A8.2436 8.2436 0 0 0 39.4167 0H15.5833c-4.5528-.0035-8.2464 3.6844-8.25 8.2372a8.2436 8.2436 0 0 0 3.0764 6.4295H8.25c-4.5564 0-8.25 3.6936-8.25 8.25 0 4.5563 3.6936 8.25 8.25 8.25h38.5c4.5564 0 8.25-3.6937 8.25-8.25 0-4.5564-3.6936-8.25-8.25-8.25zM39.4167 1.8333c3.5438 0 6.4166 2.8729 6.4166 6.4167 0 3.5438-2.8728 6.4167-6.4166 6.4167H20.757c3.5438-2.8462 4.1094-8.0261 1.2634-11.57a8.232 8.232 0 0 0-1.2634-1.2634h18.6597zM9.1667 8.25c0-3.5438 2.8728-6.4167 6.4166-6.4167C19.1272 1.8333 22 4.7062 22 8.25c0 3.5438-2.8728 6.4167-6.4167 6.4167-3.5421-.004-6.4126-2.8746-6.4166-6.4167zm8.5763 8.25a8.28 8.28 0 0 0-2.1597 2.6583A8.2783 8.2783 0 0 0 13.4237 16.5h4.3193zM8.25 29.3333c-3.5438 0-6.4167-2.8728-6.4167-6.4166 0-3.5439 2.8729-6.4167 6.4167-6.4167 3.5438 0 6.4167 2.8728 6.4167 6.4167-.004 3.5421-2.8746 6.4126-6.4167 6.4166zm5.1737 0a8.2773 8.2773 0 0 0 2.1596-2.6583 8.2789 8.2789 0 0 0 2.1597 2.6583h-4.3193zm9.493 0c-3.5439 0-6.4167-2.8728-6.4167-6.4166 0-3.5439 2.8728-6.4167 6.4167-6.4167 3.5438 0 6.4166 2.8728 6.4166 6.4167-.004 3.5421-2.8745 6.4126-6.4166 6.4166zm23.8333 0H28.0903c3.5439-2.8461 4.1095-8.0261 1.2634-11.5699A8.2298 8.2298 0 0 0 28.0903 16.5H46.75c3.5438 0 6.4167 2.8728 6.4167 6.4167 0 3.5438-2.8729 6.4166-6.4167 6.4166zM3.6667 22.9166c0-2.5313 2.052-4.5833 4.5833-4.5833 2.53.0029 4.5804 2.0533 4.5834 4.5833 0 2.5312-2.0521 4.5833-4.5834 4.5833-2.5312 0-4.5833-2.0521-4.5833-4.5833zm1.8333 0c0 1.5188 1.2312 2.75 2.75 2.75s2.75-1.2312 2.75-2.75-1.2312-2.75-2.75-2.75-2.75 1.2312-2.75 2.75zm12.8333 0c0-2.5313 2.0521-4.5833 4.5833-4.5833 2.53.0029 4.5804 2.0533 4.5834 4.5833 0 2.5312-2.0521 4.5833-4.5834 4.5833-2.5312 0-4.5833-2.0521-4.5833-4.5833zm1.8333 0c0 1.5188 1.2312 2.75 2.75 2.75s2.75-1.2312 2.75-2.75-1.2312-2.75-2.75-2.75-2.75 1.2312-2.75 2.75zM11 8.2501c0-2.5313 2.0521-4.5833 4.5833-4.5833 2.5313 0 4.5834 2.052 4.5834 4.5833 0 2.5312-2.0521 4.5833-4.5834 4.5833-2.53-.003-4.5803-2.0533-4.5833-4.5833zm1.8333 0c0 1.5188 1.2312 2.75 2.75 2.75s2.75-1.2312 2.75-2.75-1.2312-2.75-2.75-2.75-2.75 1.2312-2.75 2.75z" fill="#fff"/></svg>