<svg width="9" height="15" viewBox="0 0 9 15" fill="none" xmlns="http://www.w3.org/2000/svg"><path d="M.1499 7.1542L7.154.1504C7.2543.0503 7.3696 0 7.4998 0c.1303 0 .2455.0503.3457.1504l.7514.7515c.1003.1002.1503.2153.1503.3457 0 .1305-.05.2456-.1503.3458L2.6901 7.5002l5.9068 5.9069c.1003.1001.1503.2154.1503.3455 0 .1304-.05.2457-.1503.3459l-.7514.7513C7.7453 14.95 7.63 15 7.4997 15c-.1301 0-.2454-.0501-.3457-.1502L.1503 7.8458C.05 7.7459 0 7.6305 0 7.5003c0-.1303.0498-.2456.1499-.346z" fill="#262626"/></svg>