<svg width="63" height="63" viewBox="0 0 63 63" fill="none" xmlns="http://www.w3.org/2000/svg"><path d="M6.3 11.55h6.3c.5799 0 1.05-.4701 1.05-1.05 0-.5799-.4701-1.05-1.05-1.05H6.3c-.5799 0-1.05.4701-1.05 1.05 0 .5799.4701 1.05 1.05 1.05zM17.85 11.55h9.45c.5799 0 1.05-.4701 1.05-1.05 0-.5799-.4701-1.05-1.05-1.05h-9.45c-.5799 0-1.05.4701-1.05 1.05 0 .5799.4701 1.05 1.05 1.05zM6.3 23.1h33.6c.5799 0 1.05-.4701 1.05-1.05 0-.5799-.4701-1.05-1.05-1.05H6.3c-.5799 0-1.05.4701-1.05 1.05 0 .5799.4701 1.05 1.05 1.05zM6.3 27.3H21c.5799 0 1.05-.4701 1.05-1.05 0-.5799-.4701-1.05-1.05-1.05H6.3c-.5799 0-1.05.4701-1.05 1.05 0 .5799.4701 1.05 1.05 1.05zM6.3 35.7H21c.5799 0 1.05-.4701 1.05-1.05 0-.5799-.4701-1.05-1.05-1.05H6.3c-.5799 0-1.05.4701-1.05 1.05 0 .5799.4701 1.05 1.05 1.05zM6.3 44.1H21c.5799 0 1.05-.4701 1.05-1.05 0-.5799-.4701-1.05-1.05-1.05H6.3c-.5799 0-1.05.4701-1.05 1.05 0 .5799.4701 1.05 1.05 1.05zM6.3 52.5H21c.5799 0 1.05-.4701 1.05-1.05 0-.5799-.4701-1.05-1.05-1.05H6.3c-.5799 0-1.05.4701-1.05 1.05 0 .5799.4701 1.05 1.05 1.05z" fill="#94B91B" fill-opacity=".4"/><path d="M62.37 30.5865L50.4 25.4173V3.15C50.4 1.4103 48.9897 0 47.25 0H7.35C5.6103 0 4.2 1.4103 4.2 3.15V4.2H3.15C1.4103 4.2 0 5.6103 0 7.35v52.5C0 61.5897 1.4103 63 3.15 63h39.9a3.1414 3.1414 0 0 0 2.2522-.9587l.861.6122a1.8776 1.8776 0 0 0 2.1736 0l10.1587-7.2314A10.694 10.694 0 0 0 63 46.7344v-15.184a1.05 1.05 0 0 0-.63-.9639zM6.3 3.15c0-.5799.4701-1.05 1.05-1.05h39.9c.5799 0 1.05.4701 1.05 1.05v21.3601l-.63-.274a1.0496 1.0496 0 0 0-.8316 0l-.63.274V17.85c0-.0231-.0116-.0452-.0137-.0683a.9862.9862 0 0 0-.0504-.2583c-.0073-.0241-.0063-.0493-.0157-.0724-.0095-.0231-.0168-.0231-.0221-.0357a1.0514 1.0514 0 0 0-.21-.3077l-12.5999-12.6a1.0518 1.0518 0 0 0-.3077-.21c-.0137-.0062-.0231-.0168-.0357-.022-.0126-.0053-.0483-.0084-.0714-.0157a1.0504 1.0504 0 0 0-.2615-.0515c-.0262.0031-.0472-.0084-.0703-.0084H6.3V3.15zm27.3 4.6347L42.6153 16.8H34.65c-.5799 0-1.05-.4701-1.05-1.05V7.7847zM43.05 60.9H3.15c-.5799 0-1.05-.4701-1.05-1.05V7.35c0-.5799.4701-1.05 1.05-1.05H31.5v9.45c0 1.7397 1.4103 3.15 3.15 3.15h9.45v6.5173L40.72 26.88a1.0258 1.0258 0 0 0 .23-.63c0-.5799-.4701-1.05-1.05-1.05H25.2c-.5799 0-1.05.4701-1.05 1.05 0 .5799.4701 1.05 1.05 1.05h14.5414L34.88 29.4H6.3c-.5799 0-1.05.4701-1.05 1.05 0 .5799.4701 1.05 1.05 1.05h25.2073c0 .0168-.0073.0325-.0073.0504V33.6h-6.3c-.5799 0-1.05.4701-1.05 1.05 0 .5799.4701 1.05 1.05 1.05h6.3v2.1H6.3c-.5799 0-1.05.4701-1.05 1.05 0 .5799.4701 1.05 1.05 1.05h25.2V42h-6.3c-.5799 0-1.05.4701-1.05 1.05 0 .5799.4701 1.05 1.05 1.05h6.3v2.1H6.3c-.5799 0-1.05.4701-1.05 1.05 0 .5799.4701 1.05 1.05 1.05h25.3312c.1045.7164.2825 1.4201.5313 2.1H25.2c-.5799 0-1.05.4701-1.05 1.05 0 .5799.4701 1.05 1.05 1.05h8.023a10.7476 10.7476 0 0 0 1.7651 2.1H6.3c-.5799 0-1.05.4701-1.05 1.05 0 .5799.4701 1.05 1.05 1.05h31.5l5.7204 4.0719a1.0258 1.0258 0 0 1-.4704.1281zM60.9 46.7344a8.5907 8.5907 0 0 1-3.6215 6.9762L47.25 60.8496l-10.0285-7.14A8.5912 8.5912 0 0 1 33.6 46.7344v-14.49l1.9005-.8211.0199-.0084L47.25 26.3434l13.65 5.8968v14.4942z" fill="#94B91B" fill-opacity=".4"/><path d="M46.83 28.8109l-10.5 4.536a1.0503 1.0503 0 0 0-.63.9639v12.4236a6.4872 6.4872 0 0 0 2.7384 5.2647l8.2026 5.8391a1.0501 1.0501 0 0 0 1.218 0l8.2026-5.8391a6.489 6.489 0 0 0 2.7385-5.2647V34.3108a1.0503 1.0503 0 0 0-.63-.9639L47.67 28.8109a1.0506 1.0506 0 0 0-.84 0zm9.8701 6.195v11.7285a4.3873 4.3873 0 0 1-1.8575 3.5606L47.25 55.6941l-7.5925-5.4054A4.3838 4.3838 0 0 1 37.8 46.7344V35.0007l9.45-4.0814 9.4501 4.0866z" fill="#94B91B" fill-opacity=".4"/><path d="M41.58 44.31a1.05 1.05 0 1 0-1.26 1.68l4.2 3.15a1.0501 1.0501 0 0 0 1.4501-.1837l8.4-10.5001c.3624-.4529.2891-1.1138-.1638-1.4763-.4529-.3624-1.1139-.2891-1.4763.1638l-7.7637 9.7062L41.58 44.31z" fill="#94B91B" fill-opacity=".4"/></svg>