<svg width="27" height="19" viewBox="0 0 27 19" fill="none" xmlns="http://www.w3.org/2000/svg"><path d="M25.8876.8164H1.1124C.498.8164 0 1.3144 0 1.9288v15.1424c0 .6143.498 1.1123 1.1124 1.1123h24.7752c.6144 0 1.1124-.498 1.1124-1.1123V1.9288c0-.6144-.498-1.1124-1.1124-1.1124zM1.1124 1.69h24.7752a.2388.2388 0 0 1 .2272.1689L13.5 9.7387.8852 1.859a.2387.2387 0 0 1 .2272-.1689zM.8736 2.8548l9.0738 5.6667L.8736 15.72V2.8548zm25.2528 14.2105a.2388.2388 0 0 1-.2388.2388H1.1124a.2388.2388 0 0 1-.2388-.2388v-.2329l9.86-7.7925 2.5334 1.5841a.4367.4367 0 0 0 .466 0l2.5334-1.5841 9.86 7.7925v.2329zm0-1.3453l-9.0971-7.1752 9.0971-5.6376V15.72z" fill="#94B91B"/></svg>