<svg width="23" height="33" viewBox="0 0 23 33" fill="none" xmlns="http://www.w3.org/2000/svg"><path d="M11.4989 19.1029c-3.2331 0-5.8684-2.7907-5.8684-6.2272 0-3.4364 2.6353-6.227 5.8684-6.227 3.2331 0 5.8684 2.7906 5.8684 6.227 0 3.4365-2.6353 6.2272-5.8684 6.2272zm4.7847-6.2272c0-2.7938-2.1435-5.0716-4.7847-5.0716s-4.7847 2.2778-4.7847 5.0716c0 2.7939 2.1435 5.0717 4.7847 5.0717s4.7847-2.2778 4.7847-5.0717zM12.0408 1.577c0 .3218-.2453.5776-.5419.5776-.2965 0-.5418-.2558-.5418-.5777 0-.3219.2453-.5777.5418-.5777.2966 0 .5419.2558.5419.5777z" fill="#94B91B" stroke="#fff" stroke-width=".1"/><path d="M8.7227.4498C3.7676 1.7913.3039 6.5224.3039 11.958c0 2.4776.4002 4.2212 1.944 6.9636 1.4036 2.4934 3.7506 5.8089 7.599 11.2457.3908.552.797 1.1259 1.2194 1.7231.1029.1455.2632.2299.4326.2299s.3297-.0844.4327-.2299c.4192-.5928.8226-1.1626 1.2107-1.7109 3.8528-5.443 6.2021-8.7619 7.607-11.2576 1.544-2.743 1.9446-4.4872 1.9446-6.9639 0-5.4356-3.4637-10.1667-8.4188-11.5082-.2871-.0776-.5833.1053-.6582.4163-.0749.3119.1033.6254.3917.7036 4.4773 1.212 7.6016 5.4854 7.6016 10.3883 0 1.1157-.0827 2.0635-.3445 3.0506-.2618.987-.7019 2.011-1.4146 3.2803-1.342 2.3902-3.6543 5.6571-7.5719 11.1918l-.7395 1.0448-.0408.0577-.0408-.0577-.766-1.0824c-3.8999-5.51-6.2048-8.7665-7.5441-11.1512-.7129-1.2692-1.1534-2.2935-1.4154-3.281-.262-.9876-.345-1.9361-.345-3.0529 0-4.9029 3.1243-9.1763 7.6016-10.3883.2886-.0781.4666-.3917.3917-.7036L8.7227.4498zm0 0c.2871-.0778.5833.1053.6582.4163L8.7227.4498zm-.013-.0483z" fill="#94B91B" stroke="#fff" stroke-width=".1"/></svg>