<svg width="27" height="27" viewBox="0 0 27 27" fill="none" xmlns="http://www.w3.org/2000/svg"><path d="M26.9823 22.2227c-.0859-.6488-.4604-1.2082-1.0275-1.5347l-6.661-3.8352c-.8159-.4697-1.8508-.3329-2.5167.3329l-1.312 1.312c-.3491.3492-.9015.3801-1.2846.0718-1.0343-.8323-2.0527-1.7482-3.0268-2.7224-.9742-.9741-1.8901-1.9925-2.7224-3.0269-.3083-.3831-.2775-.9354.0718-1.2846l1.312-1.312c.6657-.6657.8027-1.7006.3328-2.5166L6.3128 1.046C5.9862.4788 5.4268.1044 4.778.0185c-.6489-.086-1.2864.1304-1.7492.5932l-1.977 1.977C-.3277 3.9684-.35 6.4924.9897 9.6957c1.288 3.08 3.6917 6.4707 6.7682 9.5473 3.0766 3.0765 6.4672 5.4802 9.5473 6.7683 1.5768.6593 2.9888.9888 4.181.9888 1.2297 0 2.2254-.3507 2.9261-1.0513l1.9769-1.9769c.4627-.4628.6789-1.1004.5932-1.7492zm-8.125-4.6118l6.661 3.8351a1.203 1.203 0 0 1 .5968.8914 1.2014 1.2014 0 0 1-.2266.8786l-8.8524-5.0522.3595-.3596a1.2142 1.2142 0 0 1 1.4617-.1933zM4.6633.8857a1.203 1.203 0 0 1 .8914.5968l3.8351 6.661c.273.474.1934 1.075-.1933 1.4616l-.3302.3303-5.08-8.8232a1.1973 1.1973 0 0 1 .877-.2265zm19.1303 24.4446c-1.0962 1.0962-3.3382 1.0502-6.151-.1261-2.9775-1.2451-6.2683-3.5819-9.2662-6.5798-2.998-2.9979-5.3347-6.2887-6.5798-9.2662C.6202 6.5453.5743 4.3034 1.6705 3.2072l1.4676-1.4677 5.0876 8.8365-.3412.3412c-.6656.6657-.7236 1.7195-.1347 2.4515.8519 1.0587 1.789 2.1007 2.7853 3.0969.9963.9963 2.0383 1.9335 3.097 2.7854.7318.5889 1.7857.531 2.4515-.1348l.3113-.3113 8.8647 5.0593-1.466 1.4661z" fill="#94B91B"/></svg>