<svg width="14" height="14" viewBox="0 0 14 14" fill="none" xmlns="http://www.w3.org/2000/svg"><path d="M13.9933 11.0464c.0297.2273-.0396.4249-.2075.5928l-1.9711 1.9563c-.089.0988-.205.1829-.3483.2519-.1433.0692-.284.1137-.4223.1334-.0099 0-.0396.0026-.089.0075a2.022 2.022 0 0 1-.1926.0075c-.1878 0-.4917-.0322-.9116-.0964-.42-.0643-.9337-.2224-1.5413-.4743-.6077-.2519-1.2969-.6299-2.0675-1.1338-.7707-.5038-1.5908-1.1955-2.4603-2.0749-.6916-.6817-1.2647-1.3338-1.7192-1.9563-.4545-.6225-.8201-1.198-1.0968-1.7266C.6892 6.0048.4817 5.5255.3433 5.0958.205 4.666.1112 4.2955.0618 3.9843c-.0494-.3113-.0692-.5558-.0593-.7337.0099-.1778.0148-.2766.0148-.2964.0198-.1383.0642-.2791.1334-.4224.0691-.1432.1531-.2593.252-.3483L2.3737.2124c.1383-.1384.2964-.2075.4743-.2075.1284 0 .242.037.3408.1111.0989.0741.1828.1655.252.2742L5.0267 3.399c.089.158.1136.331.0741.5187-.0395.1877-.1235.3458-.252.4742l-.7261.7263c-.0198.0197-.0371.0518-.052.0963-.0147.0445-.0222.0815-.0222.1111.0396.2076.1285.4447.2668.7115.1186.237.3014.526.5484.867.247.3408.5978.7336 1.0523 1.1782.4446.4545.8398.8077 1.1856 1.0597.3458.2519.6349.4372.867.5558.2323.1186.4101.1902.5336.2148l.1852.0371c.0198 0 .052-.0074.0964-.0222.0444-.0149.0766-.0321.0963-.052l.8448-.8595c.178-.1581.3853-.2371.6225-.2371.168 0 .3013.0296.4001.0889h.0148l2.8604 1.6896c.2076.1285.3311.2915.3706.4891z" fill="#94B91B"/></svg>