<svg width="63" height="63" viewBox="0 0 63 63" fill="none" xmlns="http://www.w3.org/2000/svg"><path d="M49.4464 36.3381l-7.9586-4.9113c-.5721-.3531-1.3425-.1669-1.6944.401-.3527.5692-.1655 1.344.4011 1.6933l7.9587 4.9113c.5718.3528 1.3416.1713 1.6931-.4011.3516-.5724.1724-1.3404-.3999-1.6932zM36.6535 28.6591c-.7859-.0001-1.3785.7481-1.1988 1.513.0714.3047.2809.5815.5567.7562.1894.12.4101.192.6394.192.4305 0 .823-.2177 1.0482-.5843.4796-.7809-.1233-1.8768-1.0455-1.8769zM23.912 31.7642c-.3471-.5529-1.1474-.7315-1.6971-.3843l-7.9106 4.9888c-.5691.3589-.7428 1.1277-.3843 1.6964.2154.3419.6312.5424 1.0428.554.2316.0065.4618-.0468.6544-.1682 0 0 7.9051-4.9865 7.9106-4.9901.569-.3588.7418-1.127.3842-1.6966zM27.0322 28.5643c-.5714 0-1.0721.4017-1.1985.9584-.1721.7584.4282 1.5028 1.2009 1.5028.5704 0 1.0739-.4015 1.1998-.9588.1723-.7629-.4225-1.5024-1.2022-1.5024z" fill="#789D00"/><path d="M62.6981 56.0457c-.4459-.513-1.2231-.5671-1.7359-.1211-1.3121 1.1408-2.5263 2.3237-4.2478 2.7995-1.9138.529-3.7325.1115-5.4645-.7545l6.4081-21.5629a1.2305 1.2305 0 0 0-.5418-1.4029l-5.9287-3.5927V20.9199c0-.6795-.5509-1.2305-1.2305-1.2305h-2.4609v-3.6918c0-.6795-.5509-1.2306-1.2305-1.2306h-3.876v-3.6917c0-.6796-.5508-1.2306-1.2304-1.2306h-5.9678V1.2306C35.1914.551 34.6405 0 33.9609 0h-4.9218c-.6796 0-1.2305.551-1.2305 1.2306v8.614h-5.9678c-.6795 0-1.2304.5511-1.2304 1.2307v3.6917h-3.876c-.6796 0-1.2305.5511-1.2305 1.2306v3.6918H13.043c-.6796 0-1.2305.551-1.2305 1.2305v10.4912l-5.9286 3.5925a1.2306 1.2306 0 0 0-.5418 1.403l6.3951 21.5188c-.1091-.3672-2.0781-.609-2.4262-.6541-3.5827-.4637-6.3071 1.3313-8.8879 3.5755-.5129.4459-.567 1.2231-.1212 1.736.4256.4895 1.2177.5717 1.7358.1212 2.6588-2.3116 5.6563-4.0736 9.1743-2.3143 3.1824 1.5913 6.4766 2.2737 9.7914.5292 2.6728-1.4071 5.2521-2.622 8.2355-1.2014l3.0672 1.4607c2.6241 1.2498 5.62 1.221 8.2194-.079 1.6018-.801 3.2298-1.8669 5.0595-1.9927 1.7936-.1232 3.5265.5446 5.1024 1.3333 2.0818 1.0411 4.519 1.2491 6.7545.6118 2.0592-.5872 3.5578-1.8987 5.1349-3.2701.513-.4458.5671-1.2229.1213-1.7358zM48.7265 22.1505v7.7693l-12.8212-7.7693h12.8212zM30.2695 2.4612h2.461v7.3835h-2.461V2.4612zm-7.1982 9.8447h16.8574v2.4611H23.0713v-2.4611zm-8.7978 9.8446h12.8212l-12.8212 7.7693v-7.7693zm15.996 35.332c.0003-.2187-1.754-.6221-1.9835-.6718-2.1415-.4636-4.4405-.1692-6.3819.8528-1.4086.7414-2.7677 1.6064-4.3787 1.8139l-.0089.0011c-.9413.1144-1.9048.0452-2.8158-.2205l-6.729-22.6417 22.2978-13.5118v34.378zM17.9649 19.6894v-2.4612h27.0702v2.4612H17.9649zm31.0104 37.294c.0137-.3808-3.4501-.3773-3.6821-.3528-2.1359.2259-3.9835 1.3249-5.8684 2.2674-2.2266 1.1135-4.5178.7934-6.6943-.2436V23.1045l22.2979 13.5118-6.0531 20.3671z" fill="#789D00"/></svg>