<svg width="142" height="147" viewBox="0 0 142 147" fill="none" xmlns="http://www.w3.org/2000/svg"><path fill-rule="evenodd" clip-rule="evenodd" d="M141.345 144.745l-.001-.001-43.098-44.8206 1.0371-1.0401c10.4659-10.496 16.9449-24.9597 16.9449-40.9112C116.228 26.0059 90.2222 0 58.256 0S.2839 26.0059.2839 57.9721c0 31.9662 26.0059 57.9719 57.9721 57.9719 14.0311 0 26.9068-5.014 36.9461-13.339l1.0728-.889 43.1491 44.875.002.003c.258.27.602.406.958.406.334 0 .663-.123.924-.372.529-.51.545-1.353.037-1.883zM2.9479 57.9721c0 30.4994 24.8087 55.3079 55.3081 55.3079 30.4965 0 55.308-24.8085 55.308-55.3079 0-30.4993-24.8086-55.308-55.308-55.308S2.9479 27.4727 2.9479 57.972z" fill="#94B91B"/><rect x="57" y="34" width="2.5" height="50" rx="1.25" fill="#94B91B"/><rect x="83" y="58" width="2.5" height="50" rx="1.25" transform="rotate(89.856 83 58)" fill="#94B91B"/></svg>