<svg width="100" height="88" viewBox="0 0 100 88" fill="none" xmlns="http://www.w3.org/2000/svg"><path d="M99.5123 83.8179L52.0265 1.5716A2.352 2.352 0 0 0 49.9887.395a2.3532 2.3532 0 0 0-2.0381 1.1765L.3153 84.0748a2.3542 2.3542 0 0 0 0 2.3539 2.3522 2.3522 0 0 0 2.038 1.1765h95.2931c1.2997 0 2.3536-1.0525 2.3536-2.3539a2.343 2.343 0 0 0-.4877-1.4334zm-93.0822-.9196L49.9887 7.455l43.5584 75.4433H6.4301z" fill="#262626" fill-opacity=".1"/><path d="M47.6351 31.2747V65.032c0 1.3005 1.0536 2.3536 2.3536 2.3536 1.2997 0 2.3533-1.0525 2.3533-2.3536V31.2747c0-1.2986-1.0536-2.3533-2.3533-2.3533-1.3.0003-2.3536 1.055-2.3536 2.3533zM49.9887 70.127c-1.6136 0-2.9223 1.3078-2.9223 2.9214 0 1.6136 1.3087 2.9233 2.9223 2.9233 1.6133 0 2.9222-1.3103 2.9222-2.9233 0-1.6136-1.3086-2.9214-2.9222-2.9214z" fill="#262626" fill-opacity=".1"/></svg>